<?xml version="1.0" encoding="utf-8"?>
<!-- Generator: Adobe Illustrator 27.5.0, SVG Export Plug-In . SVG Version: 6.00 Build 0)  -->
<svg version="1.1" id="_レイヤー_2" xmlns="http://www.w3.org/2000/svg" xmlns:xlink="http://www.w3.org/1999/xlink" x="0px"
	 y="0px" viewBox="0 0 1200 670" style="enable-background:new 0 0 1200 670;" xml:space="preserve">
<style type="text/css">
	.st0{clip-path:url(#SVGID_00000028313040793083325050000009483539166766418345_);}
	.st1{fill:#FFFFFF;}
</style>
<g id="_レイヤー_2-2">
	<g>
		<defs>
			<rect id="SVGID_1_" y="0" width="1200" height="670"/>
		</defs>
		<clipPath id="SVGID_00000090981011833881010940000003492139182054604469_">
			<use xlink:href="#SVGID_1_"  style="overflow:visible;"/>
		</clipPath>
		<g style="clip-path:url(#SVGID_00000090981011833881010940000003492139182054604469_);">
			<g>
				
					<image style="overflow:visible;enable-background:new    ;" width="723" height="223" xlink:href="F7605BB3.png"  transform="matrix(1 0 0 1 440.1426 19.4861)">
				</image>
				<g>
					
						<image style="overflow:visible;enable-background:new    ;" width="699" height="201" xlink:href="F7605BB1.png"  transform="matrix(0.995 0 0 0.995 453.8814 30.9861)">
					</image>
					<g>
						<g>
							<g>
								<path class="st1" d="M457.3,46.1c1.5,0,4.1,0.2,6.1,0.2c1.9,0,4.3-0.1,5.8-0.1c1.1,0,1.7,0.2,1.7,0.7c0,0.5-0.8,0.8-1.8,1.1
									c-2.1,0.4-2.8,1-3,3.4c-0.2,2.3-0.2,12.4-0.1,13.3c0.1,0.2,0.2,0.4,0.4,0.4s0.9-0.4,0.9-0.4c2-1.5,11.9-11.2,13.8-13.4
									c1.6-1.8,1.4-2.8-0.7-3.3c-0.7-0.2-1.4-0.4-1.4-0.9c0-0.6,0.7-0.8,1.6-0.8c1.2,0,1.2,0.1,2.3,0.1c1.5,0,7.4-0.3,9.2-0.3
									c1.1,0,1.6,0.2,1.6,0.7c0,0.4-0.7,0.9-1.7,1.1c-3.5,0.7-5,1.7-9,4.8c-2.9,2.3-10.9,9.7-11.7,10.9c-0.1,0.4-0.2,0.4,0,0.6
									c1.4,1.7,11.9,12.6,16.6,17.3c2.8,2.8,4.3,3,6.5,3.3c0.7,0.2,1.2,0.6,1.2,0.9c0,0.6-0.9,0.9-1.5,0.9c-1.7,0-7.4-0.5-9-0.5
									c-2.2,0-2.9,0.1-4.3,0.1c-0.9,0-1.3-0.7-1.3-1.1c0-0.3,0.2-0.6,2.7-1.1c0.2-0.1,0.4-0.4,0.3-0.6
									c-1.9-2.3-10.2-11.2-13.4-14.5c-1.7-1.8-2.3-2.6-2.8-2.6c-0.3,0-0.2,0.8-0.3,1.3c-0.1,1.2,0.1,11.2,0.1,13.5
									c0.1,1.6,0.9,2.5,3.7,3.3c1.1,0.2,1.4,0.7,1.4,1.1c0,0.5-0.6,0.8-1.6,0.8c-1.4,0-5.7-0.2-7.6-0.2c-2,0-4,0.2-6,0.2
									c-0.7,0-1.5-0.4-1.5-0.8c0-0.6,0.5-0.7,1.8-1.1c3-0.6,4.2-1.5,4.4-5.1c0.1-2.1,0.2-7.9,0.2-14.6c0-9.9-0.1-11-0.2-13.2
									c-0.1-2.2-0.9-2.8-3.4-3.5c-1.4-0.4-1.6-0.7-1.6-1.1C455.6,46.3,456.4,46.1,457.3,46.1z"/>
								<path class="st1" d="M541.2,65.6c0,8.7-4.3,14.7-8.8,17.9c-3.9,2.7-9,3.6-12.2,3.6c-6.3,0-12.3-2.7-16.1-7
									c-3.3-3.6-5.1-8.7-5.1-14c0-7.6,3.3-12.9,8-16.6c3-2.5,8.3-4.3,12.7-4.3C531.6,45.1,541.2,53.9,541.2,65.6z M509.8,50.7
									c-2.7,2.7-4.8,7.3-4.8,14.5c0,9.2,6.8,19.8,16.7,19.8c5.1,0,7.5-2.2,8.2-3c2.5-2.2,5.3-7.2,5.3-14.6
									c0-6.7-2.9-13.2-7.5-16.9c-2.5-2-6.4-3.3-9.3-3.3C515.8,47.2,512,48.5,509.8,50.7z"/>
								<path class="st1" d="M581.2,46.1c2.2-0.1,3.3-0.5,4.2-1.1c0.4-0.2,0.6-0.4,0.9-0.4c0.3,0,0.6,0.6,0.2,1.4
									c-0.6,1.9-1,3.9-1.4,7.1c-0.1,0.6-0.6,1.2-1.1,1.2c-0.4,0-0.7-0.4-0.9-2c-0.4-3.2-1.2-3.5-5-3.7c-1.1-0.1-7.9-0.1-8.7,0.1
									c-0.3,0.1-0.6,0.7-0.6,0.8v15.1c0,7.2,0,13,0.2,15.3c0.3,2.8,0.6,3.5,4.5,4.4c0.8,0.2,1.7,0.7,1.7,1.1
									c0,0.7-1.1,0.7-1.7,0.7c-0.5,0-4.3-0.3-7-0.3c-3.1,0-6.2,0.4-7,0.4c-1.2,0-1.9-0.4-1.9-0.7c0-0.4,0.6-0.9,1.2-1.1
									c4.3-1,4.5-2,4.6-6.7c0.1-3.6,0.4-16.3,0.4-21v-7.4c0-0.5-0.3-0.8-0.5-0.8c-1.2-0.2-6.7-0.3-7.7-0.3c-2.3,0-3.6,0.4-4.6,1.4
									c-0.2,0.2-1,1.2-2,3.2c-0.6,1.3-0.9,1.2-1.2,1.2c-0.4,0-0.6-0.8-0.6-1.4c0-1.2,1.2-4.6,1.2-8.2c0-0.4,0.6-1,0.9-1
									c0.3,0,0.3,0.4,1,1c0.2,0.2,1.2,1.1,2.1,1.2c1.6,0.2,6.6,0.4,14.5,0.4C570.2,46.3,578.7,46.2,581.2,46.1z"/>
								<path class="st1" d="M614.1,46.3c2,0,4.8-0.1,5.7-0.2c0.2-0.1,0.5,0.4,0.6,0.7c0,2.8,0.1,4.6,0.1,5.9c0,0.9-0.4,1.6-0.9,1.6
									s-0.9-0.9-1-1.5c-0.8-3.3-2.2-3.9-4.1-4.2c-1.6-0.2-6.1-0.4-8.8-0.2c-0.1,0-0.8,0.3-0.9,1.7c-0.1,1.5-0.3,13.2-0.2,14.1
									c0.1,0.2,0.1,0.6,0.4,0.6h4c5.8,0,6.1-0.2,7.2-3.1c0.4-0.9,0.7-1.3,1.1-1.3c0.4,0,0.6,0.9,0.5,1.4c-0.1,1.7-0.2,3-0.2,4.5
									c0,1.7,0.1,2.5,0.2,3.8c0.1,1.1-0.2,1.8-0.7,1.8s-0.9-0.7-1.1-1.4c-0.9-2.8-1.1-3-4.9-3.2c-2-0.1-4.5-0.1-6.1-0.1
									c-0.2,0-0.6,0.4-0.6,0.6c-0.2,1.3-0.2,7-0.2,9.7c0,1.8,0.2,4.1,0.6,5.1c0.2,0.7,0.7,1.2,1.2,1.4c1.1,0.2,3.2,0.4,5.6,0.4
									c0.7,0,4.5-0.1,5.9-0.4c2-0.5,3.6-1.7,5.1-4.6c0.7-1.4,1.1-1.7,1.4-1.7c0.4,0,0.6,1,0.5,1.7c-0.1,0.5-1.8,6.1-2.2,6.6
									c-0.2,0.2-0.7,0.7-1.1,0.7c-0.7,0-10-0.5-20.1-0.5c-3.3,0-4.6,0.3-7,0.3c-1.2,0-1.9-0.1-1.9-0.8c0-0.4,0.7-0.7,1.7-1
									c3.1-0.7,4.3-1.2,4.5-4.5c0.2-2.6,0.5-9.9,0.5-17.6c0-7.4,0.1-8.7-0.1-10.4c-0.1-2.7-0.7-3.5-3.5-4.1
									c-1.3-0.3-1.8-0.6-1.8-1.1c0-0.6,0.9-0.9,1.7-0.9c2.9,0,5.3,0.2,9.5,0.2C605,46.3,614.1,46.3,614.1,46.3z"/>
								<path class="st1" d="M654.3,46.3c0.4,0.1,0.7,1.1,0.7,1.2c0.1,1.2,0.6,4.8,0.6,5c0,1.1,0,1.7-0.4,1.7
									c-0.5,0-1.2-0.4-1.5-1.3c-0.7-2.2-2.4-4.1-3-4.5c-1.1-0.9-2.6-1.4-4.4-1.4c-4.1,0-7.1,3.1-7.1,7.2c0,4.4,3.2,6.3,8.6,10
									c4.8,3.2,8.5,6.4,8.5,12c0,3.1-1.7,6.6-5.1,8.7c-2,1.3-5.6,2.2-8.4,2.2c-2,0-6.2-0.7-8.1-1.6c-0.6-0.4-1.4-1.7-1.4-2
									c-0.3-2.1-0.9-4.8-0.9-5.8c0-0.2,0.6-1.2,0.9-1.2c0.5,0,1.4,1.6,2.3,3.5c1.6,3.4,5.7,4.9,8,4.9c4.3,0,7.5-3,7.5-7.5
									c0-2.6-1.2-5.4-7.7-9.5c-5.3-3.4-9-7-9-12.2c0-2.9,1.3-5.7,3.4-7.5c1.9-1.7,4.8-3,9.2-3C650,45.1,653.2,46.1,654.3,46.3z"/>
								<path class="st1" d="M685.4,46.7c0.5,1.7,1.5,4.5,2.7,7.7c3.2,9,7.9,21.3,8.9,23.8c2,5.1,3,5.6,5.8,6.2
									c1,0.3,1.5,0.6,1.5,1.1s-0.4,0.8-2,0.8c-2,0-5.1-0.3-7.8-0.3c-2,0-2.8,0.1-4.4,0.1s-1.9-0.4-1.9-0.7s0.4-0.8,1.5-1
									c3-0.6,2.7-1.9,2.5-3.2c-0.5-2.5-2-6.6-3.5-10.6c-0.1-0.2-0.3-0.6-2.1-0.6c-3.4,0-8.8,0.1-10.1,0.2c-0.2,0-0.6,0.3-0.7,0.5
									c-1.6,4-3.2,9.3-3.2,10.8c0,0.7,0.2,1.8,3,2.7c1.1,0.3,1.7,0.7,1.7,1.1c0,0.6-0.9,0.8-1.7,0.8c-1.1,0-2.6-0.2-4.9-0.2
									c-2.3,0-5.5,0.3-6.4,0.3c-1.1,0-1.4-0.2-1.4-0.6s0.4-0.9,1.4-1.2c3.1-1.1,3.9-1.2,5.7-5.3c1.4-3.2,8.5-21.8,11.1-28.1
									c0.4-0.9,0.4-1.2,0.6-1.6c0.1-0.2,0.2-0.6,0.4-1.1c0.4-0.6,1.1-1.8,1.5-2.5c0.4-0.5,0.7-0.8,1-0.8
									C684.7,45.1,684.9,45.4,685.4,46.7z M687.4,66.8c-1.1-3.2-4.3-12.4-4.8-13.3c-0.2-0.4-0.3-0.4-0.5,0
									c-1.1,3-4.3,11.6-4.8,13.5c-0.1,0.2,0.1,0.4,0.3,0.4c2.5-0.1,7.6,0,9.6-0.2C687.3,67.3,687.5,67,687.4,66.8z"/>
								<path class="st1" d="M732.7,46.3c0.4,0.1,0.7,1.1,0.7,1.2c0.1,1.2,0.6,4.8,0.6,5c0,1.1,0,1.7-0.4,1.7
									c-0.5,0-1.2-0.4-1.5-1.3c-0.7-2.2-2.4-4.1-3-4.5c-1.1-0.9-2.6-1.4-4.4-1.4c-4.1,0-7.1,3.1-7.1,7.2c0,4.4,3.2,6.3,8.6,10
									c4.8,3.2,8.5,6.4,8.5,12c0,3.1-1.7,6.6-5.1,8.7c-2,1.3-5.6,2.2-8.4,2.2c-2,0-6.2-0.7-8.1-1.6c-0.6-0.4-1.4-1.7-1.4-2
									c-0.3-2.1-0.9-4.8-0.9-5.8c0-0.2,0.6-1.2,0.9-1.2c0.5,0,1.4,1.6,2.3,3.5c1.6,3.4,5.7,4.9,8,4.9c4.3,0,7.5-3,7.5-7.5
									c0-2.6-1.2-5.4-7.7-9.5c-5.3-3.4-9-7-9-12.2c0-2.9,1.3-5.7,3.4-7.5c1.9-1.7,4.8-3,9.2-3C728.4,45.1,731.6,46.1,732.7,46.3z"
									/>
								<path class="st1" d="M755.1,64.6c3.6,0,12.1-0.2,23-0.2c0.4,0,0.6-0.4,0.7-1.6c0.1-0.8,0.1-8.8-0.1-11.3
									c-0.2-2.3-0.6-2.8-3.4-3.5c-0.9-0.2-1.5-0.6-1.5-1.2c0-0.4,0.6-0.7,1.9-0.7c0.8,0,4.8,0.1,6.3,0.1c2.1,0,4.9-0.2,5.6-0.2
									c1,0,1.7,0.2,1.7,0.7c0,0.4-0.5,0.8-1.8,1.1c-2.6,0.6-3.1,1.7-3.2,3.5c-0.3,3.2-0.5,9.8-0.5,20.3c0,2.7,0.2,8.2,0.2,9.2
									c0.1,2.4,0.7,2.7,3.5,3.5c0.9,0.3,1.4,0.7,1.4,1.2c0,0.5-0.6,0.7-1.7,0.7c-1,0-3.2-0.2-5.1-0.2c-1.4,0-6,0.4-7.2,0.4
									c-0.9,0-1.5-0.1-1.5-0.7s0.7-0.9,1.4-1.1c3.3-1,3.6-1.7,3.8-6.1c0.1-2.6,0.2-6.9,0.2-10c0-1.1-0.2-1.3-0.7-1.3
									c-9.6,0-21.8-0.2-23-0.1c-0.2,0-0.7,0.6-0.7,1.1c-0.1,1.6,0,9.5,0,11.3c0.1,2.9,0.7,4,3.3,4.8c1.4,0.4,1.8,0.6,1.9,1.2
									c0.1,0.5-1,0.6-1.8,0.6c-0.4,0-4.2-0.2-6.4-0.2c-1.4,0-4,0.2-6.1,0.2c-1.4,0-1.9-0.2-1.9-0.6c0-0.6,0.7-1,1.4-1.2
									c3.2-0.8,3.6-1.4,3.9-3.8c0.2-2.5,0.6-9.5,0.6-19.6c0-1.1,0.1-6.8,0-9.5c-0.1-2.1-0.5-3-3.1-3.5c-1.3-0.2-1.7-0.7-1.7-1.2
									c0-0.4,0.8-0.7,1.8-0.7c1.7,0,4,0.1,5.6,0.1c2.6,0,4.5-0.1,5.9-0.1c1.3,0,2,0.3,2,0.7c0,0.6-0.5,0.9-1.8,1.2
									c-2.9,0.6-3.1,1.5-3.3,4.1c-0.2,2-0.2,10.2-0.2,11.3C754.5,64.5,754.7,64.6,755.1,64.6z"/>
								<path class="st1" d="M803.1,52.3c-0.2-2.8-0.2-3.8-3.6-4.4c-1.4-0.2-1.7-0.7-1.7-1.1c0-0.5,0.7-0.7,1.5-0.7
									c1.6,0,4.7,0.2,6.7,0.2c3,0,4.5-0.2,6.6-0.2c1,0,1.5,0.2,1.5,0.7s-0.6,0.9-1.6,1.1c-3.6,0.7-3.5,2.3-3.8,4
									c-0.3,2-0.4,6.1-0.4,18.2c0,3.4,0.1,7.2,0.2,9.2c0.2,3.3,0.5,4.5,4.5,5.3c1.1,0.2,1.6,0.6,1.6,1.1c0,0.5-0.9,0.8-1.7,0.8
									c-3.2,0-7.5-0.4-9.2-0.4c-1.9,0-2.4,0.1-4.7,0.1c-1.2,0-1.6-0.4-1.6-0.9s0.6-0.8,1.9-1.1c3.1-0.7,3.3-1.6,3.6-4.5
									c0.2-2.2,0.3-8.6,0.3-13.8C803.3,62,803.2,54.4,803.1,52.3z"/>
								<path class="st1" d="M859.1,46.3c0.4,0.1,0.7,1.1,0.7,1.2c0.1,1.2,0.6,4.8,0.6,5c0,1.1,0,1.7-0.4,1.7
									c-0.5,0-1.2-0.4-1.5-1.3c-0.7-2.2-2.4-4.1-3-4.5c-1.1-0.9-2.6-1.4-4.4-1.4c-4.1,0-7.1,3.1-7.1,7.2c0,4.4,3.2,6.3,8.6,10
									c4.8,3.2,8.5,6.4,8.5,12c0,3.1-1.7,6.6-5.1,8.7c-2,1.3-5.6,2.2-8.4,2.2c-2,0-6.2-0.7-8.1-1.6c-0.6-0.4-1.4-1.7-1.4-2
									c-0.3-2.1-0.9-4.8-0.9-5.8c0-0.2,0.6-1.2,0.9-1.2c0.5,0,1.4,1.6,2.3,3.5c1.6,3.4,5.7,4.9,8,4.9c4.3,0,7.5-3,7.5-7.5
									c0-2.6-1.2-5.4-7.7-9.5c-5.3-3.4-9-7-9-12.2c0-2.9,1.3-5.7,3.4-7.5c1.9-1.7,4.8-3,9.2-3C854.8,45.1,858,46.1,859.1,46.3z"/>
								<path class="st1" d="M884.2,61.6c0.1,0,0.7,0.3,0.7,0.5c0-0.2,0.2,1.5,0.2,2.3c0,0.6-1.2,0.7-1.6,0.7h-6.7
									c-0.3,0-0.6,0.3-0.6,0.4c-0.1,1.2-0.1,10.3-0.1,13.3c0,1.5,0.4,2.3,1.1,3c1.2,1.1,2.5,1.2,3.8,1.2c0.8,0,2.1-0.4,3-0.9
									c0.6-0.3,0.7-0.4,0.9-0.4c0.1,0,0.4,0.1,0.4,0.7c0,0.5-0.4,1.1-0.9,1.5c-1.7,1.6-3.8,2.7-6.6,2.7c-2.5,0-4.7-1.5-5.4-2.9
									c-0.7-1.1-0.8-2.3-0.8-4.1c0-2.3,0.2-11.6,0.2-13.7c0-0.4-1.1-0.9-2.3-1.2c-0.5-0.2-0.9-0.5-0.9-0.7c0-0.2,0.2-0.5,0.4-0.7
									c2.2-1.7,4.1-3.2,4.9-4.3c0.7-0.9,1.2-1.4,1.4-1.4c0.3,0,0.9,0.6,0.9,0.7v2.9c0,0.2,0.2,0.5,0.5,0.5
									C877.9,61.9,883.9,61.6,884.2,61.6z"/>
								<path class="st1" d="M907.2,63.9c0.9,1.3,1.2,2.5,1.2,5.1c0,2.4-0.2,10.2-0.2,10.9c0,2.8,2,3.1,2.5,3.1
									c0.2,0,1.7-0.4,2.3-0.9c0.2-0.1,0.2,0,0.4,0.2c0.2,0.2,0.2,0.6,0.2,0.6c0,1.2-2.8,3.8-5.6,3.8c-1.4,0-3.2-0.8-4-3.1
									c0-0.1-0.2-0.3-0.4-0.2c-2.3,1.6-4.9,2.7-5.6,2.8c-0.7,0.2-2.2,0.4-2.5,0.4c-2.2,0-4.3-2.7-4.3-5.8c0-1.1,0.5-2.3,1.2-3.2
									c0.6-0.8,1.5-1.1,2.5-1.5c0.9-0.4,5.9-1.7,7.2-2.2c1.4-0.4,1.8-0.7,1.8-1.1c0.1-0.6,0.1-4.3,0.1-5.1c0-1.5-1.8-4.1-4.8-4.1
									c-1.3,0-2.1,0.4-2.5,0.7c-0.4,0.2-0.6,1.3-0.4,2.5c0,0.2-0.2,0.6-0.4,0.7c-0.6,0.5-3.7,2-4,2c-0.4,0-0.7-0.5-0.7-0.8
									c0-1.8,1.7-3.5,4.6-5.4c1.8-1.3,4.6-2.3,5.8-2.3C904.8,61,906.3,62.6,907.2,63.9z M903.2,82.4c0.4-0.2,0.7-1.4,0.7-1.5
									c0.1-1.5,0.1-3.6,0.1-4.8c0-0.2-0.2-0.5-0.5-0.5c-1.7,0-4.7,1.1-6.4,1.9c-0.6,0.4-1.2,0.9-1.2,2.3c0,2.7,2.6,3.7,3.9,3.7
									C900.7,83.4,902,83,903.2,82.4z"/>
								<path class="st1" d="M927.8,83.2c0,2-1.4,3.6-3.5,3.6c-1.5,0-3.4-0.9-3.4-3.6c0-2.6,2.3-3.6,3.4-3.6
									C927,79.6,927.8,82,927.8,83.2z"/>
							</g>
							<g>
								<path class="st1" d="M1048.8,160.8c2.9,0,3.4,0.1,5.9,0.1c0.1,0,0.4,0.4,0.5,0.6c0.5,1.6,0.8,2.1,1.7,4
									c2.5,5.2,7.6,15.9,8.3,16.7c0.1,0.1,0.4,0.3,0.4,0.1c0.4-0.8,8.7-16.4,9.4-18.3c0-0.2,0.8-1.7,1-2.6c0-0.2,0.4-0.6,0.5-0.6
									c1.6,0,5.2-0.1,5.6-0.1c0.6,0,1.2,0.1,1.2,0.5c0,0.3-0.4,0.6-1.2,0.7c-0.7,0.1-1.3,0.3-2,0.6c-0.7,0.3-1.4,1.1-1.4,3.4
									c0,12.3,0.5,18,0.6,19.2c0.3,2,0.8,2.4,2.9,3.1c0.8,0.2,1.2,0.5,1.2,0.8c0,0.4-0.6,0.6-1.3,0.6c-0.5,0-3.9-0.2-5.5-0.2
									c-0.8,0-2.3,0.1-3.4,0.1c-0.5,0-1.2-0.2-1.2-0.6c0-0.4,0.5-0.6,1.2-0.8c1.8-0.5,1.9-1.6,2-3.2c0.2-2,0.1-14.9,0-17.1
									c0-0.3-0.2-0.6-0.4-0.1c-0.5,0.8-5.5,10.6-7.2,14.2c-1.1,2.3-2.1,4.6-2.8,6.3c-0.5,1.3-0.7,1.2-1,1.2
									c-0.3,0-0.5-0.4-0.7-0.8c-0.3-1.1-0.8-2.6-1.6-4.7c-2.4-5.9-6-12.9-7.7-16.6c-0.1-0.3-0.3-0.4-0.3,0.1
									c-0.4,1.9-0.8,13.1-0.7,17.1c0.1,2.3,0.4,2.9,2.7,3.6c1,0.3,1.2,0.4,1.2,0.8c0,0.4-0.5,0.5-1.2,0.5c-1.4,0-3.3-0.1-4.4-0.1
									c-1.1,0-2.4,0.1-3.6,0.1c-0.7,0-1.2-0.1-1.2-0.6c0-0.2,0.3-0.5,0.9-0.6c2.8-0.8,3-1.6,3.4-4.1c0.4-3.1,1.4-15.8,1.5-19.2
									c0-0.4-0.1-2-2-2.6c-0.8-0.2-1.3-0.4-1.9-0.5c-0.3-0.1-0.7-0.4-0.7-0.7C1047.5,160.8,1047.8,160.8,1048.8,160.8z"/>
								<path class="st1" d="M1093.1,165.3c-0.1-2-0.1-2.7-2.6-3.2c-1-0.2-1.2-0.5-1.2-0.8c0-0.4,0.5-0.5,1.1-0.5
									c1.2,0,3.4,0.1,4.8,0.1c2.2,0,3.2-0.1,4.7-0.1c0.7,0,1.1,0.2,1.1,0.5s-0.4,0.6-1.2,0.8c-2.6,0.5-2.5,1.6-2.7,2.8
									c-0.2,1.5-0.3,4.3-0.3,13c0,2.4,0,5.2,0.1,6.6c0.1,2.4,0.4,3.2,3.2,3.8c0.8,0.1,1.2,0.4,1.2,0.8c0,0.4-0.7,0.6-1.2,0.6
									c-2.3,0-5.4-0.3-6.6-0.3c-1.3,0-1.7,0.1-3.4,0.1c-0.8,0-1.2-0.3-1.2-0.6s0.4-0.6,1.3-0.8c2.2-0.5,2.4-1.2,2.6-3.2
									c0.1-1.6,0.2-6.2,0.2-9.9C1093.2,172.3,1093.2,166.7,1093.1,165.3z"/>
								<path class="st1" d="M1107.3,160.8c1,0,3.2,0.1,5.4,0.1c0.3,0,0.7,0.3,0.9,0.6c0.7,0.8,1.8,2.1,3.5,4.4
									c2,2.5,11.8,13.2,14.7,16.4c0.3,0.3,0.4-0.2,0.4-0.3c0.2-1.4,0.1-6.2,0.1-12.6c0-1.5-0.1-3.1-0.2-4.4c0-0.9-0.4-2-2.8-2.7
									c-0.9-0.3-1.2-0.6-1.2-1c0-0.3,0.6-0.4,1.2-0.4c1.2,0,2.4,0,3.8,0c1.6,0,3-0.2,4.2-0.2c0.8,0,1,0.1,1,0.5
									c0,0.3-0.3,0.7-1.1,0.9c-1.9,0.4-2.7,0.8-2.8,3.2c-0.1,1.6-0.5,10.3-0.5,18c0,1.9,0.3,5.2,0.3,5.9c0,0.4-0.2,0.9-0.6,0.9
									c-0.6,0-1.6-0.9-2-1.4c-0.8-0.9-1.6-2.1-2.8-3.6c-4.2-5-11.9-13.6-15.8-18.4c-0.2-0.2-0.5-0.1-0.5,0.1
									c0,1.2-0.2,2.4-0.2,5.9c0,4-0.1,10.8,0,12.2c0.2,2,0.7,2.7,2.8,3.3c0.9,0.2,1.1,0.5,1.1,0.8c0,0.4-0.6,0.6-1.4,0.6
									c-1.3,0-3.2-0.2-4.7-0.2c-1,0-2.1,0.1-2.9,0.1c-0.6,0-1.2,0-1.2-0.5c0-0.4,0.4-0.6,0.9-0.8c2.1-0.7,2.9-0.9,3.1-4.2
									c0.2-3.6,0.8-14.2,0.8-17.9c0-1.6-0.2-2-0.3-2.1c-1.2-1.5-1.7-1.5-3.7-2c-0.5-0.1-1-0.4-1-0.7S1106.3,160.8,1107.3,160.8z"
									/>
								<path class="st1" d="M1148.7,187.5c0,1.4-1,2.6-2.5,2.6c-1.1,0-2.4-0.7-2.4-2.6c0-1.9,1.6-2.6,2.4-2.6
									C1148.1,184.9,1148.7,186.6,1148.7,187.5z"/>
							</g>
							<g>
								<path class="st1" d="M791.8,100.9c2.2,0,2.5,0.1,4.4,0.1c0.1,0,0.3,0.3,0.4,0.4c0.4,1.2,0.6,1.6,1.3,3
									c1.9,3.9,5.7,11.9,6.2,12.5c0.1,0.1,0.3,0.2,0.3,0.1c0.3-0.6,6.5-12.3,7-13.7c0-0.1,0.6-1.3,0.8-1.9c0-0.2,0.3-0.5,0.4-0.5
									c1.2,0,3.9-0.1,4.2-0.1c0.4,0,0.9,0.1,0.9,0.4c0,0.2-0.3,0.4-0.9,0.5c-0.5,0.1-1,0.2-1.5,0.4s-1,0.8-1,2.6
									c0,9.2,0.4,13.4,0.5,14.4c0.2,1.5,0.6,1.8,2.2,2.3c0.6,0.1,0.9,0.4,0.9,0.6c0,0.3-0.5,0.4-1,0.4c-0.4,0-2.9-0.2-4.2-0.2
									c-0.6,0-1.7,0.1-2.5,0.1c-0.4,0-0.9-0.1-0.9-0.5c0-0.3,0.4-0.5,0.9-0.6c1.4-0.4,1.4-1.2,1.5-2.4c0.1-1.5,0.1-11.1,0-12.8
									c0-0.2-0.1-0.4-0.3-0.1c-0.4,0.6-4.1,7.9-5.4,10.7c-0.8,1.7-1.6,3.5-2.1,4.7c-0.4,1-0.5,0.9-0.8,0.9c-0.2,0-0.4-0.3-0.5-0.6
									c-0.2-0.8-0.6-1.9-1.2-3.5c-1.8-4.4-4.5-9.6-5.7-12.5c-0.1-0.2-0.2-0.3-0.2,0.1c-0.3,1.4-0.6,9.8-0.5,12.8
									c0.1,1.7,0.3,2.2,2,2.7c0.7,0.2,0.9,0.3,0.9,0.6c0,0.3-0.4,0.4-0.9,0.4c-1.1,0-2.5-0.1-3.3-0.1c-0.8,0-1.8,0.1-2.7,0.1
									c-0.5,0-0.9-0.1-0.9-0.5c0-0.1,0.2-0.4,0.7-0.5c2.1-0.6,2.3-1.2,2.5-3.1c0.3-2.3,1.1-11.9,1.1-14.3c0-0.3-0.1-1.5-1.5-1.9
									c-0.6-0.2-1-0.3-1.4-0.4c-0.2-0.1-0.5-0.3-0.5-0.5C790.8,100.9,791.1,100.9,791.8,100.9z"/>
								<path class="st1" d="M822,122.4c-0.5,0-0.9-0.1-0.9-0.4c0-0.2,0.2-0.4,0.8-0.5c0.8-0.2,1.3-0.6,1.3-0.9
									c0.1-0.5,0.1-2.5,0.1-3.4c0-1,0-4.8,0-5.2c0-0.2-0.4-0.5-1.4-1.2c-0.2-0.1-0.3-0.2-0.3-0.4c0-0.2,0.3-0.5,0.7-0.6
									c1.2-0.3,2.8-1,3.3-1.1c0.1,0,0.3,0.3,0.3,0.4c0,0.4-0.2,4.7-0.2,6.6c0,1.9,0,3.3,0.1,4.4c0,1.1,0.8,1.1,1.6,1.4
									c0.5,0.2,0.7,0.3,0.7,0.6c0,0.2-0.4,0.3-0.8,0.3c-0.2,0-1.9-0.1-2.6-0.1C823.7,122.3,822.6,122.4,822,122.4z M826.2,103.8
									c0,0.9-0.9,1.6-1.6,1.6c-0.2,0-0.8-0.1-1.1-0.4c-0.3-0.3-0.5-0.7-0.5-1.2c0-0.3,0.1-0.8,0.4-1.2c0.3-0.3,0.8-0.4,1.3-0.4
									C825.6,102.1,826.2,103.2,826.2,103.8z"/>
								<path class="st1" d="M832.4,109.8c0.6-0.2,1.8-0.6,2.2-1c0.3-0.2,0.6-0.4,0.8-0.4s0.3,0.4,0.3,0.5c0,0.6-0.1,1.4-0.1,1.7
									c0,0.2,0.2,0.1,0.2,0.1c1.3-0.9,3.1-1.8,4.4-1.8c1.6,0,2.6,0.7,3,1.3c0.7,0.9,1.2,2.4,1.2,4.1c0,0.6,0.1,5.6,0.1,6
									c0.1,0.5,0.4,0.9,1.2,1.2c0.6,0.2,0.8,0.3,0.8,0.6s-0.5,0.4-1,0.4c-0.8,0-1.5-0.1-2.5-0.1c-0.8,0-1.9,0.1-2.3,0.1
									c-0.3,0-0.8-0.1-0.8-0.4c0-0.2,0.4-0.4,0.8-0.6c0.8-0.3,1-0.6,1-1.7s0.1-5.1,0.1-6.1c0-1.2-0.6-2.2-1-2.5
									c-0.4-0.3-1.4-0.6-2.1-0.6c-1.5,0-2.3,0.5-3,1.1c-0.1,0.1-0.3,0.5-0.3,0.8c0,0.4,0,7.6,0,8c0,0.5,0.2,0.7,1.2,1
									c0.3,0.1,0.6,0.3,0.6,0.5c0,0.2-0.4,0.4-0.8,0.4c-0.4,0-1.3,0-2,0c-1.2,0-2.2,0.1-2.8,0.1c-0.5,0-0.9-0.1-0.9-0.4
									c0-0.2,0.3-0.4,0.7-0.5c1.1-0.3,1.3-0.7,1.4-1.9c0.1-1,0.2-3.9,0.2-7.3c0-0.4-0.1-0.7-0.8-1.3c-0.4-0.3-0.6-0.5-0.6-0.6
									C831.9,110.2,832.2,109.9,832.4,109.8z"/>
								<path class="st1" d="M851,122.4c-0.5,0-0.9-0.1-0.9-0.4c0-0.2,0.2-0.4,0.8-0.5c0.8-0.2,1.3-0.6,1.3-0.9
									c0.1-0.5,0.1-2.5,0.1-3.4c0-1,0-4.8,0-5.2c0-0.2-0.4-0.5-1.4-1.2c-0.2-0.1-0.3-0.2-0.3-0.4c0-0.2,0.3-0.5,0.7-0.6
									c1.2-0.3,2.8-1,3.3-1.1c0.1,0,0.3,0.3,0.3,0.4c0,0.4-0.2,4.7-0.2,6.6c0,1.9,0,3.3,0.1,4.4c0,1.1,0.8,1.1,1.6,1.4
									c0.5,0.2,0.7,0.3,0.7,0.6c0,0.2-0.4,0.3-0.8,0.3c-0.2,0-1.9-0.1-2.6-0.1C852.7,122.3,851.6,122.4,851,122.4z M855.2,103.8
									c0,0.9-0.9,1.6-1.6,1.6c-0.2,0-0.8-0.1-1.1-0.4c-0.3-0.3-0.5-0.7-0.5-1.2c0-0.3,0.1-0.8,0.4-1.2c0.3-0.3,0.8-0.4,1.3-0.4
									C854.7,102.1,855.2,103.2,855.2,103.8z"/>
								<path class="st1" d="M861.5,110.1c0.7-0.3,2.2-1.1,2.5-1.4c0.1-0.1,0.2-0.1,0.3-0.1c0.2,0,0.4,0.3,0.4,0.3
									c0,0.5-0.1,1.4-0.1,1.7c0,0.1,0.1,0.3,0.2,0.2c0.8-0.7,2.9-1.9,4.4-1.9c1.2,0,2,0.2,2.6,0.7s0.9,0.9,1.1,1.2
									c0.1,0.1,0.1,0.2,0.3,0.1c0.6-0.5,1.5-1,2.4-1.4c0.8-0.4,1.5-0.5,2.1-0.5c1.2,0,2.2,0.4,2.9,1.1c0.7,0.8,1,2,1.1,3.2
									c0.1,1.7,0.1,4.1,0.1,6.8c0,0.6,0.2,1.2,1.4,1.6c0.4,0.1,0.6,0.3,0.6,0.5c0,0.2-0.3,0.4-0.9,0.4c-0.7,0-1.6-0.1-2.4-0.1
									c-1,0-1.5,0.1-2.3,0.1c-0.6,0-0.8-0.2-0.8-0.4c0-0.2,0.4-0.3,0.7-0.4c1.1-0.3,1.2-0.7,1.2-1.9c0-0.8-0.1-4.5-0.1-5.6
									c0-1.2-0.2-1.6-0.5-2.2c-0.4-0.6-1.1-1.2-2.5-1.2c-1.5,0-2.1,0.6-2.6,1c-0.1,0.1-0.3,0.7-0.3,1s-0.1,6.5,0,7.2
									c0.1,1.1,0.3,1.4,1.4,1.7c0.4,0.1,0.7,0.3,0.7,0.5c0,0.2-0.3,0.4-0.8,0.4c-0.7,0-1.7-0.1-2.5-0.1c-0.7,0-1.7,0.1-2.4,0.1
									c-0.8,0-0.9-0.3-0.9-0.4c0-0.1,0.1-0.3,0.7-0.5c1.1-0.3,1.3-0.6,1.3-1.8v-6.5c0-1-0.2-1.4-0.4-1.7c-0.4-0.6-1.3-1-2.5-1
									c-1.1,0-1.9,0.4-2.7,1c-0.2,0.2-0.3,0.5-0.4,0.8c-0.1,0.9-0.1,5-0.1,7.6c0,0.6,0.1,1.2,1.2,1.5c0.6,0.2,0.9,0.3,0.9,0.6
									c0,0.2-0.5,0.3-0.9,0.3c-0.1,0-1.4-0.1-2.6-0.1c-1.1,0-1.8,0.1-2.5,0.1c-0.5,0-0.8-0.1-0.8-0.4c0-0.1,0.2-0.4,0.8-0.5
									c1.1-0.3,1.3-0.8,1.4-2.2c0.1-1,0.1-4.3,0.1-6.6c0-0.2,0.1-0.6-0.2-0.9c-0.9-0.9-1.2-1-1.2-1.2
									C860.8,110.5,861.1,110.3,861.5,110.1z"/>
								<path class="st1" d="M896.3,119.9c0.2-0.2,0.5-0.7,0.5-0.8l0.1-7.6c0-0.2-0.4-0.7-0.6-0.7c-0.5-0.1-1.2-0.3-1.5-0.4
									c-0.2-0.1-0.7-0.3-0.7-0.5c0-0.1,0.4-0.3,0.8-0.3c1.3,0,2.8-0.2,3.6-0.4c0.3-0.1,0.6-0.1,0.8-0.1c0.2,0,0.2,0.4,0.2,0.5
									c-0.1,0.9-0.3,8.3-0.3,11c0,0.1,0.1,0.5,0.4,0.5c0.2,0,1.3-0.2,1.7-0.2c0.1,0,0.4,0.5,0.4,0.6c0,0.1-0.2,0.3-0.4,0.3
									c-0.9,0.1-2.3,0.4-3,0.6c-0.6,0.2-1.1,0.3-1.2,0.3c-0.1,0-0.3-0.2-0.3-0.5c0-0.2,0.1-0.8,0.1-1.4c0-0.2-0.1-0.3-0.2-0.2
									c-1,0.7-2.3,1.5-2.7,1.7c-0.6,0.2-1.3,0.4-2.2,0.4c-1.2,0-2.3-0.5-2.9-1.6c-0.2-0.4-0.5-1-0.5-1.6c0-2.4,0-6.1-0.1-7.9
									c0-0.9-0.7-1.1-1.2-1.3c-0.3-0.1-0.6-0.3-0.6-0.6c0-0.1,0.2-0.3,0.6-0.3c0.9,0,3.4-0.4,3.5-0.4s0.3,0.3,0.3,0.5
									c0,1.1-0.1,7.4-0.1,8.9c0,0.8,0.4,1.5,0.8,1.9c0.9,0.7,1.5,0.7,2.3,0.7S895.5,120.6,896.3,119.9z"/>
								<path class="st1" d="M905.6,110.1c0.7-0.3,2.2-1.1,2.5-1.4c0.1-0.1,0.2-0.1,0.3-0.1c0.2,0,0.4,0.3,0.4,0.3
									c0,0.5-0.1,1.4-0.1,1.7c0,0.1,0.1,0.3,0.2,0.2c0.8-0.7,2.9-1.9,4.4-1.9c1.2,0,2,0.2,2.6,0.7s0.9,0.9,1.1,1.2
									c0.1,0.1,0.1,0.2,0.3,0.1c0.6-0.5,1.5-1,2.4-1.4c0.8-0.4,1.5-0.5,2.1-0.5c1.2,0,2.2,0.4,2.9,1.1c0.7,0.8,1,2,1.1,3.2
									c0.1,1.7,0.1,4.1,0.1,6.8c0,0.6,0.2,1.2,1.4,1.6c0.4,0.1,0.6,0.3,0.6,0.5c0,0.2-0.3,0.4-0.9,0.4c-0.7,0-1.6-0.1-2.4-0.1
									c-1,0-1.5,0.1-2.3,0.1c-0.6,0-0.8-0.2-0.8-0.4c0-0.2,0.4-0.3,0.7-0.4c1.1-0.3,1.2-0.7,1.2-1.9c0-0.8-0.1-4.5-0.1-5.6
									c0-1.2-0.2-1.6-0.5-2.2c-0.4-0.6-1.1-1.2-2.5-1.2c-1.5,0-2.1,0.6-2.6,1c-0.1,0.1-0.3,0.7-0.3,1s-0.1,6.5,0,7.2
									c0.1,1.1,0.3,1.4,1.4,1.7c0.4,0.1,0.7,0.3,0.7,0.5c0,0.2-0.3,0.4-0.8,0.4c-0.7,0-1.7-0.1-2.5-0.1c-0.7,0-1.7,0.1-2.4,0.1
									c-0.8,0-0.9-0.3-0.9-0.4c0-0.1,0.1-0.3,0.7-0.5c1.1-0.3,1.3-0.6,1.3-1.8v-6.5c0-1-0.2-1.4-0.4-1.7c-0.4-0.6-1.3-1-2.5-1
									c-1.1,0-1.9,0.4-2.7,1c-0.2,0.2-0.3,0.5-0.4,0.8c-0.1,0.9-0.1,5-0.1,7.6c0,0.6,0.1,1.2,1.2,1.5c0.6,0.2,0.9,0.3,0.9,0.6
									c0,0.2-0.5,0.3-0.9,0.3c-0.1,0-1.4-0.1-2.6-0.1c-1.1,0-1.8,0.1-2.5,0.1c-0.5,0-0.8-0.1-0.8-0.4c0-0.1,0.2-0.4,0.8-0.5
									c1.1-0.3,1.3-0.8,1.4-2.2c0.1-1,0.1-4.3,0.1-6.6c0-0.2,0.1-0.6-0.2-0.9c-0.9-0.9-1.2-1-1.2-1.2
									C905,110.5,905.3,110.3,905.6,110.1z"/>
							</g>
							<path class="st1" d="M1058.6,91.8c-14.2,53-60.2,99.2-102.2,123.1c-18.4,10.6-31.4,13.8-34.3,13.8c-1.8,0-2.7,0-2.4-0.9
								s1.4-1.8,3.7-2.7c14.6-7.1,31-18,51.5-36.2c20.1-18,51-57.4,60.4-92.5c7.1-26.5,4.4-56-20.6-56c-5.9,0-11.7,1.8-16.7,5.3
								c-8.4,5.9-17.3,16.2-21.5,31.8c-7.8,29.2,6.2,40.6,23.6,40.6c6.2,0,12.8-1.8,22-7.4c1.4-0.9,2.8-0.6,2.6,0.3
								c-0.6,2.4-4.3,5-8.3,8c-9,6.2-25.6,13.3-35.1,13.3c-23,0-32.8-19.4-26.7-42.1c4.7-17.4,18.6-37.4,43.7-49.8
								c12.2-5.9,20.4-7.1,28.4-7.1C1060.1,33.5,1065,67.6,1058.6,91.8z"/>
							<g>
								<path class="st1" d="M1061.7,215.9c0,2.7-1.6,4.8-2.8,5.6c-1.3,0.9-2.6,1.3-4,1.3c-1.5,0-3.1-0.7-4.3-1.7
									c-1.4-1.1-2.4-3.4-2.4-5c0-2.5,1-4,2.3-5.1c1-0.9,2.6-1.8,4.8-1.8C1058.4,209.3,1061.7,211.8,1061.7,215.9z M1052.4,211.2
									c-0.8,0.8-1.6,2.5-1.6,4.2c0,1.1,0.1,2.1,0.4,2.9c0.8,2.4,2.7,3.6,4.2,3.6c0.4,0,1.1-0.2,2-1.1c0.8-0.9,1.5-2.9,1.5-4.3
									c0-1.7-0.4-3.6-1.6-5c-0.7-0.8-1.9-1.3-2.7-1.3C1053.9,210.3,1053.1,210.6,1052.4,211.2z"/>
								<path class="st1" d="M1064.9,210.2c0.6-0.2,1.7-0.6,2.2-0.9c0.3-0.2,0.6-0.4,0.8-0.4s0.3,0.4,0.3,0.5c0,0.6-0.1,1.3-0.1,1.6
									c0,0.2,0.2,0.1,0.2,0.1c1.3-0.9,3-1.8,4.4-1.8c1.6,0,2.5,0.7,3,1.2c0.7,0.8,1.1,2.3,1.1,4c0,0.6,0.1,5.5,0.1,5.9
									c0.1,0.5,0.4,0.9,1.2,1.1c0.6,0.2,0.8,0.3,0.8,0.6s-0.5,0.4-1,0.4c-0.7,0-1.5-0.1-2.4-0.1c-0.8,0-1.8,0.1-2.2,0.1
									c-0.3,0-0.7-0.1-0.7-0.4c0-0.2,0.4-0.4,0.7-0.6c0.8-0.3,0.9-0.6,1-1.6s0.1-5,0.1-6c0-1.2-0.6-2.1-1-2.4
									c-0.4-0.3-1.3-0.6-2.1-0.6c-1.4,0-2.3,0.5-2.9,1c-0.1,0.1-0.3,0.5-0.3,0.8c0,0.4,0,7.4,0,7.8c0,0.5,0.2,0.7,1.2,1
									c0.3,0.1,0.6,0.3,0.6,0.5c0,0.2-0.4,0.4-0.8,0.4c-0.4,0-1.3,0-2,0c-1.2,0-2.2,0.1-2.7,0.1c-0.5,0-0.8-0.1-0.8-0.4
									c0-0.2,0.3-0.4,0.7-0.5c1.1-0.3,1.3-0.7,1.4-1.8c0.1-1,0.2-3.8,0.2-7.1c0-0.4-0.1-0.7-0.8-1.3c-0.4-0.3-0.6-0.5-0.6-0.6
									C1064.3,210.6,1064.7,210.3,1064.9,210.2z"/>
								<path class="st1" d="M1095.6,209.7c0.2,0,0.5,0.7,0.5,1.4c0,0.1-0.3,0.3-0.5,0.3c-0.2,0-3.5-0.1-3.8-0.1
									c-0.1,0-0.2,0.2-0.2,0.3c-0.1,0.7,0,7.8,0.1,8.3c0.1,1.1,0.4,1.4,2.2,1.7c0.6,0.1,0.7,0.4,0.7,0.5c0,0.3-0.5,0.4-0.8,0.4
									s-1.9-0.1-2.7-0.1c-1.2,0-2.9,0.2-3.3,0.2c-0.5,0-0.8-0.1-0.8-0.4c0-0.2,0.3-0.4,0.7-0.5c1.4-0.4,1.4-0.7,1.5-2.2
									c0-1.3,0.1-5.2,0.1-7c0-1.1-0.2-1.2-0.3-1.2c-0.3,0-1,0-1.4,0.1c-0.2,0-0.4-0.3-0.3-0.6c0-0.1,0.8-0.5,1.6-1.1
									c0.2-0.2,0.4-0.4,0.4-0.6c0.1-2,0.2-3.5,0.8-4.9c0.7-1.6,1.5-2.8,2.9-3.8c1.3-1,2.5-1.3,3.7-1.3c0.7,0,1.6,0.2,2.1,0.6
									c0.3,0.3,0.6,0.7,0.6,1.1c0,0.5-0.4,1.2-0.9,1.4c-0.2,0.1-0.4,0.1-0.6,0.1c-0.2,0-0.4-0.2-0.9-0.7c-0.6-0.6-1.4-1-2.3-1
									c-0.8,0-1.4,0.4-2,1.3c-0.8,1.4-1.1,3.1-1.1,7.4c0,0.1,0.1,0.3,0.2,0.3C1093.7,209.7,1095.4,209.7,1095.6,209.7z"/>
								<path class="st1" d="M1110.3,215.9c0,2.7-1.6,4.8-2.8,5.6c-1.3,0.9-2.6,1.3-4,1.3c-1.5,0-3.1-0.7-4.3-1.7
									c-1.4-1.1-2.4-3.4-2.4-5c0-2.5,1-4,2.3-5.1c1-0.9,2.6-1.8,4.8-1.8C1107,209.3,1110.3,211.8,1110.3,215.9z M1101,211.2
									c-0.8,0.8-1.6,2.5-1.6,4.2c0,1.1,0.1,2.1,0.4,2.9c0.8,2.4,2.7,3.6,4.2,3.6c0.4,0,1.1-0.2,2-1.1c0.8-0.9,1.5-2.9,1.5-4.3
									c0-1.7-0.4-3.6-1.6-5c-0.7-0.8-1.9-1.3-2.7-1.3C1102.5,210.3,1101.7,210.6,1101,211.2z"/>
								<path class="st1" d="M1126.3,215.9c0,2.7-1.6,4.8-2.8,5.6c-1.3,0.9-2.6,1.3-4,1.3c-1.5,0-3.1-0.7-4.3-1.7
									c-1.4-1.1-2.4-3.4-2.4-5c0-2.5,1-4,2.3-5.1c1-0.9,2.6-1.8,4.8-1.8C1123,209.3,1126.3,211.8,1126.3,215.9z M1117.1,211.2
									c-0.8,0.8-1.6,2.5-1.6,4.2c0,1.1,0.1,2.1,0.4,2.9c0.8,2.4,2.7,3.6,4.2,3.6c0.4,0,1.1-0.2,2-1.1c0.8-0.9,1.5-2.9,1.5-4.3
									c0-1.7-0.4-3.6-1.6-5c-0.7-0.8-1.9-1.3-2.7-1.3C1118.5,210.3,1117.7,210.6,1117.1,211.2z"/>
								<path class="st1" d="M1136.7,209.6c0,0,0.4,0.2,0.4,0.3c0-0.1,0.1,0.8,0.1,1.2c0,0.3-0.6,0.4-0.8,0.4h-3.6
									c-0.2,0-0.3,0.2-0.3,0.2c0,0.7-0.1,5.4-0.1,7c0,0.8,0.2,1.2,0.6,1.6c0.6,0.6,1.3,0.6,2,0.6c0.4,0,1.1-0.2,1.6-0.5
									c0.3-0.2,0.4-0.2,0.5-0.2c0,0,0.2,0.1,0.2,0.4c0,0.3-0.2,0.6-0.5,0.8c-0.9,0.8-2,1.4-3.5,1.4c-1.3,0-2.5-0.8-2.9-1.5
									c-0.4-0.6-0.4-1.2-0.4-2.2c0-1.2,0.1-6.1,0.1-7.2c0-0.2-0.6-0.5-1.2-0.7c-0.3-0.1-0.5-0.3-0.5-0.4c0-0.1,0.1-0.3,0.2-0.4
									c1.1-0.9,2.2-1.7,2.6-2.2c0.4-0.5,0.6-0.7,0.7-0.7c0.2,0,0.5,0.3,0.5,0.4v1.5c0,0.1,0.1,0.3,0.3,0.3
									C1133.4,209.7,1136.6,209.6,1136.7,209.6z"/>
							</g>
						</g>
						<g>
							<path class="st1" d="M460,173.3c-0.6,0-0.7,0.2-0.8,1.4c-0.7,4.5-2.1,7.6-3.6,9.3c-0.5,0.6-0.8,0.8-0.9,0.8
								c0,0-0.1,0-0.1-0.1c0-0.1,0.7-1.4,0.8-1.7c0.8-1.9,2.2-5.5,2.2-13.4c0-2.9-0.2-4-0.3-5.1c0-0.2-0.2-0.8-0.2-1
								c0-0.1,0-0.2,0.1-0.2c0.1,0,1.4,0.8,1.7,0.9c0.8,0.4,0.9,0.5,1.5,0.5h2.5c0.3,0,0.5,0,0.8-0.4c0.6-0.9,0.7-1,1.1-1
								c0.6,0,2.2,1.4,2.2,1.9c0,0.2,0,0.3-0.5,0.9c-0.1,0.2-0.1,0.2-0.1,1.1c0,1,0.1,5.1,0.1,6c0,2-1.6,2-1.8,2
								c-0.7,0-0.8-0.3-0.8-0.9c0-0.4,0-1-0.8-1H460z M462.1,159.7c1.3,0,1.4-0.1,1.6-0.2c0.2-0.2,0.9-1.4,1.2-1.4
								c0.3,0,2.8,2,2.8,2.1c0,0.2-0.6,0.3-1.6,0.3h-5.2c-0.8,0-1.8,0-2.6,0.1c-0.2,0-1.1,0.1-1.2,0.1c-0.1,0-0.2-0.1-0.3-0.2
								l-0.6-0.7c-0.1-0.1-0.1-0.2-0.1-0.2c0-0.1,0.1-0.1,0.1-0.1c0.2,0,1.1,0.1,1.4,0.1c1,0.1,2.5,0.1,3.5,0.1H462.1z M463.2,172.5
								c0.9,0,0.9-0.4,0.9-1.5c0-0.7,0-4.5-0.1-5c-0.1-0.4-0.5-0.5-0.8-0.5h-2.6c-0.9,0-0.9,0.4-0.9,1.3c0,0.8-0.1,4.2-0.1,4.8
								c0,0.3,0,0.9,0.8,0.9H463.2z M478.5,168.9c-0.2,0-0.6,0-0.8,0.4c-0.1,0.2-0.1,2.9-0.1,3.4c0,1.7,0.1,9.2,0.1,10.7
								c0,1.4-1.4,1.7-1.8,1.7c-0.6,0-0.7-0.2-0.7-0.7c0-0.3,0.1-2.3,0.2-2.7c0.1-2.1,0.1-4.5,0.1-6.6c0-0.5,0-5.6-0.1-5.8
								c-0.2-0.4-0.6-0.4-0.8-0.4h-2.3c-0.6,0-0.7,0.2-0.7,0.9c-0.4,7.2-1.7,9.7-4.1,12.3c-1.2,1.2-2.2,1.9-2.4,1.9
								c-0.1,0-0.1,0-0.1-0.1c0-0.1,0.3-0.5,0.5-0.6c3-3.4,4.1-6.8,4.1-13.9c0-2.3-0.3-6.4-0.3-6.8c0-0.2-0.2-1.3-0.2-1.6
								c0-0.1,0-0.2,0.1-0.2c0.3,0,2,0.6,2.3,0.6c0.5,0,2.3-1,3.9-2.2c0.3-0.2,1.8-1.5,1.9-1.5c0.1,0,2,1,2.4,1.2
								c0.8,0.4,0.9,0.5,0.9,0.6c0,0.2-0.1,0.2-1,0.4c-0.5,0.1-6.3,1.7-7.5,2c-0.2,0.1-0.3,0.1-0.4,0.2s-0.1,1.7-0.1,2
								c0,0.5,0,2.7,0,3.2c0,0.5,0,0.8,0.6,0.8h4.2c1.3,0,1.6,0,1.9-0.5c0.8-1.4,0.9-1.5,1.2-1.5c0.4,0,3,2.1,3,2.4
								c0,0.4-0.6,0.4-1.6,0.4H478.5z"/>
							<path class="st1" d="M488.8,166c0.2,0,3.9,0.6,3.9,3c0,0.9-0.5,1.4-1,1.4c-0.3,0-0.6-0.2-1-0.9c-0.7-1.4-1.8-2.7-2-2.8
								c-0.5-0.4-0.5-0.4-0.5-0.5C488.3,166.2,488.5,166,488.8,166z M490.2,177.1c0.6-0.3,1-0.5,3.1-4.1c1.4-2.3,2.8-4.9,4.2-7.3
								c0.2-0.4,0.3-0.5,0.4-0.5s0.1,0.1,0.1,0.1c0,0.6-5.2,11.3-5.2,12.7c0,0.3,0.1,0.7,0.2,1c0.9,3.1,1,3.5,1,4.2
								c0,1.5-1,1.5-1.1,1.5c-1.6,0-1.6-1.8-1.6-2.5c0-2.3-0.8-3.9-2.1-4.2c-0.2-0.1-0.8-0.2-0.7-0.5
								C488.5,177.4,489.9,177.2,490.2,177.1z M491.4,158.5c0.6,0,4,0.8,4,2.7c0,0.7-0.4,1.4-1.1,1.4c-0.6,0-0.8-0.2-2-2.4
								c-0.2-0.3-1.1-1.3-1.1-1.5C491.3,158.6,491.3,158.5,491.4,158.5z M509.6,159.8c1,0,1.3,0,1.6-0.3c0.7-0.8,0.7-0.9,1-0.9
								c0.5,0,1.8,1.5,1.8,1.8c0,0.2-0.5,0.9-0.6,1.1c-0.1,0.2-0.1,1.3-0.1,1.5c0,0.8,0.2,4.5,0.2,5c0,1.1-0.9,1.8-1.5,1.8
								c-0.1,0-0.8,0-0.9-0.9c-0.1-0.4-0.5-0.5-0.8-0.5H508c-0.7,0-0.9,0.3-0.9,0.8c0,3.5,2.4,9.1,6.3,12.5c0.3,0.2,1.9,1.5,1.9,1.6
								c0,0.2-1.9,0.2-2.3,0.3c-1.3,0.5-1.4,0.5-1.6,0.5c-0.7,0-4-5.1-4.7-11.4c-0.1-0.9-0.1-2-0.2-3.4c0-0.7-0.4-0.9-0.9-0.9h-2.7
								c-0.8,0-1,0.2-1,0.9c-0.4,6.1-0.5,8.5-3,12.7c-1.4,2.3-2.8,3.2-3,3.2c-0.1,0-0.1,0-0.1-0.1c0-0.2,1.1-1.5,1.2-1.8
								c3-5,3-12.3,3-17.3c0-1.6,0-4.4-0.3-5.8c0-0.2-0.3-0.9-0.3-1c0-0.2,0.2-0.2,0.3-0.2c0.3,0,1.2,0.4,2,0.8
								c0.2,0.1,0.8,0.2,1.4,0.2H509.6z M510.1,167.5c0.4,0,0.9,0,0.9-0.9c0-0.8,0-4.3,0-5c0-0.8-0.2-1-0.9-1h-7.3
								c-0.4,0-0.9,0-0.9,0.9c0,0.8,0,4.4,0,5.1c0,0.9,0.5,0.9,1.1,0.9H510.1z"/>
							<path class="st1" d="M522.5,165.2c1.3,0,1.7-0.1,5.8-1.3c2.7-0.8,9.6-2.7,11.6-2.7c1.1,0,2.4,0.4,2.4,1.4
								c0,0.8-0.8,1.1-1.2,1.1c-0.4,0-2.1-0.3-2.4-0.3c-3.8,0-8.1,3.5-8.1,11.3c0,5.1,1.9,5.4,3.7,5.4c0.5,0,2.6-0.2,2.9-0.2
								c0.9,0,1.5,0.4,1.5,1.1c0,1.6-3.3,1.6-3.5,1.6c-6.1,0-6.1-5-6.1-6.4c0-1.3,0-7.7,4.4-11.6c0.1-0.1,0.8-0.6,0.8-0.6
								c0-0.1-0.1-0.1-0.2-0.1c-1.7,0-8,2.6-9,3.2c-0.4,0.2-0.7,0.4-1,0.4c-1.5,0-3-2-2.6-2.4C521.5,164.9,522.3,165.2,522.5,165.2z
								 M541.8,171.8c0,0.7-0.6,1.2-1.1,1.2c-0.5,0-0.8-0.6-1.3-1.7c-0.3-0.8-0.5-1.1-1.5-2.3c-0.1-0.1-0.3-0.4-0.3-0.5
								c0-0.2,0.3-0.2,0.6-0.1C540.8,169,541.8,170.9,541.8,171.8z M545.4,170.4c0,0.8-0.5,1.1-0.9,1.1c-0.7,0-1.1-0.9-1.4-1.6
								c-0.3-0.7-1.2-1.7-2-2.4c-0.2-0.1-0.3-0.2-0.3-0.4c0-0.2,0.3-0.2,0.4-0.2c0.2,0,0.6,0.1,0.8,0.2
								C543.9,167.7,545.4,169,545.4,170.4z"/>
							<path class="st1" d="M555.6,184.6c-0.6,0-0.8-0.2-1.7-2c-0.6-1.1-1.4-2.1-3.2-3.2c-0.1-0.1-0.4-0.3-0.4-0.4s0.1-0.2,0.3-0.2
								c1.1,0,6.2,1.6,6.2,4.4C556.8,183.9,556.2,184.6,555.6,184.6z"/>
							<path class="st1" d="M587.3,171c1.4,0,1.5,0,1.9-0.5c1.2-1.5,1.4-1.7,1.7-1.7c0.3,0,0.5,0,2.6,1.9c0.5,0.4,0.7,0.6,0.7,0.9
								c0,0.4-0.2,0.4-1.7,0.4h-20.7c-2.5,0-3.4,0.1-3.8,0.1c-0.1,0-0.5,0.1-0.6,0.1c-0.1,0-0.2-0.1-0.3-0.2l-0.6-0.8
								c0-0.1-0.2-0.2-0.2-0.3c0-0.1,0.1-0.1,0.1-0.1c0.2,0,1.1,0.1,1.3,0.1c1,0.1,3.3,0.1,4.2,0.1H587.3z"/>
							<path class="st1" d="M608.3,183.4c-0.3,0-0.8,0-0.9,0.5c-0.1,0.4-0.3,1.3-1.7,1.3c-0.8,0-0.8-0.4-0.8-0.7
								c0-0.3,0.1-2.2,0.2-2.6c0.1-1.4,0.1-5.3,0.1-6.9c0-1.1,0-1.2-0.3-1.2c-0.1,0-0.8,0.4-0.8,0.4c-3,1.6-4.3,1.8-4.4,1.8
								c-0.2,0-0.2-0.1-0.2-0.2c0-0.2,0.1-0.2,1-0.7c3.1-1.7,7-5.2,8.4-7.2c0.2-0.2,0.8-1.1,0.8-1.3c0-0.2-0.2-0.3-0.8-0.3h-3.5
								c-0.7,0-2.7,0-3.8,0.1c-0.1,0-0.6,0.1-0.7,0.1s-0.2-0.1-0.2-0.2l-0.6-0.7c-0.1-0.1-0.1-0.2-0.1-0.2c0,0,0-0.1,0.1-0.1
								c0.2,0,1.1,0.1,1.4,0.1c1.4,0.1,2.7,0.1,4.1,0.1h0.7c0.4,0,0.6,0,0.6-0.2c0-0.1-0.8-3.3-1.7-3.8c-0.3-0.2-0.5-0.2-1.3-0.3
								c-1.2-0.1-1.4-0.1-1.4-0.3c0-0.2,0.1-0.2,1-0.3c3.2-0.4,9.6-1.1,15.1-2.6c0.3-0.1,1.5-0.6,1.8-0.6c0.6,0,2.6,2,2.6,2.3
								c0,0.1-0.1,0.3-0.4,0.3c-0.1,0-0.7-0.1-0.8-0.1c-0.2,0-1.4,0.1-1.4,0.3c0,0.1,0.7,0.6,0.8,0.7c0.7,0.4,0.8,0.5,0.8,0.8
								c0,0.2,0,0.2-0.8,0.5c-0.8,0.3-3.6,3-3.6,3.1c0,0.2,0.1,0.2,0.5,0.2h2.6c1,0,1.2,0,1.7-0.7c0.6-0.7,1.1-1.3,1.3-1.3
								c0.3,0,3.1,2.1,3.1,2.5c0,0.3-0.9,0.3-1.8,0.3h-9.3c-0.2,0-0.4,0-0.4,0.2s3.4,5.4,11.2,6.6c1.1,0.2,1.3,0.2,1.3,0.3
								c0,0.2-0.4,0.3-0.6,0.3c-1.3,0.3-2,1.3-2.1,1.6c-0.2,0.3-0.3,0.6-0.5,0.6c-0.2,0-0.6-0.1-1.4-0.8c-0.3-0.2-0.4-0.3-0.5-0.3
								c-0.2,0-0.5,0.3-0.6,0.4c-0.5,0.5-0.5,1-0.5,2.1c0,1,0.2,5.3,0.2,6.1c0,0.5-0.1,0.7-0.3,0.9c-0.5,0.4-1.1,0.5-1.4,0.5
								c-0.6,0-0.6-0.2-0.7-1.1c-0.1-0.5-0.5-0.6-0.9-0.6H608.3z M617.8,174.2c0.5,0,0.9,0,1.3-0.4c0.2-0.2,0.7-0.6,0.7-0.9
								c0-0.1,0-0.2-0.4-0.5c-1.9-1.7-3.1-2.7-4.3-4.8c-0.1-0.2-0.5-0.9-0.5-0.9c-0.1,0-0.1,0.1-0.1,0.4c0,0.7,0,4.1,0,4.9
								c0,0.4-0.1,0.9-0.4,1.1c-0.4,0.4-0.8,0.5-1.1,0.5c-0.8,0-0.8-0.6-0.8-0.9c0-0.7,0.2-4.1,0.2-4.9c0-0.4,0-0.6-0.2-0.6
								c-0.1,0-0.7,0.6-0.7,0.7c-1.8,2-2.7,3-4.3,4.2c-0.7,0.5-0.8,0.6-0.8,0.7c0,0.1,0.1,0.2,0.8,0.7c0.6,0.5,0.8,0.6,1.7,0.6
								H617.8z M611.6,165.6c0.5,0,0.8-0.2,0.8-0.6c0-0.1,0-0.5,0-3.4c0-0.3-0.1-0.6-0.5-0.6c-0.2,0-3.9,0.3-4.7,0.3
								c-0.6,0-0.7,0-0.7,0.2c0,0,0.6,0.4,0.8,0.6c0.6,0.5,1.4,1.2,1.4,2.4c0,0.1-0.1,0.7-0.1,0.8c0,0.3,0.2,0.3,0.7,0.3H611.6z
								 M608.2,175c-0.9,0-0.9,0.5-0.9,1.3c0,1.7,0,2,0.9,2h3.2c0.9,0,0.9-0.5,0.9-1.3c0-1.6,0-2-0.9-2H608.2z M608.2,179.1
								c-0.9,0-0.9,0.4-0.9,1.8c0,1.3,0,1.7,0.9,1.7h3.2c0.9,0,0.9-0.4,0.9-2.1c0-0.8,0-1.4-0.9-1.4H608.2z M615.2,175
								c-0.9,0-0.9,0.4-0.9,2.1c0,0.7,0,1.2,0.9,1.2h3.4c0.9,0,0.9-0.6,0.9-1.2c0-1.8-0.1-2.2-0.9-2.2H615.2z M618.5,182.6
								c0.9,0,0.9-0.3,0.9-2.1c0-1,0-1.4-0.9-1.4h-3.3c-0.9,0-0.9,0.5-0.9,1.2c0,2.1,0,2.3,0.9,2.3H618.5z M615.8,165.6
								c0.4,0,0.8,0,1.2-0.7c0.6-1,1.9-3.2,1.9-4.2c0-0.2-0.1-0.3-0.3-0.3c-0.2,0-1.4,0.1-2.6,0.2c-1.4,0.1-1.6,0.2-1.7,0.4
								c0,0.1,0,2.4,0,3.6c0,0.5,0,1,0.9,1H615.8z"/>
							<path class="st1" d="M637.4,166.2c-0.7,0-0.8,0-0.9,0.8c-0.3,2.9-2,3-2.2,3c-0.8,0-1.1-0.7-1.1-1.1c0-0.5,0.2-0.8,0.8-1.4
								c0.8-0.9,1.3-2,1.3-3.3c0-0.3,0-0.5,0.2-0.5c0.2,0,0.6,0.8,0.7,1.1c0.3,0.7,0.4,0.8,0.9,0.8h12.6c0.6,0,0.7-0.2,1.5-2.1
								c0.4-0.9,0.6-1.9,0.6-2.1c0-0.4-0.3-0.5-0.6-0.5c-0.4,0-2,0.2-2.3,0.2c-1.2,0.1-2.4,0.2-2.9,0.2c-0.1,0-0.2,0-0.2,0.1
								c0,0.2,0.7,0.7,0.8,0.8c0.5,0.4,1,1.1,1,1.8c0,0.8-0.8,1.1-1.1,1.1c-0.8,0-0.9-1-0.9-1.9c0-0.5-0.2-1.4-0.4-1.7
								c-0.1-0.3-0.4-0.3-0.7-0.3c0,0-3.3,0.1-4.2,0.2c-0.2,0-0.2,0.1-0.2,0.1c0,0.1,0.1,0.1,0.2,0.2c0.5,0.2,2,0.9,2,2.3
								c0,0.7-0.5,1.3-0.8,1.3c-0.5,0-0.5-0.2-1.2-1.8c-0.4-0.9-0.8-2-1.6-2c-0.3,0-1.5,0.1-1.8,0.1c-0.2,0-2.9,0-2.9-0.2
								c0-0.1,0.1-0.2,0.4-0.2c0.1,0,8-0.7,11.3-1.1c3.5-0.4,6.8-1.3,7.7-1.9c0.1-0.1,0.5-0.4,0.5-0.4c0.2,0,3.2,2,3.5,2.2
								c0.1,0.1,0.2,0.2,0.2,0.3c0,0.3-0.6,0.3-0.8,0.3c-0.2,0-1.1-0.1-1.3-0.1c-0.2,0-2.8,0.2-2.9,0.3c-0.1,0-0.2,0.1-0.2,0.2
								c0,0.2,0.6,0.7,0.9,0.9c1,0.8,1.1,0.9,1.1,1.1s-1.2,0.6-1.4,0.7c-0.7,0.3-2.4,1.6-2.4,1.8c0,0.1,0.1,0.1,0.2,0.1h4.8
								c0.5,0,0.8,0,1.1-0.6c0.4-0.6,0.4-0.7,0.5-0.7c0.2,0,1.4,1.1,1.7,1.3c0.9,0.8,1,0.9,1,1.2c0,0.5-1,0.5-1.7,0.5
								c-1.1,0-2.6,1-2.8,1.2c-0.1,0-0.3,0.2-0.4,0.2s-0.1-0.1-0.1-0.1c0-0.2,1.1-1.7,1.1-2c0-0.3-0.2-0.3-0.4-0.3H637.4z
								 M650,175.8c0.2,0,0.5,0,0.9-0.4c0.3-0.3,0.4-0.5,0.6-0.5c0.1,0,1.1,0.6,1.2,0.6c0.2,0.1,1,0.5,1.2,0.6c0,0,0.2,0.2,0.2,0.3
								c0,0.3-0.4,0.3-0.5,0.3c-0.5,0.1-0.8,0.2-1.1,0.5c-1.9,2-2,2.1-2.6,2.5c-0.5,0.4-0.5,0.4-0.5,0.6c0,0.4,3.9,1.5,8,1.5
								c1.3,0,2.1-0.2,2.3-0.2c0,0,0.2-0.1,0.2-0.1c0,0,0.1,0,0.1,0.1s-0.1,0.2-0.2,0.2c-1.3,1-1.5,1-1.8,1.6
								c-0.5,0.7-0.5,0.8-0.8,0.8c-0.3,0-2.1-0.2-3.6-0.6c-2.4-0.5-4.1-1.3-5.4-2c-0.4-0.2-0.5-0.2-0.6-0.2c-0.2,0-0.4,0.1-0.7,0.2
								c-3.9,2-9.6,3.2-11.9,3.2c0,0-0.2,0-0.2-0.1s0.5-0.2,0.5-0.2c1.7-0.4,4.7-1.3,6.3-2c0.4-0.2,4.3-1.8,4.3-2.3
								c0-0.2-0.1-0.2-0.6-0.7c-0.7-0.6-1.5-1.6-1.7-1.8c-0.5-0.7-0.6-0.8-0.8-0.8c-0.2,0-0.5,0.4-0.8,0.6c-1.9,1.8-6,4.1-8.1,4.1
								c-0.1,0-0.2,0-0.2-0.2c0,0,0-0.1,0.1-0.1c0.1,0,0.5-0.1,0.5-0.2c5.7-2,8.7-7,8.7-7.7c0-0.3-0.3-0.4-0.7-0.5
								c-0.7-0.1-1.3-0.5-1.5-1.3c0-0.1,0-2.6,0-2.9c0-0.9,0-1-0.1-1.3c0-0.1-0.2-0.3-0.2-0.4c0-0.2,0.2-0.2,0.3-0.2
								s2.5,0.6,2.5,1.1c0,0.1-0.5,0.6-0.6,0.7c0,0,0,1.7,0,1.8c0,0.5,0,0.8,3,0.8c0.8,0,3.5-0.1,4.2-0.4c0.8-0.4,1.2-1.4,1.3-2.3
								c0.1-0.4,0.1-0.4,0.2-0.4c0,0,0.2,0,0.2,0.2c0,0.3,0.2,0.9,0.4,1.1c0.8,1.1,0.9,1.3,0.9,1.5c0,0.9-1.8,2.1-5.6,2.1
								c-0.3,0-1.9,0-2.3,0c-0.1,0-0.2,0.1-0.2,0.1c0,0.2,0.9,0.5,0.9,0.7c0,0.3-0.5,0.5-0.7,0.5c-0.6,0.2-0.8,0.7-0.8,0.8
								c0,0.2,0.2,0.2,0.5,0.2H650z M638.9,169.6c0,3.7-2.1,3.7-2.3,3.7c-0.7,0-1-0.6-1-1.1c0-0.5,0.1-0.6,1.4-2
								c0.4-0.4,0.8-0.8,1-1.3c0.1-0.4,0.3-1,0.4-1.1C638.9,167.5,638.9,169.3,638.9,169.6z M644.2,176.6c-0.1,0-0.4,0-0.4,0.3
								c0,0.4,2.8,2.7,3.6,2.7c0.6,0,2.8-2.4,2.8-2.7c0-0.3-0.2-0.3-0.5-0.3H644.2z M645,166.8c0.2,0,1.6,0.5,2.4,1.1
								c0.6,0.4,0.9,0.8,0.9,1.3c0,0.6-0.4,1.1-0.7,1.1c-0.2,0-0.3-0.1-0.8-0.7c-0.6-0.8-1.4-2-1.8-2.4c-0.1-0.1-0.2-0.2-0.2-0.2
								C644.9,166.8,645,166.8,645,166.8z M652.6,167.2c0.1,0,4.8,2.2,4.8,4.8c0,1-0.6,1.5-1,1.5c-0.5,0-0.7-0.4-1.1-1.6
								c-0.6-1.6-0.8-1.9-2.5-4.2c-0.2-0.2-0.2-0.3-0.2-0.4C652.5,167.2,652.6,167.2,652.6,167.2z"/>
							<path class="st1" d="M684.4,164.4c-0.2,2-0.2,2.2-0.2,2.4c0,0.2,0.2,0.2,0.3,0.2c0.1,0,1.2-0.1,1.4-0.1
								c0.7-0.1,0.9-0.1,0.9-0.4c0-0.2-0.1-0.2-0.6-0.8c-0.1,0-0.1-0.1-0.1-0.2c0-0.1,0.2-0.1,0.2-0.1c0.3,0,1.7,0.4,2.2,0.5
								c1.9,0.5,2.3,1,2.3,1.6c0,0.8-0.9,1-1.5,1c-0.6,0-3.2-0.3-3.8-0.3c-1.7,0-1.8,0.1-2,1.6c-0.6,4.5-2.2,6-3.3,6
								c-1,0-1.1-0.3-1.4-1.2c-0.2-0.5-0.4-1-0.6-1.3c-0.1-0.1-0.4-0.5-0.4-0.6c0-0.1,0.1-0.1,0.2-0.1c0.3,0,1.7,0.5,2,0.5
								c0.5,0,0.8-0.3,1-0.8c0.5-1.1,0.9-3.1,0.9-3.4c0-0.2,0-0.4-0.5-0.4c-0.6,0-6.1,1.2-6.5,1.9c-0.2,0.4-0.2,0.7-0.3,1.2
								c0,1-0.1,3.7-0.1,3.8c0,2.8,0.5,4.2,4.8,4.2c0.6,0,1.6,0,2.6-0.2c0.1,0,1-0.2,1.4-0.2c0.8,0,1.6,0.6,1.6,1.3
								c0,1.4-2.7,1.4-3.4,1.4c-8.6,0-8.6-2.4-8.6-8.1c0-2.5,0-2.8-0.5-2.8c-0.5,0-2.6,0.9-3,0.9c-0.7,0-3.1-0.6-3.1-2.2
								c0-0.4,0.1-0.4,0.4-0.4c0.3,0,1.6,0.1,1.8,0.1c1.9,0,3.3-0.2,3.8-0.4c0.5-0.2,0.5-0.4,0.5-1.5c0-1.6-0.2-2.4-0.5-3.2
								c-0.1-0.2-0.7-1.3-0.7-1.4c0-0.3,0.5-0.4,0.9-0.4c0.7,0,2.6,0.8,2.6,1.9c0,0.2-0.1,0.5-0.2,0.9c0,0-0.2,0.9-0.2,2.3
								c0,0.6,0,0.9,0.4,0.9c0.2,0,4-0.8,4.8-1c1.9-0.3,2.1-0.3,2.2-1c0.1-0.6,0.2-2,0.2-2.4c0-0.9-0.1-1.6-0.4-2.1
								c0,0-0.6-1.1-0.6-1.1c0-0.3,0.5-0.3,0.7-0.3c1.8,0,2.6,1.5,2.6,2.1C684.8,162.8,684.4,164.1,684.4,164.4z"/>
							<path class="st1" d="M712.1,175.9c0-2.5-2.1-4.6-5.1-4.6c-4,0-6.5,4.1-7.1,5.1c-0.6,1-0.9,1.6-1.7,1.6
								c-0.7,0-0.9-0.6-0.9-0.8c0-0.8,0.2-1.4,2.4-3.9c2-2.3,2.3-2.7,6.8-9.1c1-1.4,1.4-2,1.4-2.4c0-0.2-0.2-0.4-0.6-0.4
								c-1.1,0-2.9,1.5-3.4,1.9c-1.2,1-1.6,1.1-2.1,1.1c-1.4,0-2.3-1.9-2.3-2.1c0-0.1,0.1-0.1,0.7-0.1c1.6,0,3.8-0.7,4.7-1.1
								c1.9-0.8,2.1-0.9,2.7-0.9c1.2,0,3.2,0.8,3.2,2.1c0,0.9-0.7,1.4-2.1,2.3c-2.2,1.5-4.8,5.7-4.8,6.2c0,0.1,0.1,0.2,0.2,0.2
								c0.2-0.1,0.6-0.2,0.8-0.3c1-0.4,1.8-0.5,2.6-0.5c3.9,0,6.8,2.9,6.8,6.3c0,3.8-3.7,6.5-7.5,6.5c-3,0-5.1-1.6-5.1-3.1
								c0-1.1,1.3-2.4,3-2.4c1.4,0,2.6,0.8,3.4,1.9c0.4,0.5,0.6,0.8,1,0.8C710,180.3,712.1,178.4,712.1,175.9z M704.4,178.6
								c-0.7,0-1.3,0.6-1.3,1.1c0,0.8,1.3,1.4,2.6,1.4c0.3,0,0.5-0.2,0.5-0.5C706.2,179.9,705.5,178.6,704.4,178.6z"/>
							<path class="st1" d="M725.1,162.5c-0.4,0-0.6,0.1-0.8,0.7c-0.2,0.8-0.7,3.1-2.2,3.1c-0.6,0-1.3-0.4-1.3-1.2
								c0-0.7,0.4-1,1.2-1.6c1-0.8,1.6-1.9,2-3c0-0.1,0.1-0.2,0.2-0.3c0.1,0.2,0.1,0.5,0.1,1c0,0.6,0.4,0.6,0.9,0.6h7.1
								c0.7,0,0.8-0.2,0.8-1c0-1.3-0.1-1.6-0.1-1.8c0-0.1-0.3-0.7-0.3-0.8c0-0.2,0.2-0.3,0.4-0.3c0.1,0,3,0.3,3,0.9
								c0,0.2-0.5,0.6-0.6,0.8c-0.1,0.2-0.2,0.7-0.2,1.2c0,0.9,0.2,1.1,0.9,1.1h5.9c0.8,0,1.2,0,1.8-0.7c0.5-0.6,0.6-0.6,0.7-0.6
								c0.2,0,0.4,0.1,1.9,1.3c0.4,0.4,0.6,0.5,0.6,1c0,0.8-0.6,0.9-1.6,1c-0.8,0.1-1.7,0.5-2.6,1.1c-0.2,0.2-0.6,0.5-0.7,0.5
								c-0.1,0-0.2-0.1-0.2-0.2c0-0.2,0.2-0.4,0.4-0.7c0.5-0.8,0.6-1.3,0.6-1.4c0-0.4-0.4-0.4-0.7-0.4H725.1z M735.9,166.9
								c-0.2,0-0.5,0-0.5,0.4c0,1.1,2.8,6.4,3.6,6.4c0.9,0,3.3-3.8,3.4-4.2c0.1-0.2,0.2-1,0.3-1c0,0,2.7,1.7,2.7,2.2
								c0,0.3-0.4,0.3-0.8,0.4c-0.5,0.1-0.7,0.2-1.8,1.1c-0.5,0.3-2.5,1.6-2.9,1.9c-0.2,0.1-0.3,0.2-0.3,0.5c0,0.2,2.6,3.3,7.3,5.2
								c0.3,0.1,0.8,0.3,1,0.5c-0.4,0.1-1.1,0.4-1.3,0.6c-0.3,0.2-0.8,0.8-1,1.1c-0.1,0.2-0.2,0.2-0.3,0.2c-0.2,0-3-1.7-5.4-4.5
								c-3.5-4-4.4-7.8-4.9-9.9c-0.1-0.3-0.2-0.6-0.4-0.6c-0.2,0-0.3,0.1-1.4,1.1c-0.2,0.2-1.5,1.1-1.5,1.3c0,0.2,0.1,0.2,0.7,0.7
								c4.4,3.2,4.4,8.3,4.4,9c0,3.5-1.6,5.5-3.9,5.5c-0.5,0-0.5-0.1-0.7-0.8c-0.2-0.7-1.2-1.1-2.6-1.6c-0.5-0.2-0.6-0.2-0.6-0.3
								s0.2-0.1,0.2-0.1c0.2,0,1.4,0.2,1.6,0.2c0.6,0.1,1.5,0.1,1.9,0.1c0.6,0,1,0,1.5-1c0.2-0.5,0.5-1.3,0.5-2.5c0-1.1-0.2-2-0.6-2
								c-0.1,0-0.9,0.7-1,0.8c-4.7,4.2-10.2,5.1-10.2,5.1c-0.1,0-0.1,0-0.1-0.1c0,0,0.8-0.5,0.9-0.5c3.7-2.1,6.3-3.6,9.5-7.3
								c0.2-0.3,0.6-0.7,0.6-1.1c0-0.2-0.3-0.9-0.7-0.9c-0.1,0-0.2,0.1-1,0.7c-3.8,3.2-8.7,4.8-9.2,4.8c-0.1,0-0.1,0-0.1-0.1
								c0-0.1,2-1.2,2.4-1.4c3-1.9,6.6-4.9,6.6-5.9c0-0.3-0.4-0.9-0.8-0.9c-0.2,0-1.1,0.7-1.3,0.8c-3,2-7.2,2.9-7.3,2.9
								c-0.1,0-0.1,0-0.1-0.1c0-0.1,0.6-0.4,1.1-0.6c4.9-2.3,7.7-5.4,7.7-5.8c0-0.3-0.1-0.3-1-0.3c-2.1,0-3.1,0-3.4,0.1
								c-0.1,0-0.5,0.1-0.6,0.1c-0.1,0-0.2-0.1-0.3-0.2l-0.6-0.7c-0.1-0.1-0.1-0.2-0.1-0.2c0-0.1,0-0.1,0.1-0.1
								c0.2,0,1.1,0.1,1.4,0.1c1.2,0,2.6,0.1,3.7,0.1h7.1c1.2,0,1.3,0,1.6-0.2c0.2-0.2,1.1-1.5,1.4-1.5c0.2,0,2.4,1.7,2.4,2.1
								c0,0.4-0.3,0.4-1.1,0.4H735.9z"/>
							<path class="st1" d="M754.5,173.7c0-0.9,0.8-1.9,2.9-4.2c1.4-1.6,2.6-4.1,2.6-4.5c0-0.2-0.2-0.2-0.3-0.2
								c-0.3,0-1.5,0.2-1.8,0.2c-1.1,0-2.7-1.5-2.7-2.6c0-0.1,0-0.2,0.2-0.2c0.2,0,1,0.5,1.1,0.6c0.4,0.2,1.2,0.5,2,0.5
								c2.5,0,2.5-0.8,2.5-1.4c0-0.2,0-0.7-0.2-1.1c-0.1-0.2-0.7-0.7-0.7-0.9c0-0.2,0.8-0.5,1.3-0.5c0.7,0,1.5,0.3,1.5,0.9
								c0,0.4,0.2,0.5,1.4,0.5c0.2,0,1.4,0.2,1.4,0.8c0,1-2.2,1.8-3.6,2.4c-0.5,0.2-0.5,0.2-1.1,1.8c-0.7,1.7-0.8,1.9-1.6,3.3
								c-0.2,0.3-0.2,0.4-0.2,0.5c0,0.1,0,0.1,0.1,0.1s0.7-0.2,0.9-0.3c0.3-0.2,0.7-0.2,1.2-0.2c0.4,0,1.8,0.1,2.6,1.8
								c0.2,0.5,0.2,0.6,0.3,0.6c0.1,0,1.1-1.4,1.2-1.6c1-1.4,3-4.1,5.6-4.1c1.7,0,2.8,1.4,2.8,2.7c0,1.4-2.4,2.4-4.2,3.2
								c-0.8,0.3-4.2,1.7-4.7,2c-0.5,0.3-0.5,0.6-0.5,1.3c0,0.3,0.1,1.5,0.1,1.8c0,0.5,0,2.2-1.1,2.2c-0.8,0-0.9-1-0.9-1.5
								c0-0.3,0.1-1.7,0.1-1.8c0-0.1,0-0.4-0.2-0.4c-0.2,0-2.9,1.9-2.9,3.6c0,2.1,3,2.1,3.9,2.1c0.8,0,1.3-0.1,1.9-0.2
								c0.4-0.1,2.3-0.5,2.7-0.5c0.6,0,1.5,0.3,1.5,1c0,1.9-4.7,2-5.4,2c-3.8,0-5.8-1.6-5.8-3.9c0-1.9,1.1-2.9,4-5.2
								c0.3-0.2,0.5-0.6,0.5-1.1c0-1.4-0.2-3-1.4-3c-1.1,0-2.9,1.4-3.7,3.2c-0.3,0.8-0.7,1.5-1.6,1.5
								C755,174.7,754.5,174.6,754.5,173.7z M762.2,162.4c0.1,0,1.5-0.4,1.5-0.7c0-0.4-0.8-0.5-1-0.5c-0.4,0-0.5,0.8-0.5,1
								S762.1,162.4,762.2,162.4z M764.9,172.1c0,0.1,0,0.2,0.1,0.2c0.1,0,6-2.4,6-4.4c0-0.8-0.7-0.9-1.1-0.9
								C767.5,167,764.9,171.6,764.9,172.1z"/>
							<path class="st1" d="M786.6,169.1c0.5,0,0.6,0,0.9-0.3c0.7-0.7,0.8-0.8,1-0.8c0.3,0,1.8,1.1,1.8,1.7c0,0.2,0,0.2-0.5,0.6
								c-0.3,0.2-0.4,0.5-0.5,0.8c-0.8,2.9-1.2,4.2-2.4,6.5c-0.1,0.1-0.5,1-0.5,1.1c0,0.4,1,1.1,1.4,1.3c2.7,1.6,7,1.7,9,1.7
								c1.5,0,5.3-0.1,9-0.7c0.3-0.1,1.1-0.3,1.2-0.3c0.1,0,0.2,0,0.2,0.1c0,0.1-0.1,0.1-0.5,0.4c-0.4,0.2-0.9,0.9-1.1,1.5
								c-0.1,0.2-0.2,1-0.4,1.1c-0.2,0.3-0.5,0.3-2.6,0.3c-11.6,0-13.7-1.4-15.4-2.6c-0.3-0.2-1.5-1.2-1.7-1.2
								c-0.2,0-0.4,0.2-0.8,0.8c-2.1,2.6-4.8,3.9-5.3,3.9c0,0,0,0,0-0.1c0-0.2,1.2-1.1,1.4-1.3c1.9-1.7,3.6-4.2,3.6-4.6
								c0-0.4-1-1.8-1.1-2.2c-0.7-1.5-1.1-3.6-1.1-4.2c0-0.1,0-0.3,0.1-0.3c0.2,0,0.2,0.2,0.4,0.6c0.7,2.4,2.1,4.5,2.5,4.5
								c0.3,0,0.5-0.4,0.9-1.4c0.5-1.3,1.7-4.7,1.7-5.7c0-0.4-0.2-0.5-0.8-0.5h-2.3c-0.6,0-0.8,0-1,0.4c-0.4,0.7-0.7,1.3-1.5,1.3
								c-0.4,0-0.8-0.2-0.8-0.6c0-0.1,1.1-3.6,1.3-4.2c0.9-3.4,1.3-5.3,1.3-5.4c0-0.4-0.3-0.5-0.5-0.5c-0.7,0-1.4,0-2.2,0.1
								c-0.1,0-0.7,0.1-0.8,0.1c-0.1,0-0.2-0.1-0.3-0.2l-0.6-0.7c-0.1-0.2-0.1-0.2-0.1-0.2c0-0.1,0.1-0.1,0.1-0.1
								c0.6,0,3.5,0.2,4.2,0.2c0.4,0,0.5-0.1,0.8-0.5c0.5-0.8,0.6-0.8,0.8-0.8c0.3,0,1.9,1.4,1.9,1.8c0,0.2-0.1,0.3-0.6,0.6
								c-0.5,0.2-0.5,0.3-0.8,1.4c-0.3,1.1-1.6,5.8-1.6,6.1c0,0.5,0.3,0.5,0.8,0.5H786.6z M799.2,172.7c0.8,0,1.2,0,1.4-0.1
								c0.3-0.1,1.1-1.3,1.4-1.3c0.3,0,2.1,1.3,2.1,1.8c0,0.4-0.6,0.4-1.6,0.4h-4.9c-0.4,0-0.7,0.2-0.7,0.7c0,0.3,0,1.6,0.1,1.8
								c0.1,0.2,0.3,0.3,0.6,0.3h3.6c1.4,0,1.5,0,1.9-0.5c0.8-1,0.8-1.1,1.1-1.1c0.4,0,2.5,1.7,2.5,2c0,0.4-0.6,0.4-1.6,0.4h-7.3
								c-0.8,0-0.9,0.5-0.9,1.1v1.5c-0.1,0.9-1.2,1.1-1.5,1.1c-0.7,0-0.7-0.8-0.7-0.9c0-0.3,0.1-1.6,0.1-1.9c0-0.8-0.5-0.8-1.1-0.8
								c-0.7,0-2.8,0-3.8,0.1c-0.1,0-0.5,0.1-0.6,0.1s-0.2-0.1-0.3-0.2l-0.6-0.7c-0.1-0.1-0.1-0.2-0.1-0.2c0-0.1,0-0.1,0.1-0.1
								c0.1,0,1.6,0.1,1.9,0.1c2.1,0.1,2.4,0.1,3.7,0.1c0.8,0,0.8-0.2,0.8-2c0-0.7-0.5-0.8-1-0.8c-0.6,0-2,0.1-2.6,0.1
								c-0.1,0-0.4,0.1-0.4,0.1c-0.1,0-0.2-0.1-0.3-0.2l-0.6-0.7c-0.1-0.1-0.1-0.2-0.1-0.2c0-0.1,0-0.1,0.1-0.1c0.6,0,3.4,0.2,4,0.2
								c0.9,0,0.9-0.2,0.9-2.2c0-0.2,0-0.8-0.8-0.8c-0.4,0-2.3,0.2-2.6,0.2c-0.1,0-0.2-0.1-0.3-0.2l-0.6-0.7
								c-0.1-0.1-0.1-0.2-0.1-0.2c0-0.1,0-0.1,0.1-0.1c0.3,0,3,0.2,3.5,0.2c0.8,0,0.8-0.3,0.8-2.5c0-0.7-0.6-0.7-0.9-0.7h-1.8
								c-0.7,0-2.7,0-3.8,0.1c-0.1,0-0.5,0.1-0.7,0.1c-0.1,0-0.2-0.1-0.2-0.2l-0.6-0.7c-0.1-0.1-0.1-0.2-0.1-0.2
								c0-0.1,0-0.1,0.1-0.1c0.2,0,1.1,0.1,1.3,0.1c1.4,0.1,2.7,0.1,4.1,0.1h1.7c0.9,0,0.9-0.2,0.9-1.8c0-0.8-0.5-0.8-1.2-0.8
								c-1.2,0-2.8,0-3.6,0.1c-0.1,0-0.5,0.1-0.6,0.1c-0.1,0-0.2-0.1-0.3-0.2l-0.6-0.7c-0.1-0.2-0.2-0.2-0.2-0.2
								c0-0.1,0.1-0.1,0.1-0.1c0.1,0,1.6,0.1,1.9,0.1c2,0.1,2.4,0.1,3.6,0.1c0.8,0,0.8-0.3,0.8-1.3c0-0.4-0.1-1.4-0.2-1.6
								c-0.1-0.1-0.4-0.8-0.4-0.8c0-0.1,0.1-0.1,0.1-0.1c0.2,0,2.1,0.4,2.5,0.5c0.3,0.1,0.8,0.3,0.8,0.5c0,0.2-0.8,0.7-0.9,0.9
								c0,0.1-0.1,0.9-0.1,1.1c0,0.5,0.1,0.8,0.8,0.8h2.4c0.5,0,0.5-0.1,1-0.6c0.3-0.3,0.5-0.5,0.7-0.5c0.3,0,2,1.4,2,1.7
								c0,0.2-0.7,0.7-0.8,0.8c-0.2,0.2-0.2,0.3-0.2,1.2c0,0.5,0,0.8,0.4,0.8c0.3,0,0.5-0.2,0.8-0.8c0.1-0.2,0.3-0.5,0.6-0.5
								c0.4,0,1.9,1.4,1.9,1.8c0,0.5-0.5,0.5-1.6,0.5h-1.1c-0.9,0-0.9,0.3-0.9,1c0,0.9,0,2.5-0.1,2.8c-0.2,0.8-0.8,1-1.2,1
								c-0.5,0-0.6-0.2-0.8-0.5c-0.2-0.3-0.3-0.3-0.8-0.3h-2.2c-0.6,0-0.8,0.5-0.8,0.6c0,2.1,0,2.4,0.8,2.4H799.2z M797.8,162.4
								c-0.7,0-1,0.1-1,1c0,1.3,0,1.6,1,1.6h2.1c0.4,0,1,0,1-0.8c0-1.5,0-1.7-1-1.7H797.8z M797.7,165.8c-0.9,0-0.9,0.5-0.9,1.3
								c0,1.5,0,1.9,0.9,1.9h2.3c0.9,0,0.9-0.4,0.9-1.8c0-0.8,0-1.3-0.9-1.3H797.7z"/>
							<path class="st1" d="M813.9,165.2c1.3,0,1.7-0.1,5.9-1.3c2.7-0.8,9.5-2.7,11.6-2.7c1.1,0,2.4,0.4,2.4,1.4
								c0,0.8-0.8,1.1-1.2,1.1c-0.4,0-2.1-0.3-2.5-0.3c-3.8,0-8.1,3.5-8.1,11.3c0,5.1,1.9,5.4,3.7,5.4c0.5,0,2.6-0.2,2.9-0.2
								c0.9,0,1.5,0.4,1.5,1.1c0,1.6-3.3,1.6-3.5,1.6c-6.2,0-6.2-5-6.2-6.4c0-1.3,0-7.7,4.4-11.6c0.1-0.1,0.7-0.6,0.7-0.6
								c0-0.1-0.1-0.1-0.2-0.1c-1.7,0-8,2.7-8.9,3.2c-0.4,0.2-0.7,0.4-1.1,0.4c-1.5,0-2.9-2-2.6-2.4
								C812.8,164.9,813.7,165.2,813.9,165.2z"/>
							<path class="st1" d="M851.2,161.6c0,0.3-0.4,1.4-0.5,1.6c-0.2,0.8-0.3,1.9-0.3,2.1c0,0.4,0,0.5,0.4,0.5
								c0.3,0,0.8-0.1,1.3-0.2c0.3-0.1,1.7-0.8,2-0.8c0.8,0,1.9,0.8,1.9,1.3c0,0.5-0.7,1.2-3.2,1.2c-0.1,0-2,0-2.1,0
								c-0.2,0.1-0.3,0.2-0.3,0.8s0.4,8.1,0.5,8.4c0.1,0.5,0.3,0.5,1.9,1.2c1.9,0.8,3.8,1.7,3.8,2.6c0,0.8-0.6,1.2-1.1,1.2
								c-0.5,0-2-0.9-2.8-1.4c-0.5-0.3-1.3-0.8-1.7-0.8c-0.3,0-0.4,0.1-0.8,0.9c-1.2,2.5-3.8,2.7-4.7,2.7c-2.8,0-5.2-1.8-5.2-3.5
								c0-2,2.9-3.3,6.3-3.3c0.3,0,1.4,0.1,1.6,0.1c0.5,0,0.6-0.1,0.6-0.8c0-0.8-0.3-5.8-0.3-6.5c0-0.2,0-6.4-0.1-7.4
								c-0.1-0.5-0.3-1.2-0.8-1.8c0,0-0.2-0.2-0.2-0.4c0-0.1,0.2-0.1,0.3-0.1C850.2,159.3,851.2,161.4,851.2,161.6z M845.7,177.8
								c-0.3,0-3.9,0-3.9,1.7c0,0.6,1,1.5,3.2,1.5c3.3,0,3.8-2.2,3.7-2.5C848.5,178,847,177.8,845.7,177.8z"/>
							<path class="st1" d="M877.3,171.8c0,9.4-9.6,12.6-10.4,12.6c0,0-0.1,0-0.1-0.1c0-0.1,1.2-0.9,1.3-1c4.1-2.9,6.9-6.8,6.9-11.7
								c0-1-0.2-4.3-3-4.3c-1.7,0-3.4,1-4,1.8c-0.8,1-0.9,1.1-1.4,1.1c-1.3,0-2.8-1.9-2.8-2.3c0-0.2,0.2-0.2,0.3-0.2
								c0.2,0,1.2,0.2,1.4,0.2c0.7,0,0.9-0.1,2.8-0.9c1.7-0.7,2.5-1.1,4-1.1C874.9,166,877.3,167.8,877.3,171.8z M869.8,159.8
								c0.5,0.1,1,0.1,1.4,0.1c1.4,0,1.8,0,2.4,0.3c1.2,0.5,1.4,1.2,1.4,1.5c0,0.8-0.8,0.9-1.4,0.9c-0.2,0-1.3-0.1-1.5-0.1
								c-1,0-1.7,0.4-3.6,1.4c-0.2,0.1-0.9,0.5-1,0.5s-0.1,0-0.1-0.1c0-0.1,2.1-2.4,2.1-3c0-0.2-0.1-0.2-0.6-0.5
								c-0.9-0.5-2.2-1.3-2.2-1.5c0-0.2,0.2-0.2,0.3-0.2C867,159.2,869.4,159.7,869.8,159.8z"/>
							<path class="st1" d="M891.7,181.3c0,1.7-1.4,3.3-3.4,3.3c-2,0-3.3-1.7-3.3-3.4c0-2.3,2-3.3,3.3-3.3
								C890.3,178,891.7,179.6,891.7,181.3z M885.9,181.3c0,1.4,1.1,2.5,2.5,2.5c1.3,0,2.5-1,2.5-2.5c0-1.2-0.9-2.5-2.6-2.5
								C886.7,178.8,885.9,180.1,885.9,181.3z"/>
						</g>
					</g>
				</g>
			</g>
			<g>
				<g>
					<g>
						<path class="st1" d="M13,660.6c-0.5,0-0.5,0.2-0.5,0.6c0,0.6-0.4,0.9-1,0.9c-0.4,0-0.4-0.3-0.4-0.4c0-0.1,0-0.4,0-0.5
							c0-1.5,0.1-5.1,0.1-6.9c0-0.4,0-0.8-0.1-1.8c0-0.3-0.1-0.6-0.1-0.7c0-0.1,0-0.2,0.1-0.2c0.2,0,1,0.4,1.2,0.5
							c0.3,0.2,0.5,0.2,0.8,0.2h1.1c0.2,0,0.5,0,0.5-0.4v-2.1c0-0.3,0-0.6-0.5-0.6h-1.6c-0.4,0-1.5,0-2,0c0,0-0.3,0-0.3,0
							c-0.1,0-0.1,0-0.1-0.1l-0.3-0.4c-0.1-0.1-0.1-0.1-0.1-0.1c0,0,0,0,0.1,0c0.1,0,0.6,0,0.7,0c0.5,0,1.3,0.1,2.2,0.1H21
							c0.7,0,0.8,0,1-0.3c0.4-0.6,0.5-0.6,0.7-0.6c0.2,0,1.6,0.9,1.6,1.1c0,0.2-0.3,0.2-0.8,0.2h-4.1c-0.2,0-0.4,0-0.4,0.3
							c0,0.1,0,1.3,0,1.6c0,1,0,1.2,0.5,1.2h1.9c0.2,0,0.3,0,0.4-0.2c0.3-0.4,0.3-0.5,0.4-0.5c0.1,0,1.3,0.6,1.3,0.9
							c0,0.1-0.1,0.2-0.2,0.2c-0.1,0-0.3,0.2-0.3,0.3c0,0.1,0,2.1,0,2.4c0,0.8,0.1,4.9,0.1,5.9c0,0.7-0.9,0.8-0.9,0.8
							c-0.4,0-0.4-0.3-0.4-0.8c0-0.5,0-0.7-0.5-0.7H13z M13,652.7c-0.5,0-0.5,0.3-0.5,0.7c0,0.7,0,3.7,0,4.3c0,0.4,0,0.6,0.1,0.6
							c0.1,0,1.3-0.9,1.8-2.5c0.2-0.8,0.4-1.9,0.4-2.7c0-0.4-0.3-0.4-0.4-0.4H13z M16.5,652.7c-0.4,0-0.4,0.2-0.5,0.8
							c-0.1,1.4-0.4,3.5-3.1,5.2c-0.4,0.2-0.4,0.3-0.4,1c0,0.3,0,0.6,0.5,0.6h8.2c0.4,0,0.5-0.1,0.5-0.4c0-0.7,0-1.5,0-2.2
							c0-0.2,0-0.3-0.1-0.3c-0.1,0-0.3,0.1-0.4,0.1c-0.3,0.1-0.5,0.2-1.3,0.2c-2,0-2.2-0.3-2.2-2v-2.4c0-0.2,0-0.5-0.4-0.5H16.5z
							 M17.3,652.3c0.4,0,0.4-0.1,0.4-1.5c0-0.2,0-1.2,0-1.3c-0.1-0.2-0.3-0.3-0.4-0.3h-0.7c-0.2,0-0.4,0-0.5,0.3c0,0.1,0,2,0,2.3
							c0,0.2,0,0.5,0.4,0.5H17.3z M19.4,652.7c-0.5,0-0.5,0.3-0.5,0.6c0,0.3,0,2.6,0,2.8c0,0.4,0.2,0.4,0.9,0.4c0.6,0,0.7-0.1,1-1.3
							c0-0.1,0.1-0.3,0.2-0.3c0.1,0,0.1,0.3,0.2,0.4c0,0.1,0.2,0.9,0.5,0.9c0.1,0,0.2-0.2,0.2-0.5v-2.6c0-0.3-0.2-0.4-0.5-0.4H19.4z
							"/>
					</g>
					<g>
						<path class="st1" d="M38.1,652c0.8,0,0.9,0,1.1-0.3c0.4-0.5,0.5-0.6,0.6-0.6c0.1,0,1.4,0.9,1.4,1.1c0,0.2-0.3,0.2-0.9,0.2
							h-3.1c-0.4,0-0.6,0-0.6,0.5c0,1,0.4,2.6,0.7,3.6c0.8,2.4,1.9,3.5,2.2,3.5c0.3,0,0.9-1.1,1.1-1.4c0.1-0.1,0.3-0.6,0.4-0.6
							s0.1,0.1,0.1,0.1c0,0.1-0.1,0.5-0.1,0.6c-0.1,0.4-0.3,1.7-0.3,1.9c0,0.2,0.2,0.8,0.2,1c0,0.3-0.2,0.4-0.6,0.4
							c-1.4,0-4.2-3.1-4.7-8.7c-0.1-0.9-0.1-0.9-0.8-0.9h-2.5c-0.1,0-0.1,0-0.1,0.1c0,0.1,0,0.1,0.3,0.2c0,0,0.4,0.2,0.4,0.4
							c0,0.1-0.1,0.2-0.3,0.4c-0.2,0.2-0.2,1.4-0.2,1.8c0,0.2,0,0.6,0.4,0.6h0.3c0.2,0,0.4,0,0.6-0.3c0.3-0.5,0.3-0.5,0.5-0.5
							c0.3,0,1.3,0.8,1.3,1c0,0.2-0.3,0.2-0.9,0.2H33c-0.3,0-0.5,0-0.5,0.5c0,0.4,0,2.1,0,2.4c0,0.2,0,0.6,0.4,0.6
							c0.2,0,2.7-0.4,2.8-0.4s0.6-0.1,0.7-0.1c0,0,0,0,0,0c0,0.1-1.5,0.7-3.6,1.2c-0.7,0.2-4,1-4.2,1.1c-0.2,0.1-0.2,0.1-0.4,0.4
							c-0.1,0.1-0.2,0.1-0.3,0.1c-0.2,0-0.2-0.1-0.5-0.6c-0.2-0.4-0.6-1.1-0.6-1.2c0,0,0-0.1,0.1-0.1s0.2,0.1,0.2,0.1
							c0.3,0.1,0.4,0.1,0.8,0.1c0.2,0,0.6,0,0.6-0.6v-4.2c0-0.2,0-0.4-0.1-0.7c0-0.1-0.1-0.3-0.1-0.4c0-0.1,0.1-0.1,0.1-0.1
							c0,0,1.2,0.4,1.3,0.4c0,0,0.2,0.1,0.2,0.3c0,0.1-0.4,0.4-0.5,0.6c0,0.1,0,4,0,4c0,0.3,0.2,0.5,0.4,0.5c1.3,0,1.3-0.4,1.3-0.9
							v-5.6c0-1-0.1-1.2-0.6-1.2h-1.2c-1.4,0-1.9,0-2,0c0,0-0.3,0-0.3,0c-0.1,0-0.1,0-0.1-0.1l-0.3-0.4c-0.1-0.1-0.1-0.1-0.1-0.1
							s0,0,0.1,0c0.1,0,0.6,0,0.7,0c0.8,0,1.4,0.1,2.2,0.1h5.1c0.5,0,0.6,0,0.6-0.5c0-0.4-0.1-2.8-0.2-3.2c0-0.1-0.2-0.5-0.2-0.6
							c0-0.1,0.1-0.2,0.2-0.2c0.2,0,0.8,0.2,1.3,0.4c0.2,0.1,0.3,0.1,0.3,0.3s-0.1,0.2-0.3,0.3c-0.2,0.1-0.2,0.1-0.2,0.3
							c0,0.4,0.1,2.2,0.1,2.5c0,0.5,0.3,0.6,0.7,0.6H38.1z M31.8,649.6c0.5,0,0.6,0,0.7-0.1c0.1-0.1,0.5-0.7,0.6-0.7
							c0.2,0,1.2,0.7,1.2,1c0,0.2-0.3,0.2-0.9,0.2h-2.6c-1.1,0-1.6,0-1.7,0c-0.1,0-0.3,0-0.3,0c-0.1,0-0.1,0-0.1-0.1l-0.3-0.4
							c-0.1-0.1-0.1-0.1-0.1-0.1c0,0,0,0,0.1,0c0.1,0,0.4,0,0.5,0c0.5,0,1.6,0.1,2,0.1H31.8z M38,648.5
							C38,648.4,37.9,648.4,38,648.5c-0.1-0.1-0.1-0.2,0-0.2c0,0,0.4,0,0.9,0.2c0.3,0.1,1.2,0.4,1.2,1.2c0,0.3-0.3,0.7-0.6,0.7
							c-0.3,0-0.4-0.3-0.5-0.4c-0.3-0.7-0.3-0.8-0.7-1.3C38.2,648.6,38.1,648.5,38,648.5z"/>
					</g>
					<g>
						<path class="st1" d="M46.1,653c0,0.5-0.4,0.6-0.6,0.6c-0.3,0-0.4-0.1-0.9-0.8c-0.1-0.2-0.3-0.3-1.1-1.2
							c-0.1,0-0.2-0.2-0.2-0.2c0,0,0.1-0.1,0.1-0.1c0.4,0,1,0.1,1.4,0.3C45.4,651.9,46.1,652.3,46.1,653z M45.4,660.8
							c-0.2-1.7-0.6-2.1-0.9-2.3c-0.1-0.1-0.6-0.3-0.6-0.4c0-0.1,0.5-0.1,0.5-0.1c0.6-0.2,0.9-0.8,2.4-4.4c0.1-0.2,0.5-1.2,0.6-1.2
							c0,0,0,0,0,0.1c0,0.2-0.5,2.4-0.6,2.7c-0.6,2.4-0.7,2.6-0.7,3.2c0,0.5,0.1,0.8,0.3,1.3c0.4,1.1,0.5,1.2,0.5,1.5
							c0,0.6-0.4,0.9-0.7,0.9C45.6,662.1,45.4,661.6,45.4,660.8z M46.8,650.6c-0.4,0-0.6-0.4-0.8-0.9c-0.3-0.6-0.5-1-0.9-1.5
							c-0.1-0.2-0.1-0.2-0.1-0.2s0,0,0.1,0c0.4,0,2.4,0.5,2.4,1.9c0,0.3-0.2,0.6-0.4,0.7C46.9,650.6,46.8,650.6,46.8,650.6z
							 M54.9,651.3c0.3-0.2,0.4-0.3,0.6-0.8c0.2-0.5,0.2-0.6,0.5-0.6c0.1,0,1.4,0.4,1.4,0.8c0,0.2-0.1,0.2-0.4,0.4
							c-0.2,0.1-0.2,0.3-0.2,1.5c0,1.9,0,2.9-0.2,4.1c-0.3,2.1-1.3,2.2-1.5,2.2c-0.1,0-0.3,0-0.4-0.2c0-0.1-0.1-0.7-0.2-0.8
							c0-0.1-0.4-0.4-0.5-0.4c0-0.1,0.3-0.1,0.4-0.1c0.8,0,0.9,0,1.1-1.6c0.1-0.9,0.1-1.9,0.1-4c0-0.1,0-0.3-0.2-0.3
							c-0.1,0-0.2,0-0.3,0.1l-1,0.6c-0.5,0.3-0.5,0.6-0.5,1.1c0,1.3,0,2,0,3.4c0,0.2,0,1.3,0,1.6c0,0.4,0,0.9-0.6,0.9
							c-0.5,0-0.5-0.5-0.5-0.8c0-0.2,0-1.4,0-1.6v-3.1c0-0.2-0.1-0.3-0.3-0.3c0,0-0.1,0-0.2,0.1l-1.2,0.7c-0.4,0.3-0.6,0.4-0.6,0.9
							c0,0.6,0,3.6,0,4.2c0,1.2,0.3,1.5,3.4,1.5c1.4,0,2.3-0.1,2.7-0.4c0.3-0.2,0.5-0.5,0.9-2c0.1-0.2,0.2-0.6,0.2-0.6
							c0.1,0,0.2,1.5,0.3,1.7c0,0.1,0.4,0.8,0.4,0.9c0,0.6-1.3,1.3-4.3,1.3c-0.9,0-3.2-0.1-3.9-0.5c-0.6-0.4-0.7-0.8-0.7-2.1v-3.7
							c0-0.1-0.1-0.2-0.2-0.2c-0.2,0-1.3,0.8-1.3,0.8c0,0,0,0-0.1,0l-0.4-0.1c-0.1,0-0.1,0-0.1-0.1c0,0,0.9-0.5,1.1-0.6
							c0.9-0.5,1-0.6,1.1-0.8c0-0.2,0-1.4,0-2c0-1.2,0-2.1-0.1-2.7c0-0.1-0.2-0.7-0.2-0.8c0-0.1,0-0.1,0.2-0.1c0,0,1.5,0.2,1.5,0.7
							c0,0.1-0.3,0.5-0.4,0.6c-0.1,0.3-0.1,0.6-0.1,3.5c0,0.1,0.1,0.2,0.2,0.2c0.1,0,0.1,0,0.2-0.1l1.3-0.8c0.5-0.3,0.5-0.5,0.5-2.2
							c0-0.4,0-1.6-0.1-2.3c0-0.1-0.1-0.6-0.1-0.7c0-0.2,0.1-0.3,0.2-0.3c0.1,0,1.6,0.4,1.6,0.7c0,0.1,0,0.1-0.3,0.4
							c-0.2,0.2-0.2,0.4-0.2,2.9c0,0.3,0.2,0.4,0.3,0.4s0.1,0,0.2-0.1L54.9,651.3z"/>
					</g>
					<g>
						<path class="st1" d="M68.4,656.4c-0.1,0-0.3,0-0.3,0.2c0,0.4,1.3,2,1.8,2c0.3,0,1.8-1.3,1.9-1.7c0-0.1,0.1-0.1,0.2-0.1
							c0.1,0,0.1,0,0.5,0.3c0.8,0.7,0.8,0.7,0.8,0.8c0,0.2-0.2,0.2-0.6,0.2l-1.5,0.4c-0.6,0.2-0.7,0.2-0.7,0.3
							c0,0.2,0.6,0.5,0.8,0.5c1.6,0.8,2.7,0.8,3.3,0.8c0.3,0,0.4,0,0.4,0c-0.3,0.1-0.7,0.4-0.9,0.5c-0.2,0.1-1.2,0.9-1.2,0.9
							c-0.2,0-1.8-0.8-3-2c0,0-0.1-0.1-0.1-0.1c0,0,0,0-0.1,0c-0.7,0.3-6.1,1.8-6.5,2c-0.1,0-0.7,0.4-0.8,0.4c-0.1,0-0.1,0-0.2-0.3
							c-0.1-0.2-0.6-1.2-0.6-1.3c0,0,0.1-0.1,0.1-0.1c0,0,0.2,0,0.2,0c0.2,0,0.4,0.1,0.6,0.1c0.2,0,1.3-0.1,1.6-0.1
							c0.4-0.1,0.4-0.2,0.4-1.2c0-0.3,0-0.5-0.2-0.5c-0.1,0-3,1.3-3.6,1.3c-0.1,0-0.1,0-0.1,0s0.2-0.1,0.3-0.2
							c2.3-1.2,3.2-1.8,4.8-3.1c0.1-0.1,0.2-0.2,0.2-0.3c0-0.1-0.1-0.1-0.3-0.1h-2.3c-0.3,0-1.5,0-2,0c0,0-0.3,0-0.3,0
							c-0.1,0-0.1,0-0.1-0.1l-0.3-0.4c-0.1-0.1-0.1-0.1-0.1-0.1c0,0,0,0,0,0c0.1,0,0.6,0,0.7,0c0.5,0,1.3,0.1,2.2,0.1h3.3
							c0.5,0,0.5-0.3,0.5-0.5c0-1,0-1.1-0.1-1.4c0,0-0.1-0.2-0.1-0.3c0,0,0-0.1,0.1-0.1c0,0,1,0.2,1.1,0.2c0.4,0.1,0.4,0.1,0.4,0.3
							c0,0-0.2,0.3-0.2,0.3c-0.1,0.2-0.1,0.3-0.1,0.9c0,0.4,0,0.6,0.5,0.6h2.8c0.4,0,0.7,0,0.8,0c0.1-0.1,0.7-0.8,0.9-0.8
							c0.1,0,1.5,0.8,1.5,1.1c0,0.2-0.3,0.2-0.9,0.2H68.4z M62.7,651c-0.1,0-1.8,1.2-2.1,1.2c0,0,0,0,0,0s0.4-0.4,0.5-0.5
							c1.8-1.9,2.3-2.6,2.6-3.3c0.1-0.2,0.2-0.3,0.2-0.4c0,0,0-0.1,0-0.1c0,0,0,0,0.1,0s1.4,0.5,1.4,0.7c0,0.1,0,0.1-0.2,0.2
							c-0.4,0.2-1.4,1.4-1.5,1.6c0,0.1,0,0.1,0.4,0.2c0.1,0,0.4,0.1,0.4,0.3c0,0.1,0,0.1-0.2,0.3c-0.2,0.1-0.2,0.3-0.2,0.6
							c0,0.5,0.1,2.7,0.1,3.1c0,0.4-0.2,0.6-0.9,0.6c-0.2,0-0.2-0.1-0.2-0.4c0-0.1,0-0.5,0-0.5c0-0.9,0-1.7,0-3.1
							C62.8,651.2,62.8,651,62.7,651z M71,650.2c0.5-0.1,0.5-0.1,0.6-0.2c0.1-0.1,0.4-1,0.5-1c0.2,0,0.8,0.3,1.5,0.5
							c0.1,0,0.3,0.1,0.3,0.3c0,0.3-0.4,0.3-1.5,0.6l-3,0.6c-0.2,0-0.4,0.1-0.4,0.2c0,0.4,2.1,2.2,3.3,2.2c0.3,0,0.4-0.2,0.8-0.7
							c0.1-0.1,0.4-0.6,0.4-0.6c0,0,0.1,0,0.1,0.1c0,0.7,0,0.9,0.2,1.3c0,0.1,0.4,0.5,0.4,0.6c0,0.2-0.2,0.5-0.9,0.5
							c-1.3,0-3.5-0.8-5.1-2.9c-0.2-0.3-0.3-0.4-0.6-0.4c0,0-0.1,0-0.2,0l-0.4,0.1c-0.6,0.1-1.5,0.3-2,0.5c0,0-0.3,0.1-0.3,0.1
							c0,0-0.1,0-0.1-0.1l-0.4-0.3c-0.1,0-0.1-0.1-0.1-0.1c0,0,0.4-0.1,0.6-0.1c1-0.2,1.8-0.3,2.3-0.4l0.3-0.1
							c0.2,0,0.3-0.1,0.3-0.3c0,0-0.5-1.6-0.6-1.9c0-0.1-0.2-0.8-0.2-0.8c0,0-0.2-0.2-0.2-0.3c0-0.1,0.1-0.1,0.2-0.1
							c0,0,1.1,0.2,1.2,0.3c0.1,0,0.2,0.1,0.2,0.2c0,0-0.1,0.2-0.1,0.2c0,0.1-0.1,0.2-0.1,0.3c0,0.6,0.4,1.6,0.5,1.7
							c0.1,0.2,0.2,0.3,0.4,0.3c0.1,0,0.2,0,0.3,0L71,650.2z M69.4,659.6C69.5,659.6,69.5,659.6,69.4,659.6c0.1-0.1,0.1-0.1,0-0.1
							c-0.8-0.8-1.1-1.2-1.7-2.7c0-0.1-0.1-0.2-0.2-0.2c0,0-0.1,0-0.1,0c-0.1,0.1-0.5,0.4-0.6,0.5c-0.2,0.1-1.2,0.8-1.3,0.9
							c-0.2,0.2-0.2,0.3-0.2,1.6c0,0.4,0,0.6,0.5,0.6C66,660.2,69,659.7,69.4,659.6z M70.6,649.8c-0.2,0-0.3-0.1-0.4-0.4
							c-0.2-0.4-0.8-1.1-1.1-1.3c0,0-0.1,0-0.1-0.1c0,0,0,0,0.1,0c0.1,0,2.3,0.1,2,1.3C71.1,649.6,70.7,649.8,70.6,649.8z"/>
					</g>
					<g>
						<path class="st1" d="M79.6,654.9c0.5,0,1.2,0,1.6,0c0.4,0,0.4-0.1,0.4-0.2c0-0.2-0.4-1-0.4-1s0-0.1,0.1-0.1c0.2,0,1.5,1,1.5,2
							c0,0.4-0.3,0.7-0.6,0.7c-0.4,0-0.5-0.3-0.5-0.8c0-0.2,0-0.3-0.2-0.3c-0.1,0-0.7,0.1-0.7,0.2c-0.1,0.1-0.1,1.1-0.1,1.4
							c0,0.7,0.1,3.7,0.1,4.4c0,0.6-0.5,1-0.8,1c-0.3,0-0.3-0.3-0.3-0.7c0-0.7,0.1-3.9,0.1-4.6c0-0.2,0-0.9,0-1.1
							c0-0.1-0.1-0.2-0.3-0.2c-0.1,0-1.2,0.2-1.5,0.3c-0.1,0-0.4,0.3-0.5,0.3c-0.2,0-0.6-1.3-0.6-1.3c0,0,0,0,0.1,0
							c0.1,0,0.6,0.1,0.7,0.1c0.1,0,0.7,0,0.8,0c0.4,0,0.4-0.1,1-1.2c0.6-1.1,1.4-2.7,1.6-3.4c0.1-0.4,0.2-0.4,0.3-0.4
							c0,0,1.3,0.6,1.3,0.8c0,0.1,0,0.1-0.4,0.2c-0.2,0.1-0.4,0.2-0.5,0.3c-0.7,0.9-1.6,2.4-2.4,3.3c-0.1,0.1-0.1,0.2-0.1,0.2
							C79.4,654.8,79.5,654.9,79.6,654.9z M79.2,657.5c0,0.1-0.4,0.4-0.4,0.5c-0.4,0.7-0.8,1.8-1.2,2.4c0,0-0.4,0.6-0.5,0.6
							c0,0-0.1,0-0.1-0.1c0,0,0.5-1.5,0.5-1.7c0.3-1.2,0.3-2,0.3-2.1c0-0.3,0-0.3,0.1-0.3s0.5,0.2,0.6,0.2
							C79,657.2,79.2,657.3,79.2,657.5z M79.2,651.4c0.5,0.4,0.6,0.8,0.6,1c0,0.4-0.3,0.5-0.5,0.5c-0.1,0-0.2,0-0.4-0.2
							c-0.1-0.1-0.7-0.9-0.8-1.1c-0.1-0.1-0.9-0.8-0.9-0.8c0-0.1,0.1-0.1,0.1-0.1c0.2,0,0.9,0.3,1.1,0.3c0.1,0,0.1-0.1,0.4-0.6
							c0.2-0.4,0.7-1.6,0.7-2.7c0-0.1,0-0.2,0.1-0.2c0,0,1.5,0.5,1.5,0.8c0,0,0,0.1-0.1,0.2c-0.1,0-0.4,0.2-0.5,0.3
							c-0.2,0.2-0.9,1.2-1.1,1.5c-0.1,0.2-0.6,0.7-0.5,0.9C78.9,651.2,79.1,651.4,79.2,651.4z M82,656.5c-0.1-0.1-0.1-0.1-0.1-0.1
							c0,0,0,0,0,0c0.3,0,1.8,0.1,2.1,0.1c0.3,0,0.4-0.1,0.5-0.2c0.2-0.2,0.2-0.3,0.4-0.3c0.3,0,1,0.4,1,0.8c0,0.1-0.1,0.2-0.2,0.2
							c-0.3,0.1-0.3,0.1-0.4,0.3c-0.7,1.3-1,2-1.7,2.8c-1.1,1.3-2.6,1.9-2.6,1.9c0,0,0,0,0,0c0,0,0-0.1,0.1-0.1
							c1.2-1.2,1.3-1.3,1.6-1.7c1.2-1.5,1.6-2.9,1.6-2.9c0-0.1-0.1-0.1-0.5-0.1c-0.2,0-1.2,0.1-1.3,0.1c0,0-0.1,0-0.1-0.1L82,656.5z
							 M82.8,659c0,0.5-0.4,0.7-0.5,0.7c-0.4,0-0.4-0.4-0.5-1.1c0-0.2-0.1-0.5-0.4-1.2c0-0.1-0.1-0.1-0.1-0.2c0,0,0-0.1,0.1-0.1
							c0.1,0,0.5,0.3,0.7,0.5C82.2,657.8,82.8,658.4,82.8,659z M84.6,654.6c-0.2,0-0.3,0-0.5,0.2c-0.2,0.2-0.4,0.4-0.7,0.4
							c-0.4,0-0.4-0.2-0.4-0.7c0-0.5,0.1-2.8,0.1-3.3c0-0.3,0-1.6,0-1.9c0-0.1,0-0.1,0.1-0.1c0.2,0,0.9,0.5,1.1,0.5
							c0.3,0,1.3-1.8,1.3-2.1c0-0.1,0-0.2,0.1-0.2c0,0,0.8,0.4,0.9,0.4c0.2,0.1,0.4,0.2,0.4,0.4c0,0.1-0.7,0.3-0.8,0.4
							c-0.5,0.4-1.2,1-1.2,1.1c0,0.1,0,0.1,0.3,0.1h3.1c0.3,0,0.4,0,0.6-0.2c0.4-0.5,0.4-0.6,0.6-0.6c0.2,0,1.1,0.6,1.1,0.9
							c0,0.1-0.1,0.2-0.2,0.3c-0.2,0.2-0.3,0.3-0.3,0.5c0,0.2,0,1.4,0,1.7c0,0.3,0.1,1.8,0.1,1.9c0,0.7-0.8,0.8-0.8,0.8
							c-0.2,0-0.3-0.1-0.4-0.4c0-0.2-0.3-0.2-0.4-0.2h-1.8c-0.1,0-0.1,0-0.1,0.1s0,0.1,0.3,0.2c0.1,0,0.5,0.2,0.5,0.4
							c0,0.1,0,0.1-0.3,0.3c0,0-0.1,0.1-0.1,0.2c0,0.1,0.5,1,0.6,1.2c0.1,0.2,0.3,0.6,0.5,0.6c0.4,0,1.5-1.2,1.8-1.6
							c0,0,0.2-0.2,0.2-0.2c0.1,0,1.1,0.9,1.1,1.1c0,0.1,0,0.1-0.1,0.1c-0.1,0-0.4,0-0.4,0c-0.5,0-0.8,0.2-2.2,0.8
							c-0.3,0.1-0.3,0.1-0.3,0.2c0,0.2,1.1,1.8,2.8,2.8c0.5,0.3,0.6,0.3,0.6,0.4c0,0,0,0-0.3,0.1c-0.2,0-0.6,0.1-0.9,0.2
							c-0.1,0-0.4,0.2-0.5,0.2c-0.1,0-1.8-1.9-2.7-4.1c-0.1-0.1-0.4-1-0.4-1c0,0,0,0.5,0,0.5c0,0.2,0,2.7,0,3c0,1,0,1.3-0.4,1.6
							c-0.3,0.2-0.9,0.4-1.2,0.4c-0.1,0-0.1,0-0.2-0.1c-0.1-0.3-0.2-0.4-0.3-0.5c-0.1-0.1-0.6-0.5-0.6-0.5c0,0,0,0,0.5,0
							c1.2,0,1.3-0.2,1.3-1.3c0-0.7,0-4.1-0.1-4.6c-0.1-0.4-0.2-0.5-0.6-0.5H84.6z M84.7,650.3c-0.2,0-0.4,0-0.5,0.3v0.9
							c0,0.4,0.3,0.4,0.5,0.4h4.2c0.5,0,0.5-0.1,0.5-1.2c0-0.4-0.3-0.4-0.5-0.4H84.7z M84.7,652.4c-0.2,0-0.5,0-0.5,0.4
							c0,1.4,0,1.4,0.5,1.4h4.2c0.1,0,0.4,0,0.4-0.4c0-1.3,0-1.4-0.5-1.4H84.7z"/>
					</g>
					<g>
						<path class="st1" d="M101.9,647.7c0.3,0,0.4,0.1,0.4,0.3s-0.1,0.4-0.4,0.4h-3.8c-0.4,0-0.4,0.1-0.4,2c0,1.8,0,9.7,0,11.4
							c0,0.4-0.1,0.5-0.3,0.5c-0.4,0-0.4-0.1-0.4-1.1v-12.9c0-0.4,0.3-0.7,0.7-0.7H101.9z"/>
					</g>
					<g>
						<path class="st1" d="M109.5,653c-0.2,0-0.4,0.2-0.8,0.7c-0.9,1.2-2,2.7-3.4,3.8c-0.2,0.2-0.7,0.5-0.9,0.5c0,0-0.1,0-0.1,0
							c0,0,0.8-1,1-1.2c0.3-0.4,1.9-2.6,2.6-4.4c0.2-0.5,0.2-0.6,0.3-0.6c0.2,0,1.3,0.6,1.5,0.7c0.2,0.1,0.3,0.3,0.2,0.4
							C109.9,653,109.8,653,109.5,653z M113.1,648.4c0,0.1-0.1,0.2-0.3,0.4c-0.1,0.1-0.2,0.3-0.2,0.6c0,0.9-0.1,1.9-0.1,2.9
							c0,1.4,0,6.9,0,7.5c0,0.5,0,1.2-0.7,1.8c-0.4,0.3-0.9,0.4-1.1,0.4c-0.1,0-0.1,0-0.3-0.5c-0.2-0.5-0.4-0.6-1.1-1
							c-0.2-0.1-0.3-0.2-0.3-0.3c0-0.1,0.1-0.1,0.2-0.1c0.2,0,1,0.1,1.2,0.1c0.4,0,0.8-0.1,0.9-0.5c0.1-0.4,0.1-4.5,0.1-5.2
							c0-2.9-0.1-5-0.1-6.1c0-0.1-0.1-0.5-0.1-0.6s0.1-0.1,0.2-0.1c0.1,0,0.6,0.1,0.8,0.1C112.6,648,113.1,648.1,113.1,648.4z
							 M118.2,657.8c-0.4,0-0.4,0-1.1-1.3c-0.8-1.5-1.9-3-2.7-3.7c-0.1-0.1-0.3-0.3-0.3-0.4c0-0.1,0.1-0.1,0.1-0.1
							c0.4,0,4.5,2.4,4.5,4.6C118.8,657,118.8,657.8,118.2,657.8z"/>
					</g>
					<g>
						<path class="st1" d="M132,652.6c0.8,0,0.8,0,1.1-0.4c0.3-0.5,0.4-0.6,0.6-0.6c0.2,0,1.3,1.1,1.3,1.2c0,0.2-0.3,0.2-0.8,0.2
							h-4.2c-0.4,0-0.4,0.3-0.4,0.5c0,0.2,0,2.1,0,2.2c0.1,0.2,0.3,0.2,0.4,0.2h3c0.8,0,0.8,0,1-0.3c0.5-0.7,0.6-0.8,0.8-0.8
							c0.3,0,1.4,1.1,1.4,1.2c0,0.2-0.3,0.2-0.8,0.2h-5.3c-0.4,0-0.5,0.2-0.5,0.5c0,0.5,0,2.7,0,3.2c0,0.5,0,1.1-0.7,1.7
							c-0.4,0.3-0.8,0.4-1.1,0.4c-0.3,0-0.3,0-0.3-0.5c-0.1-0.4-0.6-0.7-1.2-0.9c0,0-0.1-0.1-0.1-0.1c0-0.1,0.1-0.1,0.1-0.1
							c1.7,0,1.8,0,2-0.2c0.1-0.2,0.2-0.4,0.2-3.4c0-0.2,0-0.5-0.4-0.5h-3.5c-1.4,0-1.9,0-2,0c0,0-0.3,0-0.3,0c-0.1,0-0.1,0-0.1-0.1
							l-0.3-0.4c-0.1-0.1-0.1-0.1-0.1-0.1c0,0,0,0,0.1,0c0.1,0,0.6,0.1,0.7,0.1c0.8,0,1.4,0,2.2,0h3.4c0.1,0,0.3,0,0.4-0.2
							c0-0.1,0-2,0-2.2c0-0.2,0-0.5-0.5-0.5h-2.5c-1.4,0-1.9,0-2,0c0,0-0.3,0-0.3,0c-0.1,0-0.1,0-0.1-0.1l-0.3-0.4
							c0,0-0.1-0.1-0.1-0.1c0,0,0,0,0.1,0c0.1,0,0.6,0.1,0.7,0.1c0.8,0,1.4,0,2.2,0h2.4c0.4,0,0.4-0.3,0.4-0.5c0-2.3,0-2.4-0.6-2.4
							c-0.2,0-2,0.1-2.3,0.1c-0.3,0-2.5,0-2.5-0.2c0,0,0.5-0.1,0.7-0.1c2.2-0.2,5.5-0.5,7.3-1.2c0.4-0.1,0.5-0.2,1-0.5
							c0,0,0.1,0,0.2,0c0.1,0,0.8,0.5,0.9,0.6c0.5,0.4,0.6,0.4,0.6,0.5c0,0.3-0.2,0.3-1.4,0.4c-0.4,0-2.1,0.2-2.4,0.3
							c-0.3,0.1-0.3,0.3-0.3,1.7c0,1.1,0,1.3,0.5,1.3H132z"/>
					</g>
					<g>
						<path class="st1" d="M142.4,651.9c-0.2,0-0.3,0-0.4,0.1c-0.1,0.1-0.1,2-0.1,2.2c0,0.2,0,0.4,0.2,0.4c0.3,0,1.7-0.6,1.8-0.6
							c0,0,0.1,0,0.1,0.1c0,0.2-0.9,0.6-1.6,1c-0.3,0.2-0.5,0.3-0.5,0.9c0,0.4,0.1,3.7,0.1,4.2c0,1.7-1.4,1.9-1.6,1.9
							c-0.1,0-0.1-0.1-0.2-0.3c-0.1-0.4-0.4-0.6-0.8-0.9c0,0-0.5-0.3-0.5-0.3c0,0,0.1,0,0.1,0c0.4,0,1.2,0,1.3,0
							c0.4,0,0.4-0.1,0.5-0.4c0-0.8,0.1-1.4,0.1-2.4c0-0.2,0-1.3,0-1.5c0-0.2,0-0.3-0.1-0.3c-0.2,0-1.5,0.8-1.6,0.8
							c-0.1,0-0.3-0.4-0.4-0.6c0,0-0.4-0.6-0.4-0.6c0-0.1,0-0.1,0.4-0.1c0.5,0,1.6-0.4,1.8-0.4c0.3-0.1,0.3-0.2,0.3-0.8
							c0-0.2,0-1.3,0-1.5c0-0.8,0-0.9-0.5-0.9c-0.4,0-1.1,0-1.5,0.1c0,0-0.2,0-0.2,0c0,0-0.1,0-0.1-0.1l-0.3-0.4c0-0.1,0-0.1,0-0.1
							c0,0,0,0,0,0c0.1,0,0.4,0,0.5,0c0.1,0,1.4,0.1,1.6,0.1c0.3,0,0.5,0,0.5-0.5c0-0.1,0-2.5,0-2.6c0-0.1-0.1-0.6-0.1-0.7
							c0-0.1,0-0.1,0.1-0.1c0,0,1.5,0.3,1.5,0.6c0,0.1-0.3,0.3-0.3,0.4c-0.1,0.3-0.1,0.5-0.1,2.4c0,0.4,0.1,0.5,0.5,0.5
							c0.1,0,0.2,0,0.5-0.3c0.4-0.5,0.4-0.5,0.5-0.5c0.2,0,0.9,0.9,0.9,1c0,0.2-0.1,0.2-0.7,0.2H142.4z M151.7,649.6
							c0,0.2-0.2,0.2-0.7,0.3c-0.7,0.1-4.1,0.7-4.9,0.7c-0.4,0-0.5,0.2-0.5,0.6c0,1,0,1.1,0.2,1.2c0.4,0.2,1.4,0.2,2.6,0.2
							c2.5,0,2.9-0.3,3.2-1c0.1-0.2,0.3-1.1,0.4-1.1c0.1,0,0.3,1.1,0.4,1.3c0,0.1,0.3,0.5,0.3,0.7c0,0.4-0.8,0.8-1.3,0.9
							c-0.5,0.1-2.5,0.2-3.2,0.2c-2.8,0-3.5-0.3-3.6-1c0-0.2,0-1.6,0-2.5c0-0.3-0.1-1.9-0.1-2.2c0-0.1,0-0.1,0.1-0.1
							c0.2,0,0.9,0.1,1,0.1c0.2,0,0.4,0.1,0.4,0.3c0,0.1-0.3,0.3-0.4,0.4c-0.1,0.1-0.1,1.1-0.1,1.3c0,0.4,0,0.5,0.2,0.5
							c0.5,0,2.5-0.8,3.3-1.2c0.2-0.1,1-0.8,1-0.8C150.3,648.3,151.7,649.4,151.7,649.6z M146.6,660.9c-0.4,0-0.4,0.3-0.4,0.5
							c0,0.5-0.4,0.7-0.8,0.7c-0.4,0-0.4-0.4-0.4-0.5c0-0.1,0-0.6,0-0.7c0-0.6,0-1.1,0-1.7c0-1.2,0-2.4,0-3.6c0-0.1,0-0.5,0-0.6
							c0-0.1,0-0.3,0.1-0.3c0.1,0,0.7,0.3,0.8,0.4c0.2,0.1,0.4,0.1,0.7,0.1h3.5c0.1,0,0.2,0,0.4-0.1c0.1-0.1,0.6-0.5,0.7-0.5
							c0.3,0,1,0.6,1,0.8c0,0.1-0.1,0.2-0.2,0.4c-0.2,0.2-0.2,0.3-0.2,1.1c0,1.8,0,2.4,0,2.8c0,0.1,0.1,1.3,0.1,1.4
							c0,0.6-0.6,0.8-0.8,0.8c-0.4,0-0.4-0.3-0.4-0.5c0-0.2,0-0.5-0.4-0.5H146.6z M150,657.7c0.3,0,0.5-0.1,0.5-0.4
							c0-1.7,0-1.7-0.5-1.7h-3.5c-0.3,0-0.4,0.1-0.4,0.3c0,0,0,1.3,0,1.4c0,0.3,0.1,0.4,0.4,0.4H150z M150,660.5
							c0.4,0,0.5,0,0.5-1.8c0-0.3-0.1-0.5-0.5-0.5h-3.5c-0.4,0-0.4,0.3-0.4,0.3v1.6c0,0.2,0,0.5,0.4,0.5H150z"/>
					</g>
					<g>
						<path class="st1" d="M155.4,662.1c-0.3,0-0.4-0.1-0.4-0.3s0.1-0.4,0.4-0.4h3.8c0.4,0,0.4-0.1,0.4-2c0-1.8,0-9.7,0-11.4
							c0-0.4,0.1-0.5,0.3-0.5c0.3,0,0.3,0.1,0.3,1.1v12.9c0,0.4-0.2,0.7-0.7,0.7H155.4z"/>
					</g>
					<g>
						<path class="st1" d="M166.9,659.6c0,0.3,0,1.4-0.6,1.4c-0.3,0-0.5-0.3-0.5-0.6c0-0.1,0.2-0.8,0.2-0.9c0.1-0.4,0.2-1,0.2-1.4
							c0-0.7,0-0.7,0.1-0.7c0,0,0.1,0,0.1,0C166.6,657.6,166.9,658.7,166.9,659.6z M170.7,655.4c0.4,0,0.4,0,0.6-0.2
							c0.2-0.2,0.3-0.3,0.4-0.3c0.2,0,1,0.6,1,0.8c0,0.1,0,0.1-0.3,0.5c0,0.1-0.1,0.2-0.1,0.5c0,0.2-0.1,1.8-0.5,3.2
							c-0.4,1.4-1.6,2-1.9,2c-0.1,0-0.2,0-0.4-0.4c-0.1-0.1-0.2-0.3-0.3-0.4c0,0-0.3-0.2-0.3-0.3c0-0.1,0.2-0.1,0.3-0.1
							c1.1,0,1.3-0.5,1.4-0.6c0.5-1,0.8-3.3,0.8-4c0-0.4-0.3-0.4-0.5-0.4H168c-0.1,0-0.3,0-0.3,0.1c-0.2,0.3-0.3,0.4-0.7,0.4
							c-0.4,0-0.5-0.1-0.5-0.5c0-0.3,0.1-3.6,0.1-4.2c0-0.6,0-2.1-0.1-2.7c0-0.1-0.1-0.6-0.1-0.8c0-0.1,0-0.1,0-0.1
							c0.1,0,0.8,0.3,1,0.4c0.2,0.1,0.4,0.1,0.7,0.1h1.8c0.7,0,0.8,0,1-0.3c0.2-0.4,0.3-0.5,0.5-0.5c0.2,0,1.2,0.8,1.2,1
							c0,0.2-0.3,0.2-0.9,0.2h-1.5c-0.5,0-0.5,0.1-0.5,1c0,0.6,0,0.8,0.4,0.8c0.3,0,0.4,0,0.6-0.3c0.1-0.2,0.3-0.5,0.5-0.5
							c0.2,0,1,0.8,1,1c0,0.2-0.3,0.2-0.7,0.2h-1.3c-0.5,0-0.5,0.1-0.5,1.3c0,0.4,0.4,0.4,0.5,0.4c0.2,0,0.3,0,0.5-0.3
							c0.1-0.2,0.2-0.5,0.5-0.5s1,0.8,1,1c0,0.2-0.3,0.2-0.8,0.2h-1.1c-0.5,0-0.5,0.1-0.5,1.4c0,0.4,0.2,0.4,0.5,0.4H170.7z
							 M168.6,659.7c0,0.5-0.3,0.7-0.5,0.7c-0.4,0-0.5-0.4-0.5-1c0-0.4-0.1-0.9-0.2-1.4c0-0.1,0-0.3,0-0.4c0-0.1,0.1-0.2,0.2-0.1
							C168,657.6,168.6,659.2,168.6,659.7z M168.6,650.9c0.5,0,0.5-0.3,0.5-0.9c0-0.7,0-0.9-0.5-0.9h-0.5c-0.5,0-0.5,0.2-0.5,0.9
							s0,0.9,0.5,0.9H168.6z M168.6,653.1c0.5,0,0.5-0.2,0.5-0.9c0-0.7,0-0.9-0.5-0.9h-0.5c-0.5,0-0.5,0.2-0.5,0.9
							c0,0.6,0,0.9,0.5,0.9H168.6z M168.5,655.4c0.5,0,0.5-0.2,0.5-0.9c0-0.7,0-0.9-0.5-0.9h-0.4c-0.5,0-0.5,0.2-0.5,0.9
							c0,0.7,0,0.9,0.5,0.9H168.5z M169.3,659.5c-0.2,0-0.2-0.2-0.3-0.8c0-0.3-0.1-0.7-0.2-1.2c0-0.1-0.1-0.5-0.1-0.6
							c0-0.1,0-0.2,0.1-0.2c0.2,0,1,0.9,1,1.7C169.8,659.2,169.5,659.5,169.3,659.5z M170.9,658c0,0.3-0.1,0.5-0.4,0.5
							c-0.3,0-0.3-0.1-0.4-1c0-0.2-0.1-0.5-0.2-0.7c0-0.1,0-0.1,0-0.2c0-0.1,0-0.1,0.1-0.1C170.2,656.5,170.9,657.3,170.9,658z
							 M178,648.7c0.2,0,0.3,0,0.4-0.2c0.2-0.3,0.4-0.5,0.5-0.5c0.1,0,1,0.7,1,0.9c0,0.1-0.3,0.6-0.4,0.7c0,0.2,0,1.6,0,1.9
							c0,0.3,0,1.8,0,2.1c0,0.4-0.4,0.7-0.8,0.7c-0.3,0-0.4-0.2-0.4-0.5c0-0.2,0-0.3-0.4-0.3h-0.6c-0.1,0-0.4,0-0.4,0.4
							c0,0.1,0,0.2,0,0.3c0.2,1.5,0.8,4.4,2.6,6.2c0.2,0.1,1,0.9,1,0.9c0,0.1-0.1,0.1-0.2,0.1s-0.3,0-0.4,0c-0.2,0-0.5,0-0.9,0.1
							c-0.1,0-0.4,0.1-0.4,0.1c-0.1,0-0.2-0.2-0.2-0.2c-1.6-2.6-1.9-4.6-2-7.2c0-0.6-0.1-0.7-0.5-0.7h-0.9c-0.5,0-0.5,0.1-0.5,1
							c0,2.2-0.6,4.9-1.9,6.6c-0.1,0.2-0.8,1-0.9,1c-0.1,0-0.1,0-0.1-0.1c0-0.1,0.5-0.8,0.6-1c1.4-2.6,1.4-6,1.4-7.3
							c0-0.8,0-3.1-0.2-4.6c0-0.1-0.1-0.5-0.1-0.7c0,0,0-0.2,0.1-0.2c0.2,0,0.9,0.3,1,0.4c0.1,0,0.4,0.1,0.7,0.1H178z M175,649.1
							c-0.2,0-0.4,0.1-0.4,0.2c-0.1,0.2-0.1,2.8-0.1,3.2c0,0.3,0,0.6,0.5,0.6h2.9c0.1,0,0.3,0,0.4-0.2c0.1-0.2,0.1-2.9,0.1-3.2
							c0-0.4-0.1-0.6-0.5-0.6H175z"/>
					</g>
					<g>
						<path class="st1" d="M186.9,648.3c0,0-0.1-0.2-0.1-0.2c0-0.1,0.3-0.1,0.4-0.1c0.4,0,1.3,0.4,1.3,0.7c0,0.2-0.4,0.7-0.4,0.8
							c-0.1,0.3-0.2,0.8-0.2,1c0,0,0,0.1,0.1,0.1c0,0,0.1,0,0.4-0.1c0.1,0,0.4-0.1,0.6-0.1c0.2,0,0.5,0,0.5,0.3
							c0,0.6-1.1,0.9-1.5,1.1c-0.1,0-0.2,0-0.2,0.3c0,0-0.1,0.9-0.1,1.6c0,0.4,0,0.5,0.2,0.5c0.2,0,1.3-0.3,1.3-0.8
							c0,0-0.1-0.2-0.1-0.3c0,0,0,0,0.1,0c0.1,0,0.4,0.1,0.5,0.1c0.7,0,1.1,0.1,1.1,0.4c0,0.6-1.8,1.3-2.5,1.5
							c-0.5,0.2-0.5,0.2-0.5,0.4c0,0.3,0.2,2.1,0.2,2.3c0.1,0.5,0.1,0.6,0.4,0.7c1.2,0.5,2.3,1.4,2.3,2.1c0,0.4-0.3,0.7-0.5,0.7
							c-0.2,0-0.3-0.1-0.9-0.8c-0.3-0.4-0.9-0.9-1.1-0.9c-0.1,0-0.1,0.1-0.2,0.3c-0.3,0.8-1.4,1.6-2.7,1.6c-1.5,0-2-1.1-2-1.7
							c0-1,1-1.7,2.9-1.7c0.1,0,0.7,0,0.8,0c0.2,0,0.2,0,0.2-0.6c0-0.3,0-1.4,0-1.8c0-0.1,0-0.2-0.2-0.2c-0.2,0-1.2,0.1-1.4,0.1
							c-0.4,0-1.5,0-2.2-0.7c-0.2-0.2-0.5-0.6-0.5-0.7c0,0,0-0.1,0-0.1c0.1,0,0.5,0.2,0.6,0.2c0.7,0.2,1.4,0.3,1.9,0.3
							c0.4,0,1.5,0,1.6-0.3c0,0,0.1-2.1,0.1-2.2c0-0.1-0.1-0.1-0.3-0.1c-1.1-0.1-2.1-0.9-2.1-1.5c0,0,0-0.1,0.1-0.1
							c0,0,0.4,0.2,0.4,0.3c0.7,0.4,1.3,0.4,1.6,0.4c0.3,0,0.5-0.1,0.5-0.2c0-0.2,0.1-1.1,0.1-1.4C187.2,649,187,648.5,186.9,648.3z
							 M185.3,658.7c0,0-1.7,0-1.7,0.9c0,0.6,0.8,0.8,1.3,0.8c0.5,0,1.2-0.3,1.6-0.6c0.3-0.3,0.4-0.6,0.4-0.8
							C186.7,658.7,185.6,658.7,185.3,658.7z"/>
					</g>
					<g>
						<path class="st1" d="M194.1,651.6c0.7,0,0.9-0.1,3.1-0.7c1.4-0.4,5.1-1.4,6.1-1.4c0.6,0,1.3,0.2,1.3,0.8
							c0,0.4-0.4,0.6-0.7,0.6c-0.2,0-1.1-0.2-1.3-0.2c-2,0-4.3,1.9-4.3,6c0,2.7,1,2.9,2,2.9c0.2,0,1.4-0.1,1.5-0.1
							c0.5,0,0.8,0.2,0.8,0.6c0,0.8-1.8,0.8-1.9,0.8c-3.3,0-3.3-2.7-3.3-3.4c0-0.7,0-4.1,2.3-6.2c0.1,0,0.4-0.3,0.4-0.3
							c0,0-0.1,0-0.1,0c-0.9,0-4.2,1.4-4.8,1.7c-0.2,0.1-0.4,0.2-0.5,0.2c-0.8,0-1.6-1.1-1.4-1.3C193.5,651.4,194,651.6,194.1,651.6
							z M204.3,655.1c0,0.4-0.3,0.7-0.6,0.7c-0.3,0-0.4-0.3-0.7-0.9c-0.2-0.4-0.3-0.6-0.8-1.2c0-0.1-0.2-0.2-0.2-0.3
							c0-0.1,0.2-0.1,0.3-0.1C203.8,653.6,204.3,654.6,204.3,655.1z M206.3,654.3c0,0.4-0.3,0.6-0.5,0.6c-0.4,0-0.6-0.5-0.7-0.8
							c-0.1-0.4-0.6-0.9-1.1-1.3c-0.1-0.1-0.1-0.1-0.1-0.2c0-0.1,0.2-0.1,0.2-0.1c0.1,0,0.3,0,0.4,0.1
							C205.4,652.9,206.3,653.6,206.3,654.3z"/>
					</g>
					<g>
						<path class="st1" d="M209.6,654.7c0,0,0-0.2-0.1-0.2c0,0-1.9,1.3-2.1,1.3c0,0,0,0,0,0c0,0,0.6-0.7,0.7-0.8
							c0.2-0.2,2.4-2.7,2.9-3.8c0.1-0.2,0.2-0.4,0.3-0.4c0,0,1.3,0.8,1.3,1.2c0,0.1,0,0.1-0.4,0.2c-0.2,0.1-1.6,1.2-1.6,1.3
							c0,0.1,0.1,0.1,0.1,0.1c0.3,0.1,0.4,0.1,0.4,0.3c0,0,0,0.1,0,0.1c0,0.1-0.3,0.3-0.3,0.4c-0.1,0.2-0.1,1.9-0.1,2.3
							c0,0.6,0.1,3.6,0.1,4.3c0,0.9-0.7,1-0.8,1c-0.5,0-0.5-0.4-0.5-0.6c0-0.1,0.1-0.9,0.1-1.1c0.1-1.2,0.1-1.8,0.1-3.6
							C209.6,655.9,209.6,654.9,209.6,654.7z M212.7,648.7c0,0.1-0.1,0.1-0.5,0.2c-0.3,0-0.5,0.2-0.8,0.4c-1.6,1.1-2,1.5-3.2,2
							c-0.2,0.1-0.2,0.1-0.2,0.1c0,0,0,0,0,0s0.9-0.9,1.1-1c0.9-0.8,1.6-1.6,2.2-2.6c0.1-0.2,0.2-0.3,0.3-0.3
							C211.6,647.5,212.7,648.5,212.7,648.7z M215.1,653.5c-0.4,0-1.5,0-2,0c-0.1,0-0.3,0-0.4,0c0,0-0.1,0-0.1-0.1l-0.3-0.4
							c-0.1-0.1-0.1-0.1-0.1-0.1s0,0,0.1,0c0.1,0,0.6,0,0.7,0c0.7,0,1.4,0.1,2.2,0.1h0.8c0.4,0,0.5-0.1,0.5-1.8
							c0-0.8-0.1-0.8-0.8-0.8c-0.4,0-1.5,0-2,0c-0.1,0-0.3,0-0.3,0c-0.1,0-0.1,0-0.1-0.1l-0.3-0.4c0-0.1-0.1-0.1-0.1-0.1
							c0,0,0,0,0.1,0c0.1,0,0.8,0.1,1,0.1c1.2,0,1.2,0,2,0c0.1,0,0.5,0,0.5-0.4c0-0.4,0-1.1-0.1-1.2c0-0.1-0.1-0.5-0.1-0.6
							c0-0.1,0.1-0.2,0.2-0.2c0,0,1.5,0.2,1.5,0.6c0,0.1,0,0.1-0.3,0.3c-0.1,0.1-0.1,0.2-0.1,0.7c0,0.5,0,0.8,0.5,0.8h0.7
							c0.7,0,0.8,0,1.1-0.4c0.3-0.5,0.4-0.5,0.5-0.5c0.2,0,1.3,0.8,1.3,1c0,0.2-0.3,0.2-0.9,0.2h-2.6c-0.4,0-0.5,0.1-0.5,0.6
							c0,0.2,0,1.1,0,1.2c0,0.5,0,0.7,0.5,0.7h1.3c0.7,0,0.8,0,1-0.3c0.3-0.4,0.4-0.6,0.5-0.6c0.3,0,1.3,0.8,1.3,1.1
							c0,0.2-0.3,0.2-0.8,0.2h-3.7c-0.1,0-0.1,0-0.1,0.1c0,0,0,0.1,0.1,0.1c0.1,0,0.2,0.1,0.2,0.2c0,0.1-0.2,0.3-0.2,0.4
							c0,0.1-0.1,0.3-0.1,0.8c0,1.4,0,1.4,0.5,1.4h1.2c0.7,0,0.8,0,1.1-0.4c0.3-0.5,0.3-0.5,0.5-0.5c0.2,0,1.3,0.8,1.3,1.1
							c0,0.2-0.3,0.2-0.9,0.2H218c-0.5,0-0.5,0.2-0.5,0.5v2.1c0,0.6,0.1,0.8,1,0.8c1.7,0,2.9-0.3,3.5-0.4c0.1,0,0.6-0.2,0.6-0.2
							c0,0,0,0,0,0c0,0-0.2,0.3-0.3,0.3c-0.5,0.6-0.6,0.8-0.6,1c0,0.2,0,0.3-0.2,0.4c-0.2,0.1-1.3,0.1-2,0.1c-3,0-4.4-0.8-5.5-2.5
							c-0.1-0.1-0.2-0.3-0.3-0.3c-0.1,0-0.2,0.1-0.3,0.4c-0.7,1.3-1.3,1.9-1.5,2.2c-0.3,0.3-0.8,0.6-0.8,0.6c0,0,0,0,0,0
							c0,0,0.4-0.6,0.4-0.7c0.8-1.3,1.6-3.1,1.6-5.6c0-0.8,0-0.8,0.2-0.8c0,0,0.6,0.1,0.8,0.2c0.5,0.2,0.6,0.2,0.6,0.3
							c0,0.1-0.3,0.4-0.3,0.5c-0.1,0.2-0.2,1.1-0.2,1.2c0,0.1-0.2,0.9-0.2,1c0,0.6,1.4,1.8,2,1.8c0.1,0,0.3,0,0.3-0.3
							c0-0.1,0.1-2.8,0.1-3c0-0.6,0-2.2-0.1-2.6c-0.1-0.4-0.3-0.4-0.6-0.4H215.1z"/>
					</g>
					<g>
						<path class="st1" d="M229.9,655.9c0,0.1-0.1,0.2-0.3,0.2c-0.3,0-0.5,0.2-0.7,0.4c-0.9,0.9-1.9,1.7-3.3,2.4
							c-0.1,0-0.6,0.2-0.7,0.2c0,0-0.1,0-0.1,0c0-0.1,1.2-1,1.4-1.1c1.5-1.6,1.8-2,2.1-3c0,0,0.1-0.2,0.2-0.2c0,0,0.3,0.1,0.7,0.4
							C229.8,655.7,229.9,655.8,229.9,655.9z M230.9,653.8c0.4,0,0.5-0.2,0.5-0.5c0-0.9,0-1.8,0-2.7c0-1,0-1.6-0.1-2.1
							c0-0.1-0.2-0.7-0.2-0.8c0-0.1,0.2-0.2,0.3-0.2c0.5,0,1.5,0.3,1.5,0.6c0,0.1-0.3,0.3-0.3,0.4c-0.1,0.1-0.1,0.3-0.1,1.5
							c0,0.3,0,0.6,0.5,0.6h1.7c0.6,0,0.7,0,0.8-0.1s0.5-0.9,0.7-0.9c0.2,0,1.3,1,1.3,1.3c0,0.2-0.1,0.2-0.9,0.2h-3.6
							c-0.5,0-0.5,0.3-0.5,0.5v1.7c0,0.5,0.2,0.5,0.5,0.5h2.9c0.2,0,0.7,0,0.8-0.1c0.2-0.1,0.8-1,1-1c0.2,0,1.3,1.1,1.3,1.2
							c0,0.2-0.3,0.2-0.8,0.2h-5.9c0,0-0.1,0-0.1,0.1c0,0,0,0,0.4,0.2c0.3,0.1,0.4,0.2,0.4,0.4c0,0.1,0,0.1-0.2,0.3
							c-0.3,0.2-0.3,1-0.3,1.3c0,0.1,0,1.6,0,1.8c0,0.8-0.3,1.2-0.7,1.5c-0.3,0.2-0.7,0.3-0.9,0.3c-0.1,0-0.1,0-0.2,0
							c-0.1,0-0.3-0.5-0.4-0.6c-0.1-0.1-0.8-0.6-0.8-0.6c0,0,0.1-0.1,0.1-0.1c0,0,0.8,0,0.9,0c0.9,0,1-0.2,1-0.7c0-0.5,0-1.1,0-1.6
							c0-2-0.1-2.2-0.6-2.2h-3.1c-0.3,0-1.5,0-2,0c0,0-0.3,0-0.4,0c0,0-0.1,0-0.1-0.1l-0.3-0.4c-0.1-0.1-0.1-0.1-0.1-0.1
							c0,0,0,0,0.1,0c0.3,0,1.9,0.1,2.3,0.1c0.4,0,0.4-0.2,0.4-0.5V651c0-0.4,0-1.2-0.1-1.6c0-0.1-0.1-0.4-0.1-0.5
							c0-0.1,0-0.1,0.1-0.1c0,0,1.6,0.2,1.6,0.5c0,0,0,0.1,0,0.1c0,0-0.3,0.3-0.3,0.3c-0.1,0.2-0.1,0.5-0.1,3.5
							c0,0.5,0.1,0.6,0.5,0.6H230.9z M236.5,658.4c0,0.2-0.1,0.2-0.4,0.3c-0.3,0-0.4,0.1-1.2,0.8c-3.1,2.5-6.5,2.5-8,2.5
							c-0.2,0-1.2,0-1.2-0.1c0,0,0.4-0.1,0.6-0.1c4-0.6,6.2-1.5,7.8-3c0.2-0.2,0.5-0.5,0.8-1.3c0.1-0.2,0.1-0.2,0.2-0.2
							c0.1,0,0.2,0.1,0.7,0.5C236.4,658.1,236.5,658.3,236.5,658.4z M238.6,657.9c0,0.4-0.3,0.5-0.6,0.5c-0.4,0-0.6-0.2-0.9-0.8
							c0-0.1-1-1.3-2.2-2.3c-0.2-0.2-0.3-0.2-0.3-0.3c0-0.1,0.1-0.1,0.2-0.1c0.3,0,1,0.2,1.3,0.4
							C237.7,656.1,238.6,657.2,238.6,657.9z"/>
					</g>
					<g>
						<path class="st1" d="M241.1,653.1c0-2,1.3-4.1,3.4-4.1c2.5,0,3.7,3,3.7,5.5c0,3.5-2.2,6.8-4.5,6.8c-1,0-2.1-0.7-2.1-1.6
							c0-0.5,0.4-0.9,0.9-0.9c0.8,0,0.8,0.7,0.8,1.3c0,0.2,0,0.7,0.7,0.7c0.3,0,1.3-0.2,2.1-1.9c0.4-0.8,0.6-2.1,0.6-2.9
							c0-0.1,0-0.3-0.1-0.3c-0.1,0-0.2,0.1-0.3,0.2c-0.8,0.8-1.4,0.9-2.1,0.9C242.9,656.7,241.1,655.5,241.1,653.1z M246.8,653.9
							c0-1.2-0.5-4.4-2.2-4.4c-1.3,0-2,1.8-2,3.4c0,2.1,1,3.1,2.1,3.1C245.3,656,246.8,655.5,246.8,653.9z"/>
					</g>
					<g>
						<path class="st1" d="M256.2,649.7c0,0.2-0.1,0.2-0.4,0.3c-0.2,0-0.4,0.5-0.8,1.1c-1.9,3.1-4.4,4.4-4.8,4.4
							c-0.1,0-0.1,0-0.1-0.1c0-0.1,0-0.1,0.3-0.4c2.2-1.7,3.4-4.4,3.6-4.8c0.1-0.2,0.5-1.6,0.5-1.6
							C254.7,648.6,256.2,649.4,256.2,649.7z M257.7,654.4c-0.4,0-0.4,0-0.5,0.9c-0.1,1.4-0.4,4.2-3.2,5.7c-1.3,0.7-3,1-3.1,1
							c0,0-0.2,0-0.2-0.1c0-0.1,0.1-0.1,0.4-0.2c1.1-0.4,2.4-1.2,3.2-1.9c1.2-1.2,1.8-3.4,1.8-5c0-0.4-0.2-0.4-0.4-0.4h-0.5
							c-0.6,0-1.4,0-1.6,0c-0.1,0-0.3,0-0.3,0c-0.1,0-0.1,0-0.1-0.1l-0.3-0.4c0-0.1-0.1-0.1-0.1-0.1c0,0,0,0,0.1,0
							c0.1,0,0.6,0.1,0.7,0.1c0.8,0,1.4,0,2.2,0h3.5c0.7,0,0.8,0,1.1-0.3c0.2-0.3,0.4-0.4,0.5-0.4c0.3,0,1.2,0.7,1.2,1.1
							c0,0.1-0.3,0.4-0.3,0.4c-0.1,0.2-0.2,2-0.2,2.4c-0.2,1.9-0.3,3.2-0.8,4c-0.4,0.7-1.4,1-1.6,1c-0.2,0-0.2,0-0.3-0.5
							c-0.1-0.4-0.6-0.6-1.5-0.8c-0.4-0.1-0.5-0.2-0.5-0.3c0-0.1,0.1-0.1,0.2-0.1c0.1,0,0.5,0.1,0.6,0.1c0.8,0.1,0.9,0.1,1.1,0.1
							c0.8,0,1.2-0.1,1.4-1.8c0.2-1.2,0.3-3.1,0.3-3.9c0-0.4,0-0.6-0.5-0.6H257.7z M258.5,649.2c-0.4,0-0.9,0-1.3,0c0,0-0.3,0-0.3,0
							c0,0-0.1,0-0.1-0.1l-0.3-0.4c0,0,0-0.1,0-0.1c0,0,0,0,0,0c0.1,0,0.6,0.1,0.7,0.1c0.2,0,0.8,0,1,0c0.4,0,0.6-0.3,0.7-0.4
							c0.3-0.4,0.4-0.5,0.5-0.5c0.2,0,1.4,0.8,1.4,1.2c0,0.2,0,0.2-0.5,0.3c-0.1,0-0.3,0.1-0.3,0.3c0,0.8,2.1,3.4,4.8,3.6
							c0,0,0.2,0,0.2,0.1c0,0.1-0.4,0.2-0.5,0.2c-0.4,0.2-0.8,0.5-1,0.7c0,0-0.2,0.2-0.3,0.2c-0.5,0-3.2-2.2-3.8-4.6
							c-0.2-0.7-0.2-0.8-0.6-0.8H258.5z"/>
					</g>
					<g>
						<path class="st1" d="M274.3,654.5c1.1,0.6,1.9,0.9,2.7,0.9c0.9,0,2.3-0.5,3.2-1.1c0.1-0.1,0.2-0.1,0.3-0.1
							c0.2,0,0.2,0.1,0.2,0.2c0,0.3-2.2,1.9-4.2,1.9c-0.4,0-1.1,0-2.9-0.9c-1.7-0.9-2.3-0.8-2.7-0.8c-0.7,0-2,0.2-3,0.9
							c-0.1,0-0.5,0.4-0.6,0.4c-0.1,0-0.2-0.1-0.2-0.2c0-0.3,2.2-1.9,4.2-1.9C271.9,653.6,272.6,653.6,274.3,654.5z"/>
					</g>
					<g>
						<path class="st1" d="M283.9,661c-0.4,0-0.4-0.2-0.4-0.3c0-0.3,0.2-0.3,0.8-0.3c0.9,0,1.3,0,1.5-0.5c0.1-0.3,0.1-3.1,0.1-3.6
							c0-0.8,0-4.5,0-5.3c0-0.8-0.2-0.8-1.6-0.8c-0.4,0-0.5,0-0.5-0.2c0-0.2,0.2-0.2,0.7-0.3c0.4,0,1.2-0.2,1.8-0.4
							c0.1,0,0.7-0.4,0.8-0.4c0.2,0,0.2,0,0.2,0.8c0,0.4,0,2.5,0,3c0,0.7,0,6.9,0.1,7.1c0.1,0.5,0.3,0.7,1.5,0.7
							c0.1,0,0.4,0,0.4,0.3c0,0.2-0.3,0.2-0.4,0.2H283.9z"/>
					</g>
					<g>
						<path class="st1" d="M295.1,661.3c-2.5,0-3.6-3.2-3.6-6.1c0-3,1.1-6.1,3.6-6.1c2.6,0,3.6,3.3,3.6,6.1
							C298.7,658,297.7,661.3,295.1,661.3z M295.1,649.5c-2.1,0-2.2,4.8-2.2,5.6c0,0.7,0,5.6,2.2,5.6c2.1,0,2.2-4.8,2.2-5.6
							C297.3,654.5,297.3,649.5,295.1,649.5z"/>
					</g>
					<g>
						<path class="st1" d="M306.6,649.7c0,0.2-0.1,0.2-0.4,0.3c-0.2,0-0.4,0.5-0.8,1.1c-1.9,3.1-4.4,4.4-4.8,4.4
							c-0.1,0-0.1,0-0.1-0.1c0-0.1,0-0.1,0.3-0.4c2.2-1.7,3.4-4.4,3.6-4.8c0.1-0.2,0.5-1.6,0.5-1.6
							C305.1,648.6,306.6,649.4,306.6,649.7z M308.2,654.4c-0.4,0-0.4,0-0.5,0.9c-0.1,1.4-0.4,4.2-3.2,5.7c-1.3,0.7-3,1-3.1,1
							c0,0-0.2,0-0.2-0.1c0-0.1,0.1-0.1,0.4-0.2c1.1-0.4,2.4-1.2,3.2-1.9c1.2-1.2,1.8-3.4,1.8-5c0-0.4-0.2-0.4-0.4-0.4h-0.5
							c-0.6,0-1.4,0-1.6,0c-0.1,0-0.3,0-0.3,0c-0.1,0-0.1,0-0.1-0.1l-0.3-0.4c0-0.1-0.1-0.1-0.1-0.1c0,0,0,0,0.1,0
							c0.1,0,0.6,0.1,0.7,0.1c0.8,0,1.4,0,2.2,0h3.5c0.7,0,0.8,0,1.1-0.3c0.2-0.3,0.4-0.4,0.5-0.4c0.3,0,1.2,0.7,1.2,1.1
							c0,0.1-0.3,0.4-0.3,0.4c-0.1,0.2-0.2,2-0.2,2.4c-0.2,1.9-0.3,3.2-0.8,4c-0.4,0.7-1.4,1-1.6,1c-0.2,0-0.2,0-0.3-0.5
							c-0.1-0.4-0.6-0.6-1.5-0.8c-0.4-0.1-0.5-0.2-0.5-0.3c0-0.1,0.1-0.1,0.2-0.1c0.1,0,0.5,0.1,0.6,0.1c0.8,0.1,0.9,0.1,1.1,0.1
							c0.8,0,1.2-0.1,1.4-1.8c0.2-1.2,0.3-3.1,0.3-3.9c0-0.4,0-0.6-0.5-0.6H308.2z M309,649.2c-0.4,0-0.9,0-1.3,0c0,0-0.3,0-0.3,0
							c0,0-0.1,0-0.1-0.1l-0.3-0.4c0,0,0-0.1,0-0.1c0,0,0,0,0,0c0.1,0,0.6,0.1,0.7,0.1c0.2,0,0.8,0,1,0c0.4,0,0.6-0.3,0.7-0.4
							c0.3-0.4,0.4-0.5,0.5-0.5c0.2,0,1.4,0.8,1.4,1.2c0,0.2,0,0.2-0.5,0.3c-0.1,0-0.3,0.1-0.3,0.3c0,0.8,2.1,3.4,4.8,3.6
							c0,0,0.2,0,0.2,0.1c0,0.1-0.4,0.2-0.5,0.2c-0.4,0.2-0.8,0.5-1,0.7c0,0-0.2,0.2-0.3,0.2c-0.5,0-3.2-2.2-3.8-4.6
							c-0.2-0.7-0.2-0.8-0.6-0.8H309z"/>
					</g>
				</g>
			</g>
		</g>
	</g>
</g>
</svg>
