<?xml version="1.0" encoding="UTF-8"?>
<svg id="_レイヤー_2" data-name="レイヤー 2" xmlns="http://www.w3.org/2000/svg" viewBox="0 0 610.7559121 66.1324463">
  <defs>
    <style>
      .cls-1 {
        fill: #231815;
      }

      .cls-1, .cls-2, .cls-3, .cls-4 {
        stroke-width: 0px;
      }

      .cls-2 {
        fill: #1e2b68;
      }

      .cls-4 {
        fill: #c81d1d;
      }
    </style>
  </defs>
  <g id="_レイヤー_2-2" data-name="レイヤー 2">
    <g>
      <g>
        <path class="cls-2" d="m15.2380007,32.6638173h2.471638c.7991416,0,1.8239589.1335838,1.8239589,1.0892478v8.5958689s-2.7802976,1.0204792-7.8028468,1.0204792c-5.0198506,0-11.7307508-2.7641055-11.7307508-10.419875,0-7.6510468,7.0010065-10.6293587,12.1719822-10.6293587,2.3343435,0,5.2445142.1376318,5.2445142,1.4474953v2.5556338c-1.9646267-1.6030058-2.7620816-1.9002438-5.7471402-1.9002438-2.9972026,0-8.357422,1.961301-8.357422,8.3530843,0,6.3587246,7.1872143,10.1557434,13.1711622,7.752584v-4.8792301c0-1.0234205-.0809599-2.9856858-1.2450957-2.9856858Z"/>
        <path class="cls-2" d="m52.7733674,42.8485712h6.3334248c-1.7446856-.6554378-2.471638-2.7614069-3.0582599-4.2959341-.5896579-1.5237326-5.1756983-12.6752826-5.6752883-14.2060991-.520842-1.5267686-1.237337-1.5267686-1.8347535-1.5267686h-3.6263284c1.7413123.5859472.7819376,1.8239588.4918313,2.6962539-.2857209.8683425-6.4022407,16.0331417-6.4022407,16.0331417-2.1174385-.5825739-7.4486473-8.3820471-7.4486473-8.3820471,7.0681358-2.0337799,5.9896826-10.3473484-.9381227-10.3473484h-7.9435146c1.6070538.3622955,1.4620007,2.0449119,1.4620007,3.3547754v13.7675664c0,1.8897387-.5852725,2.4068227-1.5308166,2.90646h5.8233775c-1.5996325-.7242537-1.1732437-2.4031594-1.1732437-3.2026383v-14.8537782h3.1422558c1.6836284,0,2.9132067,2.0415385,2.9132067,3.4269646,0,2.2442756-1.755143,3.1240397-3.4920699,3.7757668-1.7554803.6544258-.8035269,2.1133904,0,3.2751648.7988043,1.1691957,3.1270758,4.4544332,4.5232966,6.0584983,1.3793541,1.6033431,2.6197271,1.5200219,3.2721289,1.5200219h5.2441769c-2.0300693-.6476791-.9411587-2.2432636-.6551004-3.0467905.2978649-.8075749,1.6040178-4.2315035,1.6040178-4.2315035h7.8686267s.951616,2.4716379,1.8239589,4.6683496c.8831375,2.1751223.2091464,2.4686019-.7239164,2.6099444Zm-8.1654796-9.6096014l2.9850586-7.7954253,3.2110717,7.7954253h-6.1961303Z"/>
        <path class="cls-2" d="m116.5910131,42.8485712h6.3519781c-1.7598656-.6554378-2.4824326-2.7614069-3.0612959-4.2959341-.5792006-1.5237326-5.1770477-12.6752826-5.6827097-14.2060991-.5151073-1.5267686-1.231265-1.5267686-1.8286815-1.5267686h-3.6357738c1.7585163.5859472.7991416,1.8239588.502626,2.6962539-.2901063.8683425-6.4130353,16.0331417-6.4130353,16.0331417-.4061488.9519534-1.0035653.9661213-1.3793541,1.2994062h5.2475502c-2.0412012-.6476791-.9489174-2.2432636-.6584738-3.0467905.2887569-.8075749,1.6100898-4.2315035,1.6100898-4.2315035h7.8655907s.9593747,2.4716379,1.8300309,4.6683496c.8693068,2.1751223.210833,2.4686019-.7485417,2.6099444Zm-8.149625-9.6096014l2.9850586-7.7954253,3.203313,7.7954253h-6.1883716Z"/>
        <path class="cls-2" d="m94.1779421,43.2213241c.7269524-.6584738,1.3854261-1.1726164,1.3854261-3.4968399v-13.7708923c0-1.0889105-.0839959-2.3380541-1.3854261-2.7715269h5.5987138c-.5788632.516794-1.2710703,1.1644731-1.2710703,2.6305217v13.9118975c0,1.242107-.2536743,3.0667405,1.3533795,3.4968399h-5.681023Z"/>
        <path class="cls-2" d="m63.9890109,27.4776617s-.0718519,10.9986908-.0718519,12.2468224c0,1.242107.1480891,3.0667405,1.7507576,3.4968399h-5.3237875c.7424697-.6584738,1.3105382-1.1726164,1.3105382-3.4968399,0-2.3265374.1558478-12.6883912.1558478-13.7708923,0-1.0889105-.1558478-2.3380541-1.466386-2.7715269h4.0938718l12.2333768,15.3705722v-12.5224708c0-.8072376.1480891-2.3313075-1.5277806-2.9138813h5.4614193c-.6476791.4992526-1.6117765.7239163-1.6117765,2.8373068v18.0780058s-1.5200219.2789743-3.9916599-2.7030483c-2.4854686-2.9820226-11.0125691-13.8508876-11.0125691-13.8508876Z"/>
        <path class="cls-4" d="m98.8095225,58.733576c-16.0229744-13.5071926-22.1563607-29.4029449-.238157-51.093111.6874844-.6871471,1.3381995-.2786369.7988043.3363209-9.6055537,10.9848597-20.3219445,28.551854-.219941,50.0875217.3116956.3255262.1956531,1.0420212-.3407062.6692684Z"/>
        <g>
          <path class="cls-3" d="m143.6680825,37.555603c0,2.5057983.0477295,2.8637695,1.4318848,2.9830933l.7636719.0715942c.1431885.095459.095459.5250244-.0477295.5966187-1.3602905-.0477295-2.1716919-.0715942-3.1262817-.0715942s-1.789856.0238647-3.3171997.0715942c-.1431885-.0715942-.190918-.4772949,0-.5966187l.8591309-.0715942c1.3602905-.1193237,1.4796143-.4772949,1.4796143-2.9830933v-10.6675415c0-.7398071,0-.7636719-.7159424-.7636719h-1.312561c-1.0261841,0-2.3387451.0477295-2.9353638.5966187-.5727539.5250244-.8114014,1.0500488-1.0739136,1.6466675-.190918.1431885-.5250244.0238647-.6204834-.1670532.3818359-1.0739136.7398071-2.6012573.9068604-3.5558472.0715942-.0477295.3818359-.0715942.4534302,0,.1431885.7636719.9307251.7398071,2.0285034.7398071h9.6652222c1.2886963,0,1.503479-.0477295,1.8614502-.6682129.1193237-.0477295.3818359-.0238647.4295654.0715942-.2625122.9784546-.4295654,2.911499-.3579712,3.6274414-.095459.190918-.5011597.190918-.6204834.0477295-.0715942-.5966187-.2386475-1.4796143-.5966187-1.7421265-.5488892-.4057007-1.4557495-.5966187-2.7683105-.5966187h-1.694397c-.7159424,0-.6920776.0238647-.6920776.8114014v10.619812Z"/>
          <path class="cls-3" d="m150.9673989,33.427002c0-4.7729492,3.5797119-8.4242554,8.4958496-8.4242554,5.5127563,0,8.2810669,3.9854126,8.2810669,8.1856079,0,4.8206787-3.6751709,8.3287964-8.2810669,8.3287964-5.2979736,0-8.4958496-3.7944946-8.4958496-8.0901489Zm14.3904419.5011597c0-3.9376831-1.7421265-8.1856079-6.300293-8.1856079-2.4819336,0-5.7036743,1.694397-5.7036743,6.9207764,0,3.5319824,1.7182617,8.1140137,6.4196167,8.1140137,2.8637695,0,5.5843506-2.1478271,5.5843506-6.8491821Z"/>
          <path class="cls-3" d="m171.8928139,28.9642944c0-2.5057983-.0477295-2.8876343-1.4318848-3.006958l-.5966187-.0477295c-.1431885-.095459-.095459-.5250244.0477295-.5966187,1.1693726.0477295,1.9330444.0715942,3.006958.0715942.9307251,0,1.7421265-.0238647,2.7683105-.0715942.1431885.0715942.190918.5011597.0477295.5966187l-.4534302.0477295c-1.3841553.1431885-1.4318848.5011597-1.4318848,3.006958v2.7444458c0,.4534302.0477295.9068604.3102417.9068604.2147827,0,.5011597-.1431885.6682129-.2625122.3341064-.286377.9545898-.9068604,1.2171021-1.1455078l2.5773926-2.5535278c.4534302-.4295654,1.6228027-1.6466675,1.8614502-1.9807739.1193237-.1670532.1670532-.286377.1670532-.3818359s-.095459-.1670532-.4057007-.2386475l-.6443481-.1431885c-.1670532-.1670532-.1431885-.4772949.0477295-.5966187.8352661.0477295,1.789856.0715942,2.6251221.0715942s1.6466675-.0238647,2.3626099-.0715942c.1670532.1193237.190918.4534302.0477295.5966187-.6204834.0477295-1.5512085.286377-2.2194214.6682129s-2.0046387,1.503479-3.3410645,2.7683105l-2.1478271,2.0285034c-.3341064.3341064-.5488892.5488892-.5488892.7398071,0,.1670532.1431885.3579712.4534302.7398071,2.2671509,2.6012573,4.1047363,4.7490845,5.9661865,6.7059937.5727539.5727539,1.0977783.8829956,1.9091797.9784546l.6443481.0715942c.1670532.1193237.1193237.5250244-.0477295.5966187-.6204834-.0477295-1.5512085-.0715942-2.6728516-.0715942-.9784546,0-1.8137207.0238647-2.911499.0715942-.1670532-.0477295-.2386475-.4534302-.095459-.5966187l.5488892-.095459c.3341064-.0477295.5727539-.1193237.5727539-.2386475,0-.1431885-.1670532-.3341064-.3341064-.5488892-.4534302-.5727539-1.0739136-1.2171021-1.9807739-2.2432861l-1.9091797-2.1478271c-1.3602905-1.5273438-1.7421265-2.0046387-2.3148804-2.0046387-.3579712,0-.4057007.3102417-.4057007,1.1455078v3.0785522c0,2.5057983.0477295,2.8399048,1.3841553,2.9830933l.6443481.0715942c.1431885.095459.095459.5250244-.0477295.5966187-1.1693726-.0477295-1.9807739-.0715942-2.911499-.0715942-.9784546,0-1.789856.0238647-2.7683105.0715942-.1431885-.0715942-.190918-.4295654-.0477295-.5966187l.4772949-.0715942c1.2648315-.190918,1.312561-.4772949,1.312561-2.9830933v-8.5913086Z"/>
          <path class="cls-3" d="m185.1821206,33.427002c0-4.7729492,3.5797119-8.4242554,8.4958496-8.4242554,5.5127563,0,8.2810669,3.9854126,8.2810669,8.1856079,0,4.8206787-3.6751709,8.3287964-8.2810669,8.3287964-5.2979736,0-8.4958496-3.7944946-8.4958496-8.0901489Zm14.3904419.5011597c0-3.9376831-1.7421265-8.1856079-6.300293-8.1856079-2.4819336,0-5.7036743,1.694397-5.7036743,6.9207764,0,3.5319824,1.7182617,8.1140137,6.4196167,8.1140137,2.8637695,0,5.5843506-2.1478271,5.5843506-6.8491821Z"/>
          <path class="cls-3" d="m206.1075356,28.9881592c0-2.2671509-.0715942-2.6728516-1.0500488-2.7921753l-.7636719-.095459c-.1670532-.1193237-.1670532-.5011597.0238647-.5966187,1.3364258-.1193237,2.9830933-.190918,5.3218384-.190918,1.4796143,0,2.8876343.1193237,3.9854126.7159424,1.1455078.5966187,1.9807739,1.6705322,1.9807739,3.3410645,0,2.2671509-1.789856,3.5081177-2.9830933,3.9854126-.1193237.1431885,0,.3818359.1193237.5727539,1.9091797,3.0785522,3.1740112,4.9877319,4.796814,6.3480225.4057007.3579712,1.0023193.6204834,1.6466675.6682129.1193237.0477295.1431885.2386475.0238647.3341064-.2147827.0715942-.5966187.1193237-1.0500488.1193237-2.0285034,0-3.2456055-.5966187-4.9400024-3.006958-.6204834-.8829956-1.598938-2.5296631-2.3387451-3.6035767-.3579712-.5250244-.7398071-.7636719-1.694397-.7636719-1.0739136,0-1.1216431.0238647-1.1216431.5250244v3.006958c0,2.5057983.0477295,2.7921753,1.4318848,2.9830933l.5011597.0715942c.1431885.1193237.095459.5250244-.0477295.5966187-1.0739136-.0477295-1.8853149-.0715942-2.8399048-.0715942-1.0023193,0-1.8614502.0238647-2.9830933.0715942-.1431885-.0715942-.190918-.4295654-.0477295-.5966187l.5966187-.0715942c1.3841553-.1670532,1.4318848-.4772949,1.4318848-2.9830933v-8.5674438Zm1.9569092,3.4126587c0,.4295654,0,.6920776.0715942.7875366.0715942.0715942.4295654.1193237,1.6466675.1193237.8591309,0,1.7659912-.095459,2.4580688-.6204834.6443481-.5011597,1.1932373-1.3364258,1.1932373-2.9592285,0-1.8853149-1.1693726-3.6751709-3.8183594-3.6751709-1.4796143,0-1.5512085.095459-1.5512085.7636719v5.5843506Z"/>
          <path class="cls-3" d="m218.681083,33.427002c0-4.7729492,3.5797119-8.4242554,8.4958496-8.4242554,5.5127563,0,8.2810669,3.9854126,8.2810669,8.1856079,0,4.8206787-3.6751709,8.3287964-8.2810669,8.3287964-5.2979736,0-8.4958496-3.7944946-8.4958496-8.0901489Zm14.3904419.5011597c0-3.9376831-1.7421265-8.1856079-6.300293-8.1856079-2.4819336,0-5.7036743,1.694397-5.7036743,6.9207764,0,3.5319824,1.7182617,8.1140137,6.4196167,8.1140137,2.8637695,0,5.5843506-2.1478271,5.5843506-6.8491821Z"/>
          <path class="cls-3" d="m244.9522011,30.3484497c1.2409668-1.7659912,1.9330444-2.6728516,2.3148804-3.3887939.1670532-.286377.286377-.4772949.286377-.6443481,0-.1193237-.2386475-.190918-.8591309-.190918h-3.5558472c-1.9091797,0-2.9830933.1670532-3.5558472.7875366-.5011597.5488892-.8591309,1.2171021-1.0500488,1.6228027-.2147827.095459-.5011597.0238647-.5966187-.1670532.286377-.8352661.6920776-2.2671509.9784546-3.5797119.095459-.0715942.286377-.0715942.4057007,0,.0715942.5727539.4295654.5966187,2.3626099.5966187h6.300293c1.7182617,0,2.4819336-.0238647,2.7444458-.0715942.095459.0238647.1431885.1193237.1431885.2147827-.6443481.5488892-2.6728516,3.3171997-3.9138184,5.1070557l-3.9376831,5.6798096c-.2625122.3818359-2.3626099,3.3410645-2.3626099,3.6990356,0,.2386475.2386475.286377.6682129.3341064.6204834.0477295,1.8614502.0477295,3.5319824.0477295,1.5273438,0,3.5081177-.0477295,4.414978-.5488892.6920776-.3818359,1.2648315-1.2648315,1.6705322-2.1955566.2147827-.0715942.5250244-.0477295.5966187.1670532-.2147827,1.0977783-.6920776,2.7921753-1.0739136,3.3887939-1.312561-.0477295-2.6728516-.0715942-4.3433838-.0715942h-6.1332397c-1.2648315,0-2.1239624.0477295-2.6728516.0715942-.095459-.0477295-.1193237-.1670532-.1193237-.286377.5011597-.4772949,1.8614502-2.1716919,2.6012573-3.2456055l5.1547852-7.3264771Z"/>
          <path class="cls-3" d="m261.8448403,35.5986938c-.1670532-.5250244-.2625122-.5966187-.9784546-.5966187h-3.6035767c-.5966187,0-.7398071.0715942-.9068604.5727539l-.8352661,2.5057983c-.3579712,1.0739136-.5250244,1.7182617-.5250244,1.9807739,0,.286377.1193237.4295654.6920776.4772949l.7875366.0715942c.1670532.1193237.1670532.5011597-.0477295.5966187-.6204834-.0477295-1.3602905-.0477295-2.4819336-.0715942-.7875366,0-1.6466675.0477295-2.2910156.0715942-.1431885-.095459-.190918-.4772949-.0477295-.5966187l.7875366-.0715942c.5727539-.0477295,1.0977783-.3102417,1.4318848-1.1693726.4295654-1.0977783,1.0977783-2.6489868,2.1000977-5.3218384l2.4342041-6.4434814c.3341064-.8591309.4772949-1.312561.4057007-1.694397.5727539-.1670532.9784546-.5966187,1.2409668-.9068604.1431885,0,.3102417.0477295.3579712.2147827.3102417,1.0500488.6920776,2.1478271,1.0500488,3.197876l3.2694702,9.5936279c.6920776,2.0523682,1.0023193,2.4103394,2.0285034,2.5296631l.6443481.0715942c.1670532.1193237.1193237.5011597,0,.5966187-.9784546-.0477295-1.8137207-.0715942-2.8876343-.0715942-1.1455078,0-2.0523682.0477295-2.7444458.0715942-.190918-.095459-.2147827-.4772949-.0477295-.5966187l.6920776-.0715942c.5011597-.0477295.8352661-.190918.8352661-.4295654,0-.2625122-.1193237-.6920776-.3102417-1.2648315l-1.0500488-3.2456055Zm-4.7252197-2.1239624c-.190918.5488892-.1670532.5727539.5011597.5727539h2.9353638c.6920776,0,.7398071-.095459.5250244-.7398071l-1.2886963-3.8899536c-.190918-.5727539-.4057007-1.2171021-.5488892-1.503479h-.0477295c-.0715942.1193237-.3102417.6920776-.5727539,1.40802l-1.503479,4.1524658Z"/>
          <path class="cls-3" d="m264.538871,25.8857422c-.1431885-.1431885-.1193237-.4772949.0715942-.5727539.6443481.0477295,1.7182617.0715942,2.4580688.0715942.6682129,0,1.8853149-.0238647,2.7205811-.0715942.2147827.0715942.190918.4057007.0477295.5727539l-.5488892.0477295c-.5011597.0477295-.7875366.190918-.7875366.4057007,0,.286377.5011597,1.503479,1.2409668,3.197876,1.3364258,2.9830933,2.7444458,5.9661865,4.1286011,8.9015503.5727539-1.1932373,1.2171021-2.5296631,1.8375854-3.8660889.2147827-.4534302.3818359-.8591309.3818359-.9784546s-.0715942-.3341064-.190918-.6204834c-.8352661-1.9091797-1.7182617-3.8183594-2.6251221-5.7275391-.3579712-.7398071-.7159424-1.2409668-1.5273438-1.312561l-.5727539-.0477295c-.1670532-.190918-.1431885-.4772949.0477295-.5727539.6920776.0477295,1.598938.0715942,2.5535278.0715942,1.1932373,0,2.0762329-.0238647,2.6251221-.0715942.1670532.0715942.190918.3818359.0477295.5727539l-.6204834.0477295c-.9307251.0715942-.9545898.2386475-.5011597,1.312561.5011597,1.1693726,1.1693726,2.6728516,1.8375854,4.1524658.4534302-.9307251.8829956-1.8375854,1.40802-3.1262817.8591309-2.0285034.7398071-2.2910156-.0238647-2.3387451l-.7159424-.0477295c-.1670532-.2386475-.1193237-.5011597.0477295-.5727539.6443481.0477295,1.3602905.0715942,2.2432861.0715942.7875366,0,1.7421265-.0238647,2.2910156-.0715942.1670532.0715942.190918.3818359.0477295.5727539l-.6920776.0477295c-1.0023193.0715942-1.4318848,1.1455078-1.9569092,2.1239624-.5011597.8829956-1.503479,2.9592285-1.8614502,3.7944946-.1193237.2386475-.2147827.4772949-.2147827.5727539s.0477295.286377.1670532.5727539c.8114014,1.8375854,1.6466675,3.6274414,2.4342041,5.4411621.7398071-1.6705322,1.4557495-3.3410645,2.1478271-5.0354614.4772949-1.1455078,1.7421265-4.319519,1.9091797-4.7490845.3102417-.8591309.7159424-1.8853149.7159424-2.1716919,0-.3341064-.286377-.5250244-.7875366-.5488892l-.6920776-.0477295c-.190918-.2147827-.1670532-.4772949.0238647-.5727539.9068604.0477295,1.5512085.0715942,2.2910156.0715942.9068604,0,1.598938-.0238647,2.2194214-.0715942.190918.0715942.2147827.3818359.0477295.5727539l-.4534302.0477295c-1.1932373.1193237-1.40802.8352661-2.8399048,4.1524658l-1.7421265,4.0331421c-1.0500488,2.4342041-2.0046387,4.7729492-2.9830933,7.3264771-.0715942.0477295-.1670532.0715942-.286377.0715942s-.2386475-.0238647-.3341064-.0715942c-.7636719-2.1239624-2.1478271-5.1070557-2.8876343-6.7775879-.8591309,1.7421265-2.2910156,4.796814-2.9830933,6.7775879-.0715942.0477295-.1670532.0715942-.286377.0715942s-.2386475-.0238647-.3579712-.0715942c-.4057007-1.0023193-1.3364258-3.1501465-1.6466675-3.8422241-1.5273438-3.3171997-3.006958-6.6343994-4.5581665-9.9515991-.4534302-.9784546-.7398071-1.6228027-1.7421265-1.7182617l-.5727539-.0477295Z"/>
          <path class="cls-3" d="m295.4392006,35.5986938c-.1670532-.5250244-.2625122-.5966187-.9784546-.5966187h-3.6035767c-.5966187,0-.7398071.0715942-.9068604.5727539l-.8352661,2.5057983c-.3579712,1.0739136-.5250244,1.7182617-.5250244,1.9807739,0,.286377.1193237.4295654.6920776.4772949l.7875366.0715942c.1670532.1193237.1670532.5011597-.0477295.5966187-.6204834-.0477295-1.3602905-.0477295-2.4819336-.0715942-.7875366,0-1.6466675.0477295-2.2910156.0715942-.1431885-.095459-.190918-.4772949-.0477295-.5966187l.7875366-.0715942c.5727539-.0477295,1.0977783-.3102417,1.4318848-1.1693726.4295654-1.0977783,1.0977783-2.6489868,2.1000977-5.3218384l2.4342041-6.4434814c.3341064-.8591309.4772949-1.312561.4057007-1.694397.5727539-.1670532.9784546-.5966187,1.2409668-.9068604.1431885,0,.3102417.0477295.3579712.2147827.3102417,1.0500488.6920776,2.1478271,1.0500488,3.197876l3.2694702,9.5936279c.6920776,2.0523682,1.0023193,2.4103394,2.0285034,2.5296631l.6443481.0715942c.1670532.1193237.1193237.5011597,0,.5966187-.9784546-.0477295-1.8137207-.0715942-2.8876343-.0715942-1.1455078,0-2.0523682.0477295-2.7444458.0715942-.190918-.095459-.2147827-.4772949-.0477295-.5966187l.6920776-.0715942c.5011597-.0477295.8352661-.190918.8352661-.4295654,0-.2625122-.1193237-.6920776-.3102417-1.2648315l-1.0500488-3.2456055Zm-4.7252197-2.1239624c-.190918.5488892-.1670532.5727539.5011597.5727539h2.9353638c.6920776,0,.7398071-.095459.5250244-.7398071l-1.2886963-3.8899536c-.190918-.5727539-.4057007-1.2171021-.5488892-1.503479h-.0477295c-.0715942.1193237-.3102417.6920776-.5727539,1.40802l-1.503479,4.1524658Z"/>
        </g>
      </g>
      <g>
        <g>
          <path class="cls-1" d="m338.1062539,5.2673645c0-.3709412.5193481-.3709412.8161011-.3709412,2.5965576,0,3.449707,1.928894,3.449707,2.0772705,0,.4451294-.3709106.9273682-1.112793,1.8547058-.1854858.2596741-.2967529.4080505-.2967529.5935059,0,.2967529.4451294.2967529.5935059.2967529.3709717,0,3.1159058-.4080505,5.6383057-1.4837646.4451294-.1854553,1.3353882-.5935059,1.7434082-.5935059.3338623,0,.5193481.1112976,2.0401611,1.0015564.2225952.1112671,1.1870117.6305847,1.3724976.7418823.40802.2596436.7047729.6305847.7047729.9273376,0,.5193176-.2596436.6676941-1.4837646,1.4095764-.40802.2596436-.5563965.4822388-1.8546753,2.4852905-1.8917847,2.9675293-5.8979492,9.0509644-13.2797241,13.9473877-4.0803223,2.6707764-7.1591187,3.5610352-7.3817139,3.5610352-.1854248,0-.3338623-.1483765-.3338623-.3338318,0-.1483765.1113281-.2225647,1.2612305-.8531799,11.3137207-6.2318115,18.3615723-18.8808899,18.3615723-20.0308228,0-.3338318-.2967529-.40802-.40802-.40802-.0741577,0-5.1931763,1.1499023-6.0834351,1.1499023-.2225342,0-1.2241211-.1112671-1.4466553-.1112671-.704834,0-.7789917.0741882-2.3369141,1.8547058-2.2627563,2.5223999-3.1901245,3.4868469-5.0447998,4.8222351-1.520874,1.1128235-3.1159668,1.9660034-3.5610352,1.9660034-.1854858,0-.2597046-.1112976-.2597046-.2225952,0-.2596436,2.4852905-2.3369141,2.930481-2.7820435,3.0045776-3.0046387,6.5285645-8.1235962,6.2318115-10.3492432-.0371094-.1854858-.2597046-1.0015564-.2597046-1.1499329Zm17.4713745,1.2612c0,.6306152-.4451904,1.4466553-1.0757446,1.4466553-.5193481,0-.8161011-.2225342-1.9660034-1.5950317-.7418823-.8531494-1.112793-1.1128235-2.633667-2.1885376-.1854858-.1112976-.5563965-.3709717-.5563965-.5193481s.2967529-.3338318.6305542-.3338318c4.7480469,0,5.6012573,2.7449646,5.6012573,3.190094Zm.8902588-5.6011963c1.520813.8902588,1.520813,1.7434082,1.520813,2.1143494,0,.556427-.3709106,1.0757141-.9273071,1.0757141-.7789917,0-1.1499634-.3709106-1.9660034-1.2240906-.5935059-.6305847-2.1514893-1.4837646-3.4126587-1.8175964-.3709717-.1112976-.4822388-.2967529-.4822388-.4080505,0-.2967529.9644165-.5193176,1.3353882-.5193176,1.4466553,0,2.6707764,0,3.9320068.7789917Z"/>
          <path class="cls-1" d="m368.6036904,29.8236694c11.5734863-6.2318115,14.6151123-14.2441406,14.6151123-15.0231323,0-.4451294-.2596436-.7047729-.7789307-.7047729-1.2612305,0-10.5718994,1.6321411-12.2039795,2.1143799-.2596436.0741577-1.4466553.6305847-1.7062988.6305847-1.5950928,0-4.2287598-3.190094-4.2287598-4.2287292,0-.1112671.1113281-.1854858.2225342-.1854858.1113281,0,.5563965.2596741.6677246.2967529.704834.2967529,2.1143799.6306152,3.6723633.6306152,3.041626,0,10.4234619-.964447,11.7958984-1.1128235.0742188,0,2.5223389-.2225647,2.5594482-.2225647.1855469-.0741882.8902588-.40802,1.0758057-.40802.6306152,0,3.2642822,2.1885376,3.2642822,3.041687,0,.556427-.1484375.7048035-1.0015869,1.4096069-.6306152.5192871-1.0015869,1.0757141-2.0030518,2.633667-2.9304199,4.4512939-5.2302246,7.2333374-10.4605713,9.9041138-3.3013916,1.6692505-6.2318115,2.4111328-6.5656738,2.4111328-.2967529,0-.3338623-.2225647-.3338623-.2967529s.0371094-.1854858.0742188-.2225647c.0742188-.0741882,1.112793-.556427,1.3353271-.6676941Zm.9273682-24.259552c.5935059.1483765,1.4466553.1483765,1.9660645.1483765,1.7434082,0,4.1916504-.0741882,5.9350586-.4080505.5563965-.1112671,3.1158447-.7418823,3.6352539-.7418823.6306152,0,2.2626953.3338623,2.2626953,1.4096069,0,1.1499023-1.2983398,1.2611694-3.449707,1.4466553-.5935059.0741882-8.5688477.7789917-8.8284912.7789917-1.9659424,0-3.0787354-2.5223999-3.0787354-2.782074,0-.1854553.0740967-.2596741.2225342-.2596741.2225342,0,1.112793.3709717,1.3353271.4080505Z"/>
          <path class="cls-1" d="m406.0004189,24.2966309c-.9644775.7048035-2.8562012,2.1143799-3.6351318,3.041748-.704834.8531494-.7790527.9273376-1.3354492.9273376-2.0030518,0-4.7480469-2.3740234-4.7480469-3.8577881,0-.2596741.0371094-1.9659729.3709717-1.9659729.1483154,0,.9644775.6305847,1.112793.7047729.4821777.2967529,1.7062988.8531494,2.5223389.8531494,1.817627,0,11.647583-6.5656433,17.8051758-12.6490784.5935059-.5935059,1.6322021-1.6321411,1.7064209-1.6321411.0740967,0,.1854248.1112976.1854248.1854553,0,.3338623-4.3399658,7.2704468-13.9844971,14.3925171Zm-3.041626-12.203949c-1.0015869,0-1.3725586-.5935059-2.5966797-2.4482117-1.2612305-1.8917847-2.3369141-2.4482117-3.3754883-3.0417175-.1484375-.0741882-.3338623-.1854553-.3338623-.3338318s.2967529-.3338623.81604-.3338623c3.9691162,0,7.0849609,2.1143799,7.0849609,4.3029175,0,1.1128235-.6306152,1.8547058-1.5949707,1.8547058Z"/>
          <path class="cls-1" d="m433.7155068,16.0246582c0,.7418823-.5563965,1.8547058-1.4466553,1.8547058-.5563965,0-.7419434-.2225647-1.2983398-1.1499329-.7789307-1.3353882-2.0401611-2.2998047-3.3756104-3.0787964-.1112061-.0741882-.3338623-.2225647-.3338623-.3709412,0-.5193176,2.1143799-.556427,2.5966797-.556427,1.5949707,0,3.8577881,1.4837646,3.8577881,3.3013916Zm-4.5626221,11.499176c-.1113281-.1854553-.7789307-.964447-.8902588-1.1499329-.1112061-.1854553-.2225342-.4822083-.2225342-.7047729,0-.1483765.1113281-.2596436.3338623-.2596436.3338623,0,1.7434082.4822083,2.0401611.4822083,1.5949707,0,11.5733643-5.5641174,20.4388428-15.6166077.1854248-.2225952,1.4837646-1.6692505,1.5950928-1.6692505.0740967,0,.1483154.0371094.1483154.1483765,0,.40802-3.2642822,8.3461914-18.6212158,19.1034546-.4451904.2967529-2.225708,1.9660034-2.7078857,1.9660034-.81604,0-1.1870117-.5935059-2.1143799-2.2998352Zm9.013916-18.8808899c0,.8531494-.5935059,1.66922-1.1870117,1.66922-.4080811,0-.5935059-.1483765-1.9289551-1.7434387-1.0014648-1.1870117-2.2998047-1.7062988-3.1900635-1.9659729-.1483154-.0370789-.5563965-.1483765-.5563965-.2596741,0-.1112671,1.0385742-.7047729,2.8562012-.7047729,4.0062256,0,4.0062256,2.8933411,4.0062256,3.0046387Z"/>
          <path class="cls-1" d="m461.7647011,8.1607056c.7419434.1112671,1.5579834.1483765,2.3369141.1483765,3.3013916,0,14.3183594-1.7434082,15.3569336-2.1514587.2597656-.1112976,1.2983398-.8531799,1.520874-.8531799.8531494,0,4.3771973,3.5610352,4.3771973,4.8222656,0,.2596436,0,.6676636-1.2983398.9644165-1.2983398.2596741-6.9737549,2.3369446-7.7526855,3.3755798-.4450684.6305847-.5935059,1.0757141-1.8917236,4.7480469-.6677246,1.928894-2.7821045,7.8268738-9.3477783,11.4620667-1.2241211.6677246-2.2998047,1.0757446-2.5594482,1.0757446-.1484375,0-.2226562-.0741882-.2226562-.1854858,0-.1112671.0742188-.1854553.7419434-.7047729,2.0772705-1.520874,4.6367188-3.7094116,6.6398926-6.8995056,2.0401611-3.2642822,2.7819824-6.4172668,2.7819824-8.1236267,0-.81604-.1483154-1.5208435-.4821777-2.1885376-.2967529-.5935059-.3338623-.6676941-.3338623-.8160706,0-.2967529.5563965-.3338318.7789307-.3338318.6306152,0,1.0758057.0370789,2.0031738.3338318.2225342.0741882,1.223999.4822083,1.4466553.4822083,1.0385742,0,4.5996094-3.5610352,4.5996094-4.5254517,0-.2596741-.2225342-.556427-.7047119-.556427-.5935059,0-7.3076172.5193176-13.2426758,2.2998352-.5192871.1483765-2.633667,1.0757446-3.1158447,1.0757446-.8902588,0-3.7836914-2.3740234-3.7836914-3.6723328,0-.0741882.0742188-.1483765.2596436-.1483765.1113281,0,1.5950928.3338318,1.8918457.3709412Z"/>
          <path class="cls-1" d="m505.023124,12.5378113c-.5194092.0741882-.8902588.3709412-1.8547363,1.6321411-2.0772705,2.8191528-4.5626221,6.1576233-7.8638916,8.7171326-.4822998.3709106-1.6322021,1.2611694-2.0773926,1.2611694-.0740967,0-.1483154,0-.1483154-.0741577,0-.0742188,1.8918457-2.4111328,2.225708-2.8933716.7047119-.9644165,4.4141846-6.1205139,5.9350586-10.1266785.4821777-1.2612.5192871-1.4095764.7047119-1.4095764.3709717,0,3.0046387,1.3353882,3.5239258,1.6321411.4451904.2596436.6306152.6306152.4822998.9273682-.1113281.2596436-.2597656.2596436-.9273682.3338318Zm8.2719727-10.6089172c0,.2967529-.1484375.40802-.704834.8902588-.2967529.2225647-.4821777.5935059-.5192871,1.4837646-.1113281,2.1885376-.1483154,4.4512939-.1483154,6.6769409,0,3.2642822,0,16.0617676-.0371094,17.3600464,0,1.1870117-.0742188,2.8933411-1.7064209,4.0803528-1.0014648.7418823-2.1513672,1.0015564-2.633667,1.0015564q-.1854248,0-.5935059-1.112854c-.4450684-1.1499023-.81604-1.4095459-2.4482422-2.2998047-.4450684-.2596741-.7789307-.4451294-.7789307-.5935059s.2225342-.1483765.4080811-.1483765c.4450684,0,2.3740234.1854553,2.7819824.1854553.8532715,0,1.817627-.1483765,2.1143799-1.1499329.2596436-.9273376.2596436-10.3492432.2596436-11.9813843,0-6.6398315-.1483154-11.5362549-.2225342-14.2070312,0-.2225952-.1483154-1.1499329-.1483154-1.3724976s.2596436-.2596436.407959-.2596436c.2967529,0,1.4837646.2596436,1.8547363.3338318.9644775.1854553,2.1143799.4451294,2.1143799,1.1128235Zm11.9072266,21.774231c-.81604,0-.8531494-.0370789-2.5595703-3.1159058-1.8917236-3.3755493-4.4512939-7.0107727-6.1947021-8.6799927-.3338623-.3338623-.6677246-.7418823-.6677246-.9273682,0-.1483765.1484375-.1483765.2226562-.1483765.8531494,0,10.534668,5.6383057,10.534668,10.6089172,0,.4080505,0,2.2627258-1.3353271,2.2627258Z"/>
          <path class="cls-1" d="m559.8184121,11.5733643c1.7805176,0,1.9659424,0,2.4852295-.8531494.7419434-1.2241211.9644775-1.4466858,1.2983398-1.4466858.4451904,0,3.0046387,2.4482117,3.0046387,2.7449646,0,.5563965-.704834.5563965-1.9659424.5563965h-9.8299561c-1.0015869,0-1.0386963.6306152-1.0386963,1.1870117,0,.4451294,0,4.7851562.1113281,5.0077209.2225342.4822083.7418213.4822083.9643555.4822083h7.0108643c1.7434082,0,1.928833,0,2.3740234-.5935059,1.1870117-1.6321411,1.3353271-1.8175964,1.7805176-1.8175964.6306152,0,3.1900635,2.5223999,3.1900635,2.8933411,0,.5193176-.7418213.5193176-1.9659424.5193176h-12.3895264c-.9643555,0-1.0756836.5193176-1.0756836,1.1128235,0,1.1870117.0371094,6.3430786.0371094,7.4188232,0,1.2241211-.0371094,2.5965881-1.5950928,3.8577881-.9273682.7047729-1.8546143.8531494-2.4852295.8531494-.5935059,0-.5935059-.0741577-.7419434-1.112793-.1483154-.8161011-1.4837646-1.5950623-2.7819824-2.1143799-.1113281-.0371094-.3338623-.1483765-.3338623-.2596436,0-.1854858.2225342-.1854858.3338623-.1854858,3.8577881,0,4.2657471,0,4.5625-.5193176s.3709717-.8531799.3709717-7.9381409c0-.40802,0-1.1128235-1.0386963-1.1128235h-8.0864258c-3.2271729,0-4.3029785.0741882-4.6738281.0741882-.1113281.0371094-.6677246.1112671-.7790527.1112671-.1483154,0-.2225342-.1112671-.3338623-.2596436l-.7047119-.8531494c-.1484375-.1483765-.1855469-.1854858-.1855469-.2225952,0-.0741577.0742188-.1112671.1484375-.1112671.2596436,0,1.4095459.1483765,1.6320801.1483765,1.817627.0741882,3.338501.1112671,5.0819092.1112671h7.901001c.2226562,0,.7419434,0,.9644775-.4451294.1113281-.2225342.1113281-4.562561.1113281-5.0447998,0-.5192871-.0371094-1.1870117-1.0758057-1.1870117h-5.7866211c-3.2271729,0-4.3029785.0371094-4.6738281.0742188-.1113281,0-.6677246.1112671-.7790527.1112671-.1483154,0-.2225342-.1112671-.3337402-.2596436l-.704834-.8531799c-.0742188-.0741882-.1855469-.1854553-.1855469-.2225647,0-.0741882.0742188-.1112671.1484375-.1112671.2596436,0,1.4095459.1483765,1.6320801.1483765,1.817627.1112671,3.338501.1112671,5.0819092.1112671h5.6011963c1.0386963,0,1.0386963-.6676941,1.0386963-1.1499023,0-5.4157715,0-5.5641479-1.3353271-5.5641479-.4080811,0-4.5255127.1854858-5.3786621.1854858-.5935059,0-5.7867432-.0371094-5.7867432-.4822388,0-.1112671,1.2612305-.2225342,1.520874-.2596436,5.0076904-.40802,12.760376-1.2241211,16.9520264-2.7449646.8902588-.3338318,1.1870117-.4822083,2.3369141-1.0757141.0742188-.0371094.2596436-.1112976.3709717-.1112976.2225342,0,1.7434082,1.2240906,2.0772705,1.4837646,1.2611084.8902588,1.3353271.9273376,1.3353271,1.2240906,0,.6306152-.407959.6677246-3.3383789.8531799-.9273682.0370789-4.859375.3709412-5.564209.7789612-.5935059.3338623-.5935059.7048035-.5935059,3.9320068,0,2.633667,0,2.9304199,1.0758057,2.9304199h5.0076904Z"/>
          <path class="cls-1" d="m586.7189248,9.9783325c-.5563965,0-.7790527.0741577-.9644775.3338318-.1854248.2967529-.1854248,4.7480469-.1854248,5.0447998,0,.4822083,0,.8160706.4450684.8160706.6306152,0,3.8577881-1.2982788,4.2658691-1.2982788.1112061,0,.1483154.0741577.1483154.1854553,0,.4451294-2.0772705,1.4837646-3.6722412,2.2998352-.704834.3709412-1.1870117.7047729-1.1870117,2.0772705,0,.8902588.1483154,8.605835.1483154,9.8299561,0,4.0061646-3.2642822,4.4141846-3.74646,4.4141846-.2596436,0-.2967529-.1854858-.4080811-.5935059-.2225342-.964447-.8531494-1.4466553-1.8918457-2.0401611-.0369873,0-1.223999-.7048035-1.223999-.7418823,0-.1112976.2967529-.1112976.3338623-.1112976,1.0014648,0,2.8562012,0,3.041626-.0370789.81604-.0742188,1.0386963-.2596741,1.0758057-1.0386353.0740967-1.7805176.1483154-3.3013916.1483154-5.6012268,0-.556427.0371094-3.0417175.0371094-3.4497375-.0371094-.4080505-.1113281-.5935059-.2967529-.5935059-.4450684,0-3.4868164,1.8546753-3.6352539,1.8546753-.2225342,0-.7789307-.8902588-1.0385742-1.3353882-.0742188-.1112671-.8902588-1.4095459-.8902588-1.4466553,0-.1483765.1112061-.1483765.9273682-.1854858,1.0756836-.0370789,3.7835693-.81604,4.2286377-.9644165.5935059-.2225952.7790527-.4451294.7790527-1.8918152,0-.556427.0740967-3.0046082.0740967-3.5239563,0-1.7434082,0-2.0401611-1.1870117-2.0401611-.8901367,0-2.5594482,0-3.3754883.1483765-.0742188,0-.3709717.0741882-.4451904.0741882-.1112061,0-.1854248-.1112976-.2967529-.2596741l-.5935059-.8531494q-.1112061-.1854858-.1112061-.2225647c0-.0741882,0-.1112976.1112061-.1112976.1484375,0,.9644775.1112976,1.112915.1112976.2967529.0370789,3.3383789.1483765,3.6722412.1483765.6306152,0,1.1870117-.0370789,1.1870117-1.1128235,0-.2225647-.1112061-5.8237915-.1112061-5.972168-.0371094-.2596436-.1855469-1.3353882-.1855469-1.5579224,0-.1483765,0-.3338623.2225342-.3338623.1113281,0,3.4498291.6306152,3.4498291,1.3353882,0,.1483765-.5935059.7047729-.6677246.8531494-.2967529.6306152-.2967529,1.1499329-.2967529,5.6383057,0,1.0015564.2596436,1.1499329,1.112793,1.1499329.2597656,0,.5194092,0,1.112915-.7048035.8902588-1.0757141,1.0014648-1.1870117,1.2611084-1.1870117.4451904,0,2.1885986,2.0401917,2.1885986,2.3740234,0,.4822388-.3338623.5193481-1.6691895.5193481h-3.0046387Zm21.7371826-5.3786621c0,.4451294-.4080811.4822388-1.5579834.6306152-1.6322021.1854553-9.5703125,1.5579224-11.3879395,1.7062988-1.0385742.0742188-1.0756836.4451294-1.0756836,1.4096069,0,2.225647,0,2.4852905.5563965,2.7820435.8902588.5193176,3.2642822.5193176,6.0092773.5193176,5.7124023,0,6.6397705-.5935059,7.3817139-2.4111023.1483154-.4080505.7418213-2.5223999.81604-2.5223999.1483154,0,.6677246,2.5223999.8531494,2.9675293.1113281.1854553.704834,1.2240906.704834,1.5208435,0,.8902588-1.7805176,1.8175964-3.041748,2.1514587-1.112793.2967529-5.8979492.5193176-7.3074951.5193176-6.4544678,0-8.0865479-.5935059-8.309082-2.4111023-.0742188-.556427-.1113281-3.8207092-.1113281-5.7496033,0-.7418823-.1854248-4.3771057-.1854248-5.1931763,0-.2596741.0371094-.2967529.2967529-.2967529.5192871,0,2.1143799.2596741,2.4110107.2967529.4451904.0741882,1.0015869.1483765,1.0015869.6305847,0,.1854858-.7418213.7789917-.8531494.9273682-.2225342.2967529-.2225342,2.5223999-.2225342,3.0787964,0,.8902588,0,1.112854.5192871,1.112854,1.0756836,0,5.7125244-1.7434387,7.6784668-2.7449951.4080811-.2225342,2.2628174-1.8175964,2.2998047-1.8546753.2596436-.0371094,3.5240479,2.4111023,3.5240479,2.9304199Zm-11.9814453,26.2626343c-1.0015869,0-1.0386963.6306152-1.0386963,1.1128235-.0369873,1.1128235-1.0014648,1.66922-1.9659424,1.66922-.8902588,0-.8902588-.8531494-.8902588-1.1870117,0-.2596436.1113281-1.4095459.1113281-1.6321411.0740967-1.3353882.0740967-2.4481812.0740967-4.0061646,0-2.7820435,0-5.6753845-.1112061-8.4203491,0-.2225647-.0742188-1.1499023-.0742188-1.3353882,0-.2596436,0-.5935059.2225342-.5935059.2967529,0,1.520874.7047729,1.7805176.8160706.4822998.1854553,1.0386963.2596741,1.5950928.2596741h8.0494385c.2225342,0,.5192871,0,.9273682-.2225952.2967529-.1483765,1.3724365-1.0757141,1.6691895-1.0757141.6677246,0,2.3369141,1.4837646,2.3369141,1.928894,0,.2225647-.1483154.4451294-.5563965.8531799-.5563965.5563965-.5192871.7789612-.5192871,2.5223999,0,4.2658081.0371094,5.6383057.0371094,6.5656433.0369873.3338318.1483154,3.1159058.1483154,3.2642822,0,1.4095764-1.2983398,1.8547058-1.8918457,1.8547058-.8901367,0-.8901367-.7047729-.8901367-1.2241211,0-.4451294,0-1.1499023-1.0386963-1.1499023h-7.9752197Zm8.0123291-7.3817139c.6306152,0,1.0756836-.2225952,1.0756836-1.0015564,0-3.9690857-.1112061-3.9690857-1.112793-3.9690857h-8.0123291c-.5935059,0-.8902588.2225952-1.0015869.6677246-.0369873.0741577-.0369873,3.041687-.0369873,3.3013611,0,.5935059.2596436,1.0015564,1.0385742,1.0015564h8.0494385Zm0,6.380188c1.0385742,0,1.112793,0,1.112793-4.2658386,0-.7048035-.1854248-1.1128235-1.112793-1.1128235h-8.0494385c-.9644775,0-1.0385742.5935059-1.0385742.6676941v3.6352234c0,.4822388,0,1.0757446,1.0385742,1.0757446h8.0494385Z"/>
        </g>
        <g>
          <path class="cls-1" d="m376.7637246,55.5621338h-5.1850586l1.8417969.4804688c.1401367.0400391.2602539.1201172.2602539.300293,0,.2602539-.4804688.4804688-.6806641.5805664-.0200195.2402344-.0400391,1.3212891-.0600586,1.5415039h1.0810547l.9008789-.8208008c.2001953-.1801758.2802734-.2602539.3603516-.2602539.1000977,0,.1601562.0400391.3603516.2001953l1.0610352.8408203c.1000977.0800781.2001953.1801758.2001953.3203125,0,.1801758-.1801758.2001953-.3203125.2001953h-3.6435547c-.0200195.3203125-.0200195.5605469-.0200195.9208984,1.4013672.1801758,2.7426758.7807617,2.7426758,1.9819336,0,.7006836-.6005859.9208984-.8608398.9208984-.5405273,0-.7807617-.640625-.8608398-.8608398-.2202148-.6005859-.6005859-1.4414062-1.0209961-1.8417969,0,.8007812,0,1.4013672.0200195,2.3222656.0200195.4204102.1000977,2.3222656.1000977,2.7026367,0,.7607422-.6606445.8608398-1.0209961.8608398-.300293,0-.7607422-.1000977-.7607422-.6806641,0-.300293.2202148-3.8037109.2202148-4.0839844v-.7407227c-1.3613281,2.0019531-2.9228516,3.0429688-4.5444336,3.8637695l-.1201172-.1601562c1.4013672-1.2412109,2.4223633-2.7026367,3.1831055-3.9038086.3203125-.5205078.6005859-1.0209961.7207031-1.3012695h-.5405273c-1.2211914,0-1.6616211.0600586-2.1621094.1401367l-.3203125-.7407227c1.2211914.1201172,2.6225586.1201172,2.8427734.1201172h.9609375c.0400391-1.8618164-.0200195-2.1220703-.2202148-2.902832h-1.2612305c-1.2211914,0-1.6616211.0400391-2.1621094.1401367l-.340332-.7407227c1.2211914.1000977,2.6425781.1201172,2.862793.1201172h2.3422852c.7207031-1.581543,1.0810547-2.9628906,1.0410156-4.2441406h-3.0830078c-1.2211914,0-1.6616211.0400391-2.1621094.1401367l-.3203125-.7407227c1.2011719.1000977,2.6225586.1201172,2.8427734.1201172h.7807617c-.0200195-1.0009766-.0200195-1.7016602-.340332-2.8027344l2.2822266.6005859c.1601562.0400391.300293.1000977.300293.2802734,0,.3203125-.4003906.4604492-.6806641.5605469,0,.2202148-.0200195,1.1611328-.0200195,1.3613281h.7607422l.8208008-.9208984c.2001953-.2202148.2202148-.2402344.3203125-.2402344.0800781,0,.1601562.0200195.3603516.2001953l1.0610352.9208984c.1201172.1000977.2001953.1801758.2001953.300293,0,.2001953-.1801758.2202148-.300293.2202148h-2.7626953l1.9018555,1.0810547c.1401367.0800781.2602539.1801758.2602539.3803711,0,.2802734-.2001953.3203125-.7207031.4204102-.4003906.5205078-1.1010742,1.3813477-2.222168,2.3623047h1.5415039l.7207031-.8408203c.2001953-.2202148.2202148-.2402344.3203125-.2402344.1401367,0,.340332.1801758.3603516.2001953l.8808594.8408203c.1201172.1000977.2001953.1801758.2001953.300293,0,.2001953-.1601562.2202148-.300293.2202148Zm-5.425293-.8608398c-.9208984,0-1.0410156-.940918-1.0610352-1.2412109-.0800781-.7006836-.1401367-1.1010742-.7407227-2.1220703l.1601562-.1401367c1.1611328.640625,2.4423828,1.5214844,2.4423828,2.5024414,0,.4404297-.2402344,1.0009766-.8007812,1.0009766Zm14.0537109.2802734h-2.862793c0,.7807617.0200195,2.7626953.0600586,5.7456055.0200195.6005859.1201172,3.543457.1201172,4.2041016,0,.3203125-.0400391.4604492-.2001953.6206055-.2602539.2602539-.6806641.4003906-1.0209961.4003906-.5605469,0-.6005859-.3203125-.6005859-.5405273,0-.5805664.1201172-4.7646484.1201172-4.9248047v-5.5053711h-1.921875c-.1801758,4.184082-.3203125,7.5273438-4.8647461,10.4501953l-.1401367-.1801758c2.5224609-2.6025391,3.4633789-4.9047852,3.4633789-11.831543,0-1.2412109-.0400391-3.9038086-.3803711-4.9448242l1.9619141.9609375c1.1811523-.3603516,2.8427734-1.0009766,3.4633789-1.921875l1.621582,1.5014648c.1201172.1000977.1601562.2402344.1601562.3603516,0,.0800781-.0600586.2202148-.3603516.2202148-.1601562,0-.3203125-.0400391-.7607422-.1601562-1.4614258.3803711-3.4633789.4604492-4.1040039.4404297,0,1.4013672-.0200195,3.0830078-.0600586,4.6245117h3.503418l.940918-1.1010742c.2001953-.2402344.2202148-.2602539.3203125-.2602539.1201172,0,.300293.1601562.3603516.2202148l1.28125,1.1010742c.0800781.0800781.2001953.1801758.2001953.300293,0,.2202148-.2001953.2202148-.300293.2202148Z"/>
          <path class="cls-1" d="m407.457206,60.4268799h-7.2270508c.7807617,1.0810547,3.3632812,3.0629883,7.4272461,3.0429688v.1601562c-1.2211914.4404297-1.7016602,1.4414062-1.921875,1.921875-3.7236328-1.3212891-5.5253906-3.7636719-5.9658203-5.1049805-.0200195.980957,0,2.0620117.0400391,3.3833008,0,.1801758.0400391,1.1210938.0400391,1.3212891,0,.6206055-.5605469.8808594-1.1411133.8808594-.5004883,0-.6806641-.300293-.6806641-.7207031,0-.4804688.1601562-3.1630859.1801758-3.7636719-1.2211914,1.2612305-4.4042969,3.5234375-7.5273438,3.9838867l-.1000977-.1201172c2.5424805-1.3413086,5.2250977-3.6235352,6.40625-4.9848633h-4.4443359c-1.4013672,0-1.7817383.0800781-2.1621094.1401367l-.340332-.7407227c.940918.1000977,1.9018555.1201172,2.862793.1201172h5.3051758c-.0400391-1.2211914-.0600586-1.6616211-.3203125-2.1420898-.9208984.5004883-1.5615234.6206055-2.1220703.7407227l-.0400391-.1401367c2.1621094-1.0410156,2.9829102-3.0229492,2.9829102-4.4443359,0-.3203125-.0400391-.5805664-.1000977-.8007812l-.1201172.0800781-.0800781-.0600586c.3203125-.5405273,2.1020508-4.144043,1.9418945-5.6054688l1.8417969.9208984c.1401367.0600586.2202148.1801758.2202148.300293,0,.1601562-.0800781.2001953-.6005859.4604492-.2402344.4003906-.4204102.6806641-.6806641,1.0810547h3.2231445l.6806641-.940918c.1201172-.1601562.2001953-.2602539.3203125-.2602539.0800781,0,.1601562.0600586.3603516.2202148l1.1411133.940918c.0800781.0600586.2001953.1801758.2001953.300293,0,.2202148-.1801758.2202148-.300293.2202148h-4.5244141c.940918.2602539,1.921875.6206055,1.921875,1.4614258,0,.2402344-.1401367.7006836-.5805664.8808594l.5805664.4604492c.1000977.0800781.1801758.1601562.1801758.340332,0,.0400391,0,.1000977-.1000977.2001953-.0600586.0600586-.4003906.3803711-.4604492.4604492-.0400391.8007812-.0600586,1.0610352-.0600586,1.3413086s-.0200195.6005859.0400391.7407227c.0600586.1801758.1000977.1801758,1.2211914.1801758.9208984,0,1.0610352-.300293,1.6015625-2.1220703h.1201172c.0200195.4404297.1201172,1.2412109.6005859,1.621582q.4404297.3603516.4404297.5004883c0,.2001953-.1000977.4804688-.4003906.7807617-.5405273.5605469-1.0610352.640625-2.2421875.640625-2.5224609,0-2.8227539,0-2.8227539-1.7416992,0-.7006836.1000977-2.2421875.1401367-2.6225586h-2.2421875c-.0200195.5205078-.0400391.8007812-.1201172,1.1411133.1801758.0400391,2.0219727.4204102,2.0219727,1.621582,0,.4804688-.300293.7807617-.7207031.7807617-.5405273,0-.6206055-.340332-.7407227-.8208008-.0600586-.2202148-.2202148-.9008789-.6206055-1.3813477-.1801758.5805664-.5405273,1.5615234-1.921875,2.4223633l1.8818359.5605469c.1000977.0200195.2802734.0800781.2802734.2802734s-.0800781.2802734-.3803711.5805664c-.0400391.4404297-.0400391.6005859-.0600586.8208008h5.1049805l.9008789-1.0810547c.1801758-.2202148.2001953-.2602539.300293-.2602539.1401367,0,.2402344.1000977.3603516.2202148l1.1010742,1.1010742c.1201172.1201172.2001953.1801758.2001953.300293,0,.2001953-.2001953.2001953-.300293.2001953Zm-9.3491211-6.4262695h-2.5224609v2.2822266c1.2011719-.2202148,1.5214844-.2802734,2.1220703-.4204102v.1601562c-1.0009766.6005859-3.9638672,1.8017578-5.4052734,2.4023438-.1801758.340332-.2602539.4804688-.4404297.4804688-.0400391,0-.2001953,0-.300293-.1801758l-.9609375-1.9619141c.3203125.0600586.5405273.0800781.8007812.0800781.5605469,0,2.0820312-.2202148,2.7226562-.3203125v-2.5224609h-1.1210938c-.1000977,0-.4804688,0-.9208984.0600586l-.3203125-.6005859c.7407227.0400391,1.4614258.0600586,1.6015625.0600586h2.8227539l.5605469-.7207031c.1401367-.2001953.2202148-.2602539.300293-.2602539.1201172,0,.300293.1401367.3803711.2202148l.7807617.7207031c.1401367.1401367.2001953.1801758.2001953.300293,0,.2001953-.1801758.2202148-.300293.2202148Zm.3603516-3.1630859h-3.84375c.4404297.1401367,1.9018555.6206055,1.9018555,1.621582,0,.4804688-.3603516.8608398-.7807617.8608398-.5605469,0-.7207031-.4804688-.8608398-.9609375s-.4604492-1.1010742-.9008789-1.5214844c-.9609375,1.1010742-1.8017578,1.8217773-3.1430664,2.6225586l-.0600586-.0800781c1.1010742-1.4814453,2.1621094-2.9228516,2.9829102-4.7646484.1801758-.4204102.2001953-.640625.1801758-1.1210938l1.9018555,1.0209961c.1000977.0600586.2202148.2001953.2202148.2802734,0,.1801758-.0600586.2001953-.7807617.4604492-.340332.4204102-.5405273.6806641-.8808594,1.1010742h1.9619141l.6206055-.7807617c.1401367-.1801758.2202148-.2402344.3203125-.2402344.0600586,0,.1601562.0200195.3603516.2001953l.9208984.7807617c.0800781.0800781.2001953.1801758.2001953.300293,0,.2001953-.2001953.2202148-.3203125.2202148Zm3.8237305,1.1611328c-.340332-.6606445-.5805664-.9008789-.8608398-1.1811523h-.640625c-.4604492.6606445-1.0410156,1.4013672-2.0419922,2.222168l1.1411133.4204102h2.222168l.6206055-.5605469c-.0800781-.1201172-.3603516-.7607422-.4404297-.9008789Z"/>
          <path class="cls-1" d="m419.5725624,49.7965088c.1401367.1000977.2602539.2001953.2602539.3603516,0,.2202148-.340332.340332-.8608398.5004883-1.4013672,3.0029297-4.5644531,5.7856445-6.3862305,6.6264648l-.1000977-.1000977c1.5415039-1.7617188,3.4033203-4.1240234,4.5043945-6.5263672.4804688-1.0410156.5805664-1.5415039.6806641-2.1621094l1.9018555,1.3012695Zm-1.3012695,6.1860352c-1.2211914,0-1.6616211.0400391-2.1621094.1401367l-.3203125-.7407227c1.2011719.1000977,2.6225586.1201172,2.8427734.1201172h5.6855469l.6606445-.5805664c.1801758-.1601562.2802734-.2001953.3803711-.2001953.0800781,0,.2001953.0800781.300293.1801758l.8808594,1.0009766c.1201172.1401367.2001953.2402344.2001953.3203125,0,.2001953-.2402344.3803711-.6206055.640625-.0200195,1.3613281-.1801758,5.2451172-.7207031,6.6865234-.6206055,1.7016602-1.8818359,2.0620117-3.7436523,2.2421875-.0800781-1.1811523-.7807617-1.8618164-1.5014648-2.5424805l.0600586-.1201172c1.1210938.3603516,1.8618164.4604492,2.3623047.4604492.8608398,0,1.2412109-.1000977,1.581543-2.0820312.300293-1.7817383.3203125-4.8447266.300293-5.5253906h-3.6435547c-.0800781,4.5444336-3.1030273,8.9086914-8.0478516,9.5092773l-.0400391-.1201172c5.125-2.3823242,6.2060547-6.3061523,6.3261719-9.3891602h-.7807617Zm4.3642578-6.7866211c-1.2211914,0-1.6616211.0600586-2.1621094.1401367l-.3203125-.7407227c1.1611328.1201172,2.5024414.1201172,2.9428711.1201172l.8007812-.7807617c.1201172-.1000977.2001953-.2001953.3203125-.2001953.1401367,0,.2001953.0600586.340332.2001953l.8007812.8208008c.1201172.1401367.1801758.2001953.1801758.300293,0,.2402344-.4604492.4804688-1.2612305.6606445.940918,2.4423828,4.1240234,4.9648438,7.3271484,5.3051758l.0400391.2202148c-1.3212891.5004883-1.7016602,1.2011719-2.0219727,1.7617188-4.1240234-1.7416992-5.7456055-6.9467773-5.9858398-7.8076172h-1.0009766Z"/>
          <path class="cls-1" d="m439.6758339,51.6783447l.5605469-.6606445c.1801758-.2001953.2001953-.2402344.300293-.2402344.1201172,0,.300293.1201172.3803711.2001953l.7006836.6606445c.1401367.1401367.2001953.1801758.2001953.3203125,0,.1801758-.1601562.2001953-.300293.2001953h-4.0039062c-1.2211914,0-1.6616211.0600586-2.1621094.1401367l-.340332-.7407227c.9609375.0800781,1.9018555.1201172,2.862793.1201172h1.8017578Zm4.5844727,7.7675781c-1.2211914,0-1.6616211.0600586-2.1621094.1401367l-.3203125-.7407227c1.1811523.1201172,2.4824219.1201172,3.1030273.1201172v-1.8017578c-.9008789,0-1.3012695.0200195-1.9418945.1401367l-.3203125-.7407227c.8808594.0800781,1.4013672.1000977,2.262207.1000977v-1.581543c-1.2412109,0-1.7617188,0-2.4624023.1401367l-.3203125-.7407227c.7807617.0600586,1.9619141.1201172,2.7827148.1201172,0-.7807617-.0400391-1.1811523-.1201172-1.9018555-.2001953.1000977-1.2211914.6005859-3.3232422,1.1010742l-.0400391-.1401367c1.5214844-.980957,2.5424805-1.7416992,3.3632812-2.9228516l1.2211914,1.0209961c.0600586.0600586.2202148.2802734.2202148.4204102,0,.2402344-.2802734.2402344-.3803711.2402344-.2001953,0-.2202148,0-.5805664.0200195-.2001953.1201172-.2402344.1401367-.4404297.2402344l1.581543.5205078c.3803711.1201172.4604492.1401367.4604492.340332,0,.1000977,0,.1601562-.5004883.5605469v.5004883h1.8017578c0-.4204102,0-1.0209961-.2402344-1.9619141l1.6816406.5004883c.2402344.0800781.4404297.1201172.4404297.3803711,0,.1801758-.300293.4003906-.4404297.5205078v.5605469h1.0209961l.4003906-.6806641c.0400391-.0800781.2001953-.2602539.3203125-.2602539.1000977,0,.2802734.1601562.3603516.2202148l.7006836.6806641c.1601562.1601562.2001953.2001953.2001953.300293,0,.1801758-.1601562.2202148-.300293.2202148h-2.7026367v1.6015625h.8408203l.4604492-.5805664c.1601562-.2001953.2001953-.2402344.300293-.2402344s.1201172.0200195.3803711.2001953l.7807617.5805664c.0200195.0200195.2001953.1401367.2001953.300293,0,.2001953-.1801758.2202148-.3203125.2202148h-2.6425781v1.8017578h1.2412109l.7407227-.8208008c.2001953-.2202148.2202148-.2402344.3203125-.2402344.1201172,0,.2802734.1201172.3603516.2001953l.7407227.8208008c.1201172.1201172.2001953.2202148.2001953.3203125,0,.1801758-.1601562.2001953-.300293.2001953h-2.0419922l1.1811523.9008789c.3203125.2602539.3203125.3603516.3203125.4604492,0,.2202148-.1601562.3803711-.4404297.3803711-.1201172,0-.300293-.0400391-.340332-.0600586-.3803711.1000977-1.9819336.5004883-2.3222656.5605469,1.28125,1.2412109,2.7226562,1.8818359,4.5244141,2.1821289v.1201172c-.8408203.3603516-1.2211914.6806641-1.7617188,1.5014648-2.4624023-1.0810547-3.84375-3.3833008-4.6245117-6.0458984h-.3603516c-.5805664.6005859-.8608398.8208008-1.1411133,1.0410156v2.6625977c1.3212891-.3603516,1.9819336-.640625,2.3623047-.8208008l.0800781.1401367c-.3803711.2802734-1.0009766.7607422-2.3022461,1.5415039-.7407227.4404297-1.8217773,1.0810547-2.2021484,1.3212891-.1201172.4404297-.1401367.5405273-.3603516.5405273-.1201172,0-.2802734-.0800781-.3803711-.2402344l-1.1411133-1.8618164c.2202148.0200195.4404297.0600586.7207031.0600586.3203125,0,.5605469-.0200195,1.7617188-.300293v-1.9819336c-1.6015625,1.0209961-2.7827148,1.3813477-3.2631836,1.5214844,0,.1201172.0600586.7207031.0600586.8408203,0,.6005859-.4604492.980957-1.0209961.980957-.4003906,0-.6005859-.1601562-.6005859-.6005859v-.2802734h-1.9418945c.1000977.8808594-.0600586,1.6015625-.9208984,1.6015625-.7807617,0-.7807617-.3803711-.7807617-.6806641,0-.0800781.0800781-3.7436523.0800781-4.4443359,0-.6005859-.0200195-1.7617188-.1601562-2.2822266l2.0019531.980957h1.5415039l.6005859-.7006836c.0800781-.1000977.2202148-.2402344.340332-.2402344.0800781,0,.1801758.0800781.2602539.1401367l.8808594.7607422c.1401367.1201172.1401367.2001953.1401367.2802734,0,.1801758,0,.2001953-.5205078.7207031,0,1.921875,0,2.1220703.0200195,2.6625977.9208984-.6806641,2.9428711-2.4423828,3.6635742-3.3632812h-.5405273Zm-4.6645508-5.8657227c.2202148-.2202148.2802734-.2402344.3603516-.2402344.1000977,0,.2602539.1401367.3203125.2202148l.5805664.6206055c.1201172.1401367.2001953.2001953.2001953.300293,0,.1801758-.1801758.2202148-.300293.2202148h-2.3222656c-1.2211914,0-1.6616211.0400391-2.1621094.1201172l-.340332-.7207031c1.3012695.1000977,2.7226562.1201172,2.9829102.1201172l.6806641-.640625Zm-.0800781-5.0249023c.1801758-.2202148.2202148-.2602539.3203125-.2602539.0600586,0,.2802734.1401367.3803711.2001953l.8208008.5605469c.0400391.0200195.2001953.1601562.2001953.300293,0,.2001953-.1801758.2202148-.300293.2202148h-2.4624023c-1.2211914,0-1.6616211.0400391-2.1621094.1201172l-.340332-.7207031c1.2011719.1000977,2.5024414.1201172,3.1030273.1201172l.4404297-.5405273Zm.0200195,7.6875c.0400391-.0600586.1801758-.2602539.300293-.2602539.1000977,0,.2602539.1401367.3603516.2202148l.7006836.6206055c.1401367.1401367.2001953.2001953.2001953.3203125,0,.1801758-.1601562.2001953-.300293.2001953h-2.3222656c-1.2211914,0-1.6616211.0600586-2.1621094.1401367l-.340332-.7407227c1.2011719.1201172,2.5024414.1201172,3.1030273.1201172l.4604492-.6206055Zm-1.8818359,3.4233398v3.8637695h1.9418945v-3.8637695h-1.9418945Zm12.7724609-9.5292969l.6005859-.8007812c.1801758-.2402344.2602539-.2402344.3203125-.2402344.1000977,0,.2802734.1401367.3603516.2001953l.8408203.8007812c.1601562.1601562.2001953.2001953.2001953.3203125,0,.1801758-.1601562.2001953-.300293.2001953h-7.7275391c-1.2211914,0-1.6616211.0600586-2.1621094.1401367l-.340332-.7407227c.9609375.1000977,1.9018555.1201172,2.862793.1201172h1.3613281c-.0400391-1.5415039-.1201172-1.7617188-.4003906-2.3623047l2.222168.4804688c.1601562.0400391.340332.1401367.340332.340332,0,.2402344-.2402344.4003906-.5205078.5605469v.980957h2.3422852Zm-4.0839844,4.9448242v1.6015625h1.8017578v-1.6015625h-1.8017578Zm1.8017578,3.8837891v-1.8017578h-1.8017578v1.8017578h1.8017578Zm-.4204102.4804688c.3603516.8408203.8208008,1.4814453,1.2412109,1.9418945.1601562-.1601562,1.2412109-1.1611328,1.621582-1.9418945h-2.862793Zm.4204102-8.2880859c2.262207-.1201172,4.2641602.7607422,4.2641602,1.7817383,0,.5205078-.5605469.7207031-.7607422.7207031-.340332,0-.4604492-.1201172-1.5615234-1.1010742-.2202148-.1801758-.980957-.8608398-1.9819336-1.28125l.0400391-.1201172Z"/>
          <path class="cls-1" d="m463.422538,49.5162354c-.340332.8208008-.6806641,1.6015625-1.2412109,2.6225586l.2802734.1801758c.1601562.1000977.2001953.1801758.2001953.2602539,0,.0600586-.0200195.1601562-.0800781.2402344s-.4003906.340332-.4604492.4204102c0,.7407227.0800781,8.0678711.0800781,8.1879883.0400391.7006836.1801758,2.8027344.1801758,3.4033203,0,.9609375-.5605469,1.2011719-1.1811523,1.2011719-.6606445,0-.8408203-.2402344-.8408203-.7607422,0-.3203125.1000977-1.7216797.1201172-2.0219727.0600586-1.3613281.0600586-1.4213867.1000977-6.3862305,0-1.1210938.0200195-1.2412109.0200195-2.2421875-1.3212891,1.7216797-2.5424805,2.6225586-3.0830078,3.0229492l-.1201172-.1000977c1.5014648-2.1420898,3.5634766-6.2260742,4.3442383-8.7685547.1201172-.3803711.1401367-.6206055.2402344-1.4213867l2.0419922,1.1811523c.0800781.0400391.2602539.1401367.2602539.3803711,0,.2802734-.340332.4404297-.8608398.6005859Zm12.0717773,15.1347656h-10.4101562c-1.4013672,0-1.7817383.0600586-2.1621094.1401367l-.340332-.7407227c.9609375.0800781,1.9018555.1201172,2.862793.1201172h2.4223633v-5.9658203h-1.4814453c-1.3813477,0-1.7817383.0600586-2.1621094.1401367l-.3203125-.7407227c.940918.0800781,1.8818359.1201172,2.8427734.1201172h1.1210938v-4.9848633h-2.3623047c-1.3813477,0-1.7617188.0600586-2.1621094.1201172l-.3203125-.7207031c.940918.0800781,1.9018555.1201172,2.8427734.1201172h6.0859375l.6806641-1.1811523c.0600586-.1000977.1801758-.3203125.340332-.3203125.1000977,0,.2202148.1201172.3603516.2202148l1.581543,1.2412109c.0800781.0600586.2001953.1601562.2001953.300293,0,.2001953-.2001953.2202148-.300293.2202148h-5.2451172v4.9848633h1.9819336l.6806641-1.0209961c.0800781-.1201172.1801758-.2602539.3203125-.2602539.1201172,0,.2402344.1000977.3603516.2001953l1.4013672,1.0410156c.0800781.0600586.2001953.1801758.2001953.300293,0,.2001953-.2001953.2202148-.300293.2202148h-4.6445312v5.9658203h3.0629883l.9208984-1.1411133c.0800781-.1000977.1801758-.2602539.300293-.2602539.1401367,0,.2202148.1000977.3803711.2202148l1.3613281,1.1411133c.0800781.0600586.2001953.1601562.2001953.300293,0,.2001953-.2001953.2202148-.300293.2202148Zm-6.5664062-12.8525391c-.7407227,0-.8808594-.5004883-1.2211914-1.7216797-.0800781-.3203125-.5605469-1.621582-1.0209961-2.2822266l.1201172-.1201172c1.0810547.4804688,3.0830078,1.3613281,3.0830078,3.0029297,0,.7407227-.4404297,1.1210938-.9609375,1.1210938Z"/>
          <path class="cls-1" d="m496.2981484,52.2789307c-.7607422.5805664-1.1611328.8408203-1.9418945,1.1811523l-.0600586-.0800781c.3803711-1.1210938.4204102-1.4013672.5405273-2.1420898h-11.2709961c.1201172,1.9619141-.8608398,3.4233398-2.0620117,3.4233398-.640625,0-1.0009766-.4804688-1.0009766-.9008789,0-.6005859.4404297-.940918,1.4614258-1.7416992.2001953-.1601562.8808594-.6806641,1.2011719-2.1821289h.1201172c.1000977.2602539.1601562.5004883.2402344.9208984h4.9047852c0-2.0419922-.0600586-2.1420898-.4604492-3.2832031l2.262207.640625c.1401367.0400391.3603516.1000977.3603516.3203125,0,.1801758-.0400391.2202148-.5405273.6606445v1.6616211h4.784668l.6005859-.640625c.1000977-.1000977.2402344-.2202148.4204102-.2202148.1201172,0,.2001953.0400391.4003906.2402344l1.28125,1.2211914c.0200195.0200195.2602539.2602539.2602539.5405273,0,.3803711-.1801758.3803711-1.5014648.3803711Zm1.4414062,12.3520508c-.980957.7407227-4.3442383.7407227-5.7055664.7407227-4.6645508,0-4.8046875-.1801758-4.6845703-5.5654297l-4.1640625.7807617c-1.1210938.2001953-1.4614258.2602539-2.1220703.5004883l-.4404297-.6606445c.9008789-.0800781,1.921875-.2202148,2.8227539-.3803711l3.9038086-.7207031c.0200195-1.5615234.0400391-2.0219727.0600586-3.4433594-1.9418945.5405273-4.4243164,1.0410156-6.5463867,1.0209961v-.1801758c.4804688-.1201172,7.6274414-2.2421875,10.0097656-3.9438477.3203125-.2202148.5805664-.5004883.8208008-.8208008l1.4013672,1.5615234c.1401367.1601562.1601562.3203125.1601562.340332,0,.2602539-.1000977.2602539-1.0009766.340332-.7807617.3203125-1.8618164.7807617-3.1430664,1.1811523-.0200195,1.3012695-.0200195,1.4614258-.0800781,3.6235352l5.6855469-1.0410156.8208008-1.3813477c.1801758-.2802734.2001953-.300293.3203125-.300293.0400391,0,.1000977,0,.3603516.1401367l1.5415039.9008789c.1000977.0400391.2402344.1401367.2402344.300293s-.1401367.2001953-.2602539.2202148l-8.7285156,1.6416016c-.0200195,2.0820312-.0200195,2.222168.0400391,3.1430664.0400391.4804688.0600586.8208008.4404297.9609375.2802734.1201172,3.0029297.1201172,3.503418.1201172.7207031,0,2.5825195-.0600586,3.0029297-.7207031.4604492-.7407227.7407227-2.2822266.8808594-3.0830078h.1000977c.1601562.6606445.2602539,1.1411133.4804688,1.9619141.2001953.8007812.2202148.9008789.4604492,1.1010742.2802734.2802734.4003906.4003906.4003906.640625,0,.2602539-.1801758.7006836-.5805664,1.0209961Z"/>
          <path class="cls-1" d="m529.1549599,56.3028564c-3.9438477-1.5415039-7.046875-5.0849609-7.7875977-7.046875-2.222168,3.4633789-7.0268555,7.6474609-10.0498047,8.2080078l-.0800781-.1000977c2.5825195-1.9418945,5.3452148-4.144043,7.9477539-8.4082031.5405273-.8808594.6206055-1.0810547.7807617-1.6015625l2.0820312,1.1411133c.1401367.0800781.1601562.1401367.1601562.2602539,0,.1801758-.1401367.340332-.4604492.3603516,1.3613281,2.2822266,5.6855469,4.824707,9.0888672,5.125v.1201172c-.9208984.5805664-1.5415039,1.4213867-1.6816406,1.9418945Zm.0200195,8.7084961h-13.8935547c-1.2412109,0-1.6616211.0600586-2.1621094.1401367l-.340332-.7407227c1.2211914.1201172,2.6425781.1201172,2.862793.1201172h4.4042969v-3.8837891h-3.0229492c-1.2412109,0-1.6616211.0400391-2.1621094.1401367l-.340332-.7407227c1.2211914.1000977,2.6425781.1201172,2.862793.1201172h2.6625977v-3.5834961h-1.6616211c-1.2211914,0-1.6616211.0400391-2.1621094.1201172l-.3203125-.7207031c1.2211914.1000977,2.6225586.1201172,2.8427734.1201172h4.7045898l.8608398-1.0209961c.2001953-.2202148.2202148-.2602539.3203125-.2602539.0800781,0,.1000977.0400391.3603516.2202148l1.3613281,1.0209961c.0400391.0200195.2001953.1401367.2001953.300293,0,.1801758-.1601562.2202148-.300293.2202148h-4.5644531v3.5834961h2.6425781l.9008789-1.0410156q.2202148-.2402344.3203125-.2402344c.0600586,0,.1401367.0200195.3603516.2202148l1.2211914,1.0209961c.1000977.0800781.2001953.1601562.2001953.300293,0,.1801758-.1601562.2202148-.300293.2202148h-5.3452148v3.8837891h4.5444336l.980957-1.1210938q.2202148-.2402344.300293-.2402344c.1201172,0,.1601562.0200195.3803711.2001953l1.3813477,1.1210938c.1201172.1000977.2001953.1801758.2001953.300293,0,.2001953-.1601562.2202148-.300293.2202148Z"/>
          <path class="cls-1" d="m543.3865273,52.6358032c2.6662598,0,5.251709,2.1815186,5.251709,6.0596924,0,4.4437256-3.5012207,6.9214478-6.4367676,6.9214478-3.151001,0-7.0560303-2.7739868-7.0560303-9.2106934,0-5.7095337,3.1240234-11.4459839,8.3757324-11.4459839,2.3699951,0,4.255249,1.1580811,4.255249,2.7470703,0,.9694824-.7271729,1.6428223-1.7506104,1.6428223-1.050293,0-1.9121094-.7271729-1.9121094-1.6967163,0-.2423706.1346436-.7540894.1346436-.8887329,0-.7540894-.6733398-.942627-1.3197021-.942627-.99646,0-3.8781738.8887329-4.4437256,9.1029053,1.7236328-1.6697388,3.5819092-2.2891846,4.9016113-2.2891846Zm-1.1580811,12.1193237c2.2891846,0,3.204834-3.0702515,3.204834-5.6557007,0-3.3126221-1.3195801-5.1708984-3.0701904-5.1708984-.2692871,0-2.154541,0-3.9050293,2.100708.0806885,2.7470093.2692871,8.7258911,3.7703857,8.7258911Z"/>
          <path class="cls-1" d="m564.9299843,64.010376c-1.5014648,0-3.8037109-3.0029297-4.1640625-9.1689453h-2.5224609l.0400391,5.5053711c.4604492-.1401367,2.4824219-.7407227,2.902832-.8608398v.1601562c-1.3413086,1.0209961-2.4223633,1.621582-4.7246094,2.8828125-.1000977.3603516-.1601562.6005859-.4804688.6005859-.2001953,0-.300293-.1601562-.3603516-.2602539l-1.1811523-2.0219727c.3603516.0400391.5605469.0600586.8007812.0600586.6005859,0,1.1010742-.1000977,1.4414062-.1801758-.0200195-1.8017578-.0400391-9.1088867-.1201172-10.3100586-.0800781-.9609375-.1401367-1.2211914-.2202148-1.6816406l1.7817383.7607422c1.28125-.2602539,3.2832031-.8808594,4.3842773-1.3813477.5605469-.2602539.7207031-.5605469.8408203-.7807617l1.3012695,1.6015625c.0400391.0600586.1201172.1401367.1201172.2602539,0,.2402344-.2202148.2602539-.3603516.2602539-.2402344,0-.5205078-.0800781-.7006836-.1201172-.4604492.1000977-.8208008.2001953-1.581543.300293,0,1.8417969.0400391,3.3232422.1201172,4.7246094h.8208008l.6206055-.940918c.0800781-.1000977.1801758-.2602539.3203125-.2602539.1201172,0,.2802734.1401367.3603516.2001953l1.1210938.9609375c.1000977.1000977.2001953.1801758.2001953.3203125,0,.1801758-.1601562.2001953-.300293.2001953h-3.1030273c.2602539,4.6645508,1.8818359,6.706543,2.0820312,6.706543.2602539,0,.7807617-.7607422,1.1010742-1.3212891l.1601562.1000977c-.0600586.2802734-.2802734,1.5415039-.2802734,1.7216797,0,.2202148.0200195.2802734.2402344.7207031.0800781.1401367.1201172.300293.1201172.4404297,0,.2402344-.1401367.8007812-.7807617.8007812Zm-2.1420898.3603516h-3.84375c-1.2211914,0-1.6616211.0400391-2.1621094.1401367l-.3203125-.7407227c1.2211914.1000977,2.6225586.1201172,2.8427734.1201172h1.0810547l.6206055-.8608398c.1000977-.1401367.2001953-.2602539.3203125-.2602539s.2402344.1000977.3603516.2001953l1.2011719.8808594c.1000977.0800781.2001953.1801758.2001953.300293,0,.2001953-.1801758.2202148-.300293.2202148Zm-2.1821289-14.5742188c-.6606445.0600586-1.3413086.0800781-2.4423828.1000977,0,.640625.0600586,3.7636719.0600586,4.4643555h2.5224609c-.0400391-.9609375-.1000977-2.3022461-.1401367-4.5644531Zm8.7285156,13.9736328c-.1201172-1.1411133-.7807617-1.8017578-1.4614258-2.4423828l.1201172-.1401367c.4604492.1000977,1.5014648.340332,2.0419922.340332.640625,0,.8408203-.5605469.8408203-1.28125,0-1.6816406-.6606445-3.4033203-2.5024414-5.1450195,1.1210938-3.3432617,1.28125-4.3242188,1.5214844-5.765625h-2.3623047c.0200195.8007812.0400391,6.5063477.0400391,7.7275391.0200195,1.2612305.1000977,6.9067383.1000977,8.0678711,0,.6806641-.6206055,1.0009766-1.2011719,1.0009766-.5205078,0-.5205078-.5205078-.5205078-.8808594,0-.0600586,0-.7607422.0200195-.8608398,0-.5805664.0800781-3.7836914.0800781-5.4853516,0-2.222168.0200195-8.4682617-.1601562-9.909668,0-.0800781-.1201172-.980957-.1401367-1.1611328l1.9418945,1.0209961h2.1220703l.7006836-.4604492c.0600586-.0400391.2402344-.1401367.300293-.1401367s.1401367.0400391.2602539.1601562l1.2011719,1.0810547c.1000977.1000977.2001953.2802734.2001953.4804688,0,.4404297-.4204102.5605469-1.0009766.6806641-.1601562.3203125-.4404297.8608398-1.1811523,2.0019531-1.1611328,1.8217773-1.3012695,2.0219727-1.4614258,2.3022461,3.84375,2.0820312,3.84375,5.1650391,3.84375,5.5654297,0,.6806641-.340332,3.0830078-3.3432617,3.2431641Z"/>
        </g>
      </g>
    </g>
  </g>
</svg>