<?xml version="1.0" encoding="UTF-8"?>
<svg id="_レイヤー_2" data-name="レイヤー 2" xmlns="http://www.w3.org/2000/svg" viewBox="0 0 263.6781095 112.59091">
  <defs>
    <style>
      .cls-1 {
        fill: #231815;
      }

      .cls-1, .cls-2, .cls-3, .cls-4 {
        stroke-width: 0px;
      }

      .cls-2 {
        fill: #1e2b68;
      }

      .cls-4 {
        fill: #c81d1d;
      }
    </style>
  </defs>
  <g id="_レイヤー_2-2" data-name="レイヤー 2">
    <path class="cls-2" d="m10.8570061,18.0839492h1.7610308c.5693847,0,1.2995624.0951779,1.2995624.7760841v6.1245174s-1.9809493.7270868-5.5594928.7270868c-3.5766206,0-8.3581065-1.9694126-8.3581065-7.4241134,0-5.451336,4.9881852-7.5733696,8.6724818-7.5733696,1.6632091,0,3.7366925.098062,3.7366925,1.0313338v1.8208774c-1.3997876-1.1421343-1.9679705-1.353915-4.0948112-1.353915-2.1354932,0-5.9546251,1.3974181-5.9546251,5.9515344,0,4.5305623,5.1208574,7.2359208,9.384393,5.5236808v-3.4764292c0-.7291824-.0576836-2.1272875-.887125-2.1272875Z"/>
    <path class="cls-2" d="m37.6007836,25.34054h4.5125363c-1.2430806-.4669964-1.7610308-1.9674898-2.1789962-3.0608335-.4201285-1.0856525-3.6876615-9.031081-4.0436171-10.1217808-.3710975-1.0878156-.881597-1.0878156-1.3072535-1.0878156h-2.5837425c1.2406771.4174847.557127,1.2995623.3504276,1.9210686-.2035749.6186901-4.5615673,11.4235403-4.5615673,11.4235403-1.5086653-.4150812-5.3071272-5.9721704-5.3071272-5.9721704,5.0360145-1.4490589,4.2676215-7.3724386-.6684082-7.3724386h-5.6597179c1.1450185.2581339,1.0416688,1.4569904,1.0416688,2.3902622v9.8093283c0,1.3464302-.417004,1.7148502-1.0906998,2.0708395h4.1491299c-1.1397309-.5160274-.8359308-1.7122401-.8359308-2.2818652v-10.5832493h2.2388429c1.1995776,0,2.0756465,1.4545869,2.0756465,2.4416967,0,1.5990361-1.2505314,2.225864-2.4880839,2.6902166-1.2507717.4662754-.5725093,1.505781,0,2.33354.5691444.8330466,2.2280272,3.1737633,3.2228282,4.3166524.9827835,1.1423747,1.8665436,1.0830087,2.3313769,1.0830087h3.7364521c-1.4464151-.4614684-.6705713-1.5983151-.4667561-2.1708243.2122274-.5753934,1.1428554-3.014927,1.1428554-3.014927h5.6063607s.6780221,1.7610308,1.2995624,3.3261778c.6292314,1.5497648.1490158,1.7588676-.5157871,1.8595735Zm-5.817867-6.8467972l2.1268407-5.554205,2.2878739,5.554205h-4.4147146Z"/>
    <path class="cls-2" d="m83.0705653,25.34054h4.5257554c-1.2538962-.4669964-1.7687219-1.9674898-2.1811593-3.0608335-.4126778-1.0856525-3.6886229-9.031081-4.0489047-10.1217808-.3670116-1.0878156-.8772707-1.0878156-1.3029273-1.0878156h-2.5904722c1.2529348.4174847.5693847,1.2995623.3581187,1.9210686-.2066994.6186901-4.5692584,11.4235403-4.5692584,11.4235403-.2893792.6782624-.7150357.688357-.9827835.925821h3.7388556c-1.4543466-.4614684-.6760993-1.5983151-.4691596-2.1708243.205738-.5753934,1.1471817-3.014927,1.1471817-3.014927h5.6041975s.6835501,1.7610308,1.3038886,3.3261778c.6193771,1.5497648.1502176,1.7588676-.5333325,1.8595735Zm-5.8065706-6.8467972l2.1268407-5.554205,2.2823459,5.554205h-4.4091866Z"/>
    <path class="cls-2" d="m67.1013544,25.6061247c.5179502-.4691596.9871098-.8354838.9871098-2.4914825v-9.811698c0-.7758438-.0598467-1.6658529-.9871098-1.9747002h3.989058c-.4124374.3682133-.9056318.8296817-.9056318,1.8742347v9.9121635c0,.8849956-.1807418,2.1850386.9642767,2.4914825h-4.047703Z"/>
    <path class="cls-2" d="m45.5918785,14.388837s-.0511942,7.836517-.0511942,8.7258052c0,.8849956.1055128,2.1850386,1.2474068,2.4914825h-3.7931743c.5290063-.4691596.9337525-.8354838.9337525-2.4914825,0-1.6576473.1110408-9.0404209.1110408-9.811698,0-.7758438-.1110408-1.6658529-1.0447934-1.9747002h2.916865l8.7162252,10.9514626v-8.9222033c0-.5751531.1055128-1.6610459-1.0885367-2.0761272h3.8912363c-.4614684.3557152-1.1483834.5157871-1.1483834,2.0215681v12.8804967s-1.0830087.1987679-2.8440395-1.9259096c-1.7708851-2.1246775-7.8464053-9.8686943-7.8464053-9.8686943Z"/>
    <path class="cls-4" d="m70.4013343,36.6585335c-11.4162962-9.6238132-15.786306-20.9494642-.1696858-36.4036086.4898295-.4895891.9534611-.1985276.5691444.2396271-6.8439132,7.8266624-14.4792928,20.3430658-.156707,35.6871309.2220817.2319359.1394019.7424354-.2427516.4768507Z"/>
    <g>
      <path class="cls-1" d="m10.2077115,50.1781902c0-.3448486.4827881-.3448486.758667-.3448486,2.4139404,0,3.2070923,1.7932129,3.2070923,1.9311523,0,.4138184-.3448486.8621216-1.0345459,1.7242432-.1724243.241394-.2758789.3793335-.2758789.5517578,0,.2758789.4138184.2758789.5517578.2758789.3448486,0,2.8967285-.3793335,5.2416992-1.3793945.4138184-.1724243,1.2414551-.5517578,1.6207886-.5517578.3103638,0,.4827881.1034546,1.8966675.9310913.2069092.1034546,1.1035156.5862427,1.2759399.6896973.3793335.241394.6552124.5862427.6552124.8621216,0,.4827881-.241394.6207275-1.3793945,1.3104248-.3793335.241394-.5172729.4483032-1.7242432,2.3104858-1.758728,2.7587891-5.4830933,8.4143066-12.3455811,12.9663086-3.793335,2.4829102-6.6555786,3.3105469-6.8624878,3.3105469-.1724243,0-.3103638-.1379395-.3103638-.3103638,0-.1379395.1034546-.2069092,1.1724854-.7931519,10.5178833-5.793457,17.0700073-17.5527954,17.0700073-18.6218262,0-.3103638-.2758789-.3793335-.3793335-.3793335-.0689697,0-4.8278809,1.0690308-5.6555176,1.0690308-.2069092,0-1.1380005-.1034546-1.3449097-.1034546-.6552124,0-.7241821.0689697-2.1725464,1.7242432-2.1035767,2.3449707-2.9656982,3.2415771-4.6899414,4.4830322-1.4138794,1.0345459-2.8967285,1.8276978-3.3105469,1.8276978-.1724243,0-.241394-.1034546-.241394-.2069092,0-.241394,2.3104858-2.1725464,2.7243042-2.5863647,2.7932739-2.7932739,6.0693359-7.5521851,5.793457-9.6212769-.0344849-.1724243-.241394-.9310913-.241394-1.0690308Zm16.2423706,1.1724854c0,.5862427-.4138184,1.3449097-1.000061,1.3449097-.4827881,0-.758667-.2069092-1.8276978-1.4828491-.6896973-.7931519-1.0345459-1.0345459-2.4484253-2.0346069-.1724243-.1034546-.5172729-.3448486-.5172729-.4827881s.2758789-.3103638.5862427-.3103638c4.4140625,0,5.2072144,2.5518799,5.2072144,2.9656982Zm.8276367-5.2072144c1.4138794.8276367,1.4138794,1.6207886,1.4138794,1.9656372,0,.5172729-.3448486,1.000061-.8621216,1.000061-.7241821,0-1.0690308-.3448486-1.8276978-1.1380005-.5517578-.5862427-2.0001221-1.3793945-3.1726074-1.6897583-.3448486-.1034546-.4483032-.2758789-.4483032-.3793335,0-.2758789.8966064-.4827881,1.2414551-.4827881,1.3449097,0,2.4829102,0,3.6553955.7241821Z"/>
      <path class="cls-1" d="m38.5598844,73.0071697c10.7592773-5.793457,13.5870361-13.2421875,13.5870361-13.9663696,0-.4138184-.241394-.6552124-.7241821-.6552124-1.1724854,0-9.828186,1.517334-11.34552,1.9656372-.241394.0689697-1.3449097.5862427-1.5863037.5862427-1.4828491,0-3.9312744-2.9656982-3.9312744-3.9312744,0-.1034546.1034546-.1724243.2069092-.1724243s.5172729.241394.6207275.2758789c.6552124.2758789,1.9656372.5862427,3.4140015.5862427,2.8277588,0,9.6902466-.8966064,10.9661865-1.0345459.0689697,0,2.3449707-.2069092,2.3794556-.2069092.1724243-.0689697.8276367-.3793335,1.000061-.3793335.5862427,0,3.034668,2.0346069,3.034668,2.8277588,0,.5172729-.1379395.6552124-.9310913,1.3104248-.5862427.4827881-.9310913,1.000061-1.8621826,2.4484253-2.7243042,4.1381836-4.8623657,6.7245483-9.7247314,9.2074585-3.0691528,1.5518188-5.793457,2.2415161-6.1038208,2.2415161-.2758789,0-.3103638-.2069092-.3103638-.2758789s.0344849-.1724243.0689697-.2069092c.0689697-.0689697,1.0345459-.5172729,1.2414551-.6207275Zm.8621216-22.5531006c.5517578.1379395,1.3449097.1379395,1.8276978.1379395,1.6207886,0,3.8967896-.0689697,5.5175781-.3793335.5172729-.1034546,2.8967285-.6896973,3.3795166-.6896973.5862427,0,2.1035767.3103638,2.1035767,1.3104248,0,1.0690308-1.2069702,1.1724854-3.2070923,1.3449097-.5517578.0689697-7.9660034.7241821-8.2073975.7241821-1.8276978,0-2.8622437-2.3449707-2.8622437-2.5863647,0-.1724243.0689697-.241394.2069092-.241394.2069092,0,1.0345459.3448486,1.2414551.3793335Z"/>
      <path class="cls-1" d="m73.3259977,67.8689251c-.8966064.6552124-2.6553345,1.9656372-3.3795166,2.8277588-.6552124.7931519-.7241821.8621216-1.2414551.8621216-1.8621826,0-4.4140625-2.2070312-4.4140625-3.5864258,0-.241394.0344849-1.8276978.3448486-1.8276978.1379395,0,.8966064.5862427,1.0345459.6552124.4483032.2758789,1.5863037.7931519,2.3449707.7931519,1.6897583,0,10.8282471-6.1038208,16.5527344-11.7593384.5517578-.5517578,1.517334-1.517334,1.5863037-1.517334s.1724243.1034546.1724243.1724243c0,.3103638-4.034729,6.7590332-13.0007935,13.380127Zm-2.8277588-11.34552c-.9310913,0-1.2759399-.5517578-2.4139404-2.276001-1.1724854-1.758728-2.1725464-2.276001-3.1381226-2.8277588-.1379395-.0689697-.3103638-.1724243-.3103638-.3103638s.2758789-.3103638.758667-.3103638c3.6898804,0,6.5866089,1.9656372,6.5866089,4.0002441,0,1.0345459-.5862427,1.7242432-1.4828491,1.7242432Z"/>
      <path class="cls-1" d="m99.0914396,60.1788006c0,.6896973-.5172729,1.7242432-1.3449097,1.7242432-.5172729,0-.6896973-.2069092-1.2069702-1.0690308-.7241821-1.2414551-1.8966675-2.1380615-3.1381226-2.8622437-.1034546-.0689697-.3103638-.2069092-.3103638-.3448486,0-.4827881,1.9656372-.5172729,2.4139404-.5172729,1.4828491,0,3.5864258,1.3793945,3.5864258,3.0691528Zm-4.2416382,10.6903076c-.1034546-.1724243-.7241821-.8966064-.8276367-1.0690308s-.2069092-.4483032-.2069092-.6552124c0-.1379395.1034546-.241394.3103638-.241394.3103638,0,1.6207886.4483032,1.8966675.4483032,1.4828491,0,10.7592773-5.1727295,19.0011597-14.5181274.1724243-.2069092,1.3793945-1.5518188,1.4828491-1.5518188.0689697,0,.1379395.0344849.1379395.1379395,0,.3793335-3.034668,7.7590942-17.3114014,17.7597046-.4138184.2758789-2.0690918,1.8276978-2.517395,1.8276978-.758667,0-1.1035156-.5517578-1.9656372-2.1380615Zm8.3798218-17.5527954c0,.7931519-.5517578,1.5518188-1.1035156,1.5518188-.3793335,0-.5517578-.1379395-1.7932129-1.6207886-.9310913-1.1035156-2.1380615-1.5863037-2.9656982-1.8276978-.1379395-.0344849-.5172729-.1379395-.5172729-.241394s.9655762-.6552124,2.6553345-.6552124c3.7243652,0,3.7243652,2.6898193,3.7243652,2.7932739Z"/>
      <path class="cls-1" d="m125.1676114,52.8680096c.6896973.1034546,1.4483643.1379395,2.1725464.1379395,3.0691528,0,13.3111572-1.6207886,14.2767334-2.0001221.241394-.1034546,1.2069702-.7931519,1.4138794-.7931519.7931519,0,4.0692139,3.3105469,4.0692139,4.4830322,0,.241394,0,.6207275-1.2069702.8966064-1.2069702.241394-6.4831543,2.1725464-7.2073364,3.1381226-.4138184.5862427-.5517578,1.000061-1.758728,4.4140625-.6207275,1.7932129-2.5863647,7.2763062-8.6901855,10.6558228-1.1380005.6207275-2.1380615,1.000061-2.3794556,1.000061-.1379395,0-.2069092-.0689697-.2069092-.1724243s.0689697-.1724243.6896973-.6552124c1.9311523-1.4138794,4.3106079-3.4484863,6.1727905-6.4141846,1.8966675-3.034668,2.5863647-5.9658813,2.5863647-7.5521851,0-.758667-.1379395-1.4138794-.4483032-2.0346069-.2758789-.5517578-.3103638-.6207275-.3103638-.758667,0-.2758789.5172729-.3103638.7241821-.3103638.5862427,0,1.000061.0344849,1.8621826.3103638.2069092.0689697,1.1380005.4483032,1.3449097.4483032.9655762,0,4.276123-3.3105469,4.276123-4.2071533,0-.241394-.2069092-.5172729-.6552124-.5172729-.5517578,0-6.7935181.4827881-12.3110962,2.1380615-.4827881.1379395-2.4484253,1.000061-2.8967285,1.000061-.8276367,0-3.5174561-2.2070312-3.5174561-3.4140015,0-.0689697.0689697-.1379395.241394-.1379395.1034546,0,1.4828491.3103638,1.758728.3448486Z"/>
      <path class="cls-1" d="m165.3828824,56.9372234c-.4827881.0689697-.8276367.3448486-1.7242432,1.517334-1.9311523,2.6208496-4.2416382,5.7244873-7.310791,8.1039429-.4483032.3448486-1.517334,1.1724854-1.9311523,1.1724854-.0689697,0-.1379395,0-.1379395-.0689697s1.758728-2.2415161,2.0690918-2.6898193c.6552124-.8966064,4.1036987-5.6900024,5.5175781-9.4143677.4483032-1.1724854.4827881-1.3104248.6552124-1.3104248.3448486,0,2.7932739,1.2414551,3.276062,1.517334.4138184.241394.5862427.5862427.4483032.8621216-.1034546.241394-.241394.241394-.8621216.3103638Zm7.6901245-9.8626709c0,.2758789-.1379395.3793335-.6552124.8276367-.2758789.2069092-.4483032.5517578-.4827881,1.3793945-.1034546,2.0346069-.1379395,4.1381836-.1379395,6.2072754,0,3.034668,0,14.9319458-.0344849,16.138916,0,1.1035156-.0689697,2.6898193-1.5863037,3.793335-.9310913.6896973-2.0001221.9310913-2.4484253.9310913q-.1724243,0-.5517578-1.0345459c-.4138184-1.0690308-.758667-1.3104248-2.276001-2.1380615-.4138184-.241394-.7241821-.4138184-.7241821-.5517578s.2069092-.1379395.3793335-.1379395c.4138184,0,2.2070312.1724243,2.5863647.1724243.7931519,0,1.6897583-.1379395,1.9656372-1.0690308.241394-.8621216.241394-9.6212769.241394-11.1386108,0-6.1727905-.1379395-10.7247925-.2069092-13.2077026,0-.2069092-.1379395-1.0690308-.1379395-1.2759399s.241394-.241394.3793335-.241394c.2758789,0,1.3793945.241394,1.7242432.3103638.8966064.1724243,1.9656372.4138184,1.9656372,1.0345459Zm11.0696411,20.2426147c-.758667,0-.7931519-.0344849-2.3794556-2.8967285-1.758728-3.1381226-4.1381836-6.5176392-5.7589722-8.069458-.3103638-.3103638-.6207275-.6896973-.6207275-.8621216,0-.1379395.1379395-.1379395.2069092-.1379395.7931519,0,9.7937012,5.2416992,9.7937012,9.8626709,0,.3793335,0,2.1035767-1.2414551,2.1035767Z"/>
      <path class="cls-1" d="m216.3237394,56.040617c1.6552734,0,1.8276978,0,2.3104858-.7931519.6896973-1.1380005.8966064-1.3449097,1.2069702-1.3449097.4138184,0,2.7932739,2.276001,2.7932739,2.5518799,0,.5172729-.6552124.5172729-1.8276978.5172729h-9.1384888c-.9310913,0-.9655762.5862427-.9655762,1.1035156,0,.4138184,0,4.4485474.1034546,4.6554565.2069092.4483032.6896973.4483032.8966064.4483032h6.5176392c1.6207886,0,1.7932129,0,2.2070312-.5517578,1.1035156-1.517334,1.2414551-1.6897583,1.6552734-1.6897583.5862427,0,2.9656982,2.3449707,2.9656982,2.6898193,0,.4827881-.6896973.4827881-1.8276978.4827881h-11.5179443c-.8966064,0-1.000061.4827881-1.000061,1.0345459,0,1.1035156.0344849,5.8969116.0344849,6.8969727,0,1.1380005-.0344849,2.4139404-1.4828491,3.5864258-.8621216.6552124-1.7242432.7931519-2.3104858.7931519-.5517578,0-.5517578-.0689697-.6896973-1.0345459-.1379395-.758667-1.3793945-1.4828491-2.5863647-1.9656372-.1034546-.0344849-.3103638-.1379395-.3103638-.241394,0-.1724243.2069092-.1724243.3103638-.1724243,3.5864258,0,3.9657593,0,4.2416382-.4827881s.3448486-.7931519.3448486-7.3797607c0-.3793335,0-1.0345459-.9655762-1.0345459h-7.5177002c-3.0001831,0-4.0002441.0689697-4.3450928.0689697-.1034546.0344849-.6207275.1034546-.7241821.1034546-.1379395,0-.2069092-.1034546-.3103638-.241394l-.6552124-.7931519c-.1379395-.1379395-.1724243-.1724243-.1724243-.2069092,0-.0689697.0689697-.1034546.1379395-.1034546.241394,0,1.3104248.1379395,1.517334.1379395,1.6897583.0689697,3.1036377.1034546,4.7244263.1034546h7.3452759c.2069092,0,.6896973,0,.8966064-.4138184.1034546-.2069092.1034546-4.2416382.1034546-4.6899414,0-.4827881-.0344849-1.1035156-1.000061-1.1035156h-5.3796387c-3.0001831,0-4.0002441.0344849-4.3450928.0689697-.1034546,0-.6207275.1034546-.7241821.1034546-.1379395,0-.2069092-.1034546-.3103638-.241394l-.6552124-.7931519c-.0689697-.0689697-.1724243-.1724243-.1724243-.2069092,0-.0689697.0689697-.1034546.1379395-.1034546.241394,0,1.3104248.1379395,1.517334.1379395,1.6897583.1034546,3.1036377.1034546,4.7244263.1034546h5.2072144c.9655762,0,.9655762-.6207275.9655762-1.0690308,0-5.03479,0-5.1727295-1.2414551-5.1727295-.3793335,0-4.2071533.1724243-5.0003052.1724243-.5517578,0-5.3796387-.0344849-5.3796387-.4483032,0-.1034546,1.1724854-.2069092,1.4138794-.241394,4.6554565-.3793335,11.862793-1.1380005,15.7595825-2.5518799.8276367-.3103638,1.1035156-.4483032,2.1725464-1.000061.0689697-.0344849.241394-.1034546.3448486-.1034546.2069092,0,1.6207886,1.1380005,1.9311523,1.3793945,1.1724854.8276367,1.2414551.8621216,1.2414551,1.1380005,0,.5862427-.3793335.6207275-3.1036377.7931519-.8621216.0344849-4.5175171.3448486-5.1727295.7241821-.5517578.3103638-.5517578.6552124-.5517578,3.6553955,0,2.4484253,0,2.7243042,1.000061,2.7243042h4.6554565Z"/>
      <path class="cls-1" d="m241.3319181,54.5577679c-.5172119,0-.7242432.0689697-.8966064.3103638-.1723633.2758789-.1723633,4.4140625-.1723633,4.6899414,0,.4483032,0,.758667.4138184.758667.5861816,0,3.5864258-1.2069702,3.9656982-1.2069702.1033936,0,.1379395.0689697.1379395.1724243,0,.4138184-1.9311523,1.3793945-3.4139404,2.1380615-.6552734.3448486-1.1035156.6552124-1.1035156,1.9311523,0,.8276367.1379395,8.0004883.1379395,9.1384888,0,3.7243652-3.034668,4.1036987-3.4830322,4.1036987-.241333,0-.2758789-.1724243-.3792725-.5517578-.2070312-.8966064-.7932129-1.3449097-1.7587891-1.8966675-.0344238,0-1.1379395-.6552124-1.1379395-.6896973,0-.1034546.2758789-.1034546.3103027-.1034546.9311523,0,2.6552734,0,2.8277588-.0344849.758667-.0689697.9655762-.241394,1.0001221-.9655762.0688477-1.6552734.1379395-3.0691528.1379395-5.2072144,0-.5172729.0344238-2.8277588.0344238-3.2070923-.0344238-.3793335-.1035156-.5517578-.2758789-.5517578-.4138184,0-3.2415771,1.7242432-3.3795166,1.7242432-.2069092,0-.7242432-.8276367-.9655762-1.2414551-.0689697-.1034546-.8276367-1.3104248-.8276367-1.3449097,0-.1379395.1033936-.1379395.8621826-.1724243,1-.0344849,3.517334-.758667,3.9311523-.8966064.5517578-.2069092.7242432-.4138184.7242432-1.758728,0-.5172729.0689697-2.7932739.0689697-3.276062,0-1.6207886,0-1.8966675-1.1035156-1.8966675-.8276367,0-2.3793945,0-3.1381836.1379395-.0688477,0-.3447266.0689697-.4138184.0689697-.1033936,0-.1723633-.1034546-.2758789-.241394l-.5517578-.7931519q-.1033936-.1724243-.1033936-.2069092c0-.0689697,0-.1034546.1033936-.1034546.1379395,0,.8967285.1034546,1.034668.1034546.2758789.0344849,3.1035156.1379395,3.4139404.1379395.5863037,0,1.1035156-.0344849,1.1035156-1.0345459,0-.2069092-.1033936-5.4141235-.1033936-5.552063-.0345459-.241394-.1724854-1.2414551-.1724854-1.4483643,0-.1379395,0-.3103638.2069092-.3103638.1035156,0,3.2070312.5862427,3.2070312,1.2414551,0,.1379395-.5517578.6552124-.6206055.7931519-.2758789.5862427-.2758789,1.0690308-.2758789,5.2416992,0,.9310913.241333,1.0690308,1.0344238,1.0690308.2414551,0,.4829102,0,1.034668-.6552124.8276367-1.000061.9310303-1.1035156,1.1723633-1.1035156.4138184,0,2.034668,1.8966675,2.034668,2.2070312,0,.4483032-.3103027.4827881-1.5517578.4827881h-2.793335Zm20.2081299-5.0003052c0,.4138184-.3793945.4483032-1.4483643.5862427-1.517334.1724243-8.8970947,1.4483643-10.586792,1.5863037-.9655762.0689697-1.0001221.4138184-1.0001221,1.3104248,0,2.0690918,0,2.3104858.5172119,2.5863647.8276367.4827881,3.034668.4827881,5.5866699.4827881,5.3105469,0,6.1727295-.5517578,6.8624268-2.2415161.1379395-.3793335.6896973-2.3449707.758667-2.3449707.1379395,0,.6207275,2.3449707.7932129,2.7587891.1033936.1724243.6551514,1.1380005.6551514,1.4138794,0,.8276367-1.6552734,1.6897583-2.8277588,2.0001221-1.0345459.2758789-5.4831543.4827881-6.793457.4827881-6.0004883,0-7.5178223-.5517578-7.7246094-2.2415161-.0690918-.5172729-.1035156-3.5519409-.1035156-5.3451538,0-.6896973-.1723633-4.0692139-.1723633-4.8278809,0-.241394.0344238-.2758789.2758789-.2758789.482666,0,1.9655762.241394,2.2414551.2758789.4138184.0689697.9311523.1379395.9311523.5862427,0,.1724243-.6896973.7241821-.7932129.8621216-.2069092.2758789-.2069092,2.3449707-.2069092,2.8622437,0,.8276367,0,1.0345459.4827881,1.0345459,1,0,5.3106689-1.6207886,7.1384277-2.5518799.3792725-.2069092,2.1035156-1.6897583,2.1379395-1.7242432.2414551-.0344849,3.276123,2.2415161,3.276123,2.7243042Zm-11.1386719,24.4152832c-.9310303,0-.9655762.5862427-.9655762,1.0345459-.0344238,1.0345459-.9310303,1.5518188-1.8276367,1.5518188-.8276367,0-.8276367-.7931519-.8276367-1.1035156,0-.241394.1035156-1.3104248.1035156-1.517334.0688477-1.2414551.0688477-2.276001.0688477-3.7243652,0-2.5863647,0-5.2761841-.1033936-7.828064,0-.2069092-.0689697-1.0690308-.0689697-1.2414551,0-.241394,0-.5517578.2069092-.5517578.2758789,0,1.4139404.6552124,1.6552734.758667.4483643.1724243.9655762.241394,1.4827881.241394h7.4832764c.2069092,0,.4827881,0,.8621826-.2069092.2758789-.1379395,1.2758789-1.000061,1.5517578-1.000061.6207275,0,2.1726074,1.3793945,2.1726074,1.7932129,0,.2069092-.1379395.4138184-.517334.7931519-.517334.5172729-.4827881.7241821-.4827881,2.3449707,0,3.9657593.0345459,5.2416992.0345459,6.1038208.0344238.3103638.1379395,2.8967285.1379395,3.034668,0,1.3104248-1.2070312,1.7242432-1.7587891,1.7242432-.8276367,0-.8276367-.6552124-.8276367-1.1380005,0-.4138184,0-1.0690308-.9655762-1.0690308h-7.4143066Zm7.4487305-6.8624878c.5863037,0,1.0001221-.2069092,1.0001221-.9310913,0-3.6898804-.1033936-3.6898804-1.0345459-3.6898804h-7.4487305c-.5517578,0-.8276367.2069092-.9311523.6207275-.0344238.0689697-.0344238,2.8277588-.0344238,3.0691528,0,.5517578.2414551.9310913.9655762.9310913h7.4831543Zm0,5.9313965c.9655762,0,1.034668,0,1.034668-3.9657593,0-.6552124-.1724854-1.0345459-1.034668-1.0345459h-7.4831543c-.8966064,0-.9655762.5517578-.9655762.6207275v3.3795166c0,.4483032,0,1.000061.9655762,1.000061h7.4831543Z"/>
    </g>
    <g>
      <path class="cls-1" d="m35.3506559,101.537199h-5.4221802l1.9260254.5024414c.1465454.0418701.2721558.1256104.2721558.3140259,0,.2721558-.5024414.5024414-.711792.6071167-.0209351.2512207-.0418701,1.3817139-.0628052,1.6119995h1.1304932l.9420776-.8583374c.2093506-.1884155.2930908-.2721558.3768311-.2721558.1046753,0,.1674805.0418701.3768311.2093506l1.1095581.8792725c.1046753.0837402.2093506.1884155.2093506.3349609,0,.1884155-.1884155.2093506-.3349609.2093506h-3.8101807c-.0209351.3349609-.0209351.5861816-.0209351.9630127,1.4654541.1884155,2.868103.8164673,2.868103,2.0725708,0,.7327271-.6280518.9630127-.9002075.9630127-.5652466,0-.8164673-.6699219-.9002075-.9002075-.2302856-.6280518-.6280518-1.5073242-1.067688-1.9260254,0,.8374023,0,1.4654541.0209351,2.4284668.0209351.4396362.1046753,2.4284668.1046753,2.8262329,0,.7955322-.6908569.9002075-1.067688.9002075-.3140259,0-.7955322-.1046753-.7955322-.711792,0-.3140259.2302856-3.9776611.2302856-4.270752v-.7745972c-1.423584,2.0935059-3.0565186,3.1821289-4.7522583,4.0404663l-.1256104-.1674805c1.4654541-1.2979736,2.5331421-2.8262329,3.3286743-4.0823364.3349609-.5443115.6280518-1.067688.7536621-1.3607788h-.5652466c-1.2770386,0-1.7376099.0628052-2.2609863.1465454l-.3349609-.7745972c1.2770386.1256104,2.7424927.1256104,2.9727783.1256104h1.0048828c.0418701-1.9469604-.0209351-2.2191162-.2302856-3.0355835h-1.3189087c-1.2770386,0-1.7376099.0418701-2.2609863.1465454l-.355896-.7745972c1.2770386.1046753,2.7634277.1256104,2.9937134.1256104h2.4494019c.7536621-1.6538696,1.1304932-3.0983887,1.088623-4.4382324h-3.223999c-1.2770386,0-1.7376099.0418701-2.2609863.1465454l-.3349609-.7745972c1.2561035.1046753,2.7424927.1256104,2.9727783.1256104h.8164673c-.0209351-1.0467529-.0209351-1.77948-.355896-2.9309082l2.3865967.6280518c.1674805.0418701.3140259.1046753.3140259.2930908,0,.3349609-.4187012.4815063-.711792.5861816,0,.2302856-.0209351,1.2142334-.0209351,1.423584h.7955322l.8583374-.9630127c.2093506-.2302856.2302856-.2512207.3349609-.2512207.0837402,0,.1674805.0209351.3768311.2093506l1.1095581.9630127c.1256104.1046753.2093506.1884155.2093506.3140259,0,.2093506-.1884155.2302856-.3140259.2302856h-2.8890381l1.9888306,1.1304932c.1465454.0837402.2721558.1884155.2721558.3977661,0,.2930908-.2093506.3349609-.7536621.4396362-.4187012.5443115-1.1514282,1.444519-2.3237915,2.4703369h1.6119995l.7536621-.8792725c.2093506-.2302856.2302856-.2512207.3349609-.2512207.1465454,0,.355896.1884155.3768311.2093506l.9211426.8792725c.1256104.1046753.2093506.1884155.2093506.3140259,0,.2093506-.1674805.2302856-.3140259.2302856Zm-5.6734009-.9002075c-.9630127,0-1.088623-.9839478-1.1095581-1.2979736-.0837402-.7327271-.1465454-1.1514282-.7745972-2.2191162l.1674805-.1465454c1.2142334.6699219,2.5540771,1.5910645,2.5540771,2.6168823,0,.4605713-.2512207,1.0467529-.8374023,1.0467529Zm14.6964111.2930908h-2.9937134c0,.8164673.0209351,2.8890381.0628052,6.0083618.0209351.6280518.1256104,3.7055054.1256104,4.3963623,0,.3349609-.0418701.4815063-.2093506.6489868-.2721558.2721558-.711792.4187012-1.067688.4187012-.5861816,0-.6280518-.3349609-.6280518-.5652466,0-.6071167.1256104-4.9825439.1256104-5.1500244v-5.7571411h-2.0097656c-.1884155,4.3754272-.3349609,7.871582-5.0872192,10.9281006l-.1465454-.1884155c2.6378174-2.7215576,3.6217651-5.1290894,3.6217651-12.3726196,0-1.2979736-.0418701-4.0823364-.3977661-5.1709595l2.0516357,1.0048828c1.2351685-.3768311,2.9727783-1.0467529,3.6217651-2.0097656l1.6957397,1.5701294c.1256104.1046753.1674805.2512207.1674805.3768311,0,.0837402-.0628052.2302856-.3768311.2302856-.1674805,0-.3349609-.0418701-.7955322-.1674805-1.5282593.3977661-3.6217651.4815063-4.291687.4605713,0,1.4654541-.0209351,3.223999-.0628052,4.8359985h3.6636353l.9839478-1.1514282c.2093506-.2512207.2302856-.2721558.3349609-.2721558.1256104,0,.3140259.1674805.3768311.2302856l1.3398438,1.1514282c.0837402.0837402.2093506.1884155.2093506.3140259,0,.2302856-.2093506.2302856-.3140259.2302856Z"/>
      <path class="cls-1" d="m67.4467252,106.6244183h-7.5575562c.8164673,1.1304932,3.5170898,3.203064,7.7669067,3.1821289v.1674805c-1.2770386.4605713-1.77948,1.5073242-2.0097656,2.0097656-3.8939209-1.3817139-5.7780762-3.935791-6.2386475-5.3384399-.0209351,1.0258179,0,2.156311.0418701,3.5380249,0,.1884155.0418701,1.1723633.0418701,1.3817139,0,.6489868-.5861816.9211426-1.1932983.9211426-.5233765,0-.711792-.3140259-.711792-.7536621,0-.5024414.1674805-3.3077393.1884155-3.935791-1.2770386,1.3189087-4.6057129,3.6845703-7.871582,4.1660767l-.1046753-.1256104c2.6587524-1.4026489,5.4640503-3.7892456,6.6992188-5.2128296h-4.647583c-1.4654541,0-1.8632202.0837402-2.2609863.1465454l-.355896-.7745972c.9839478.1046753,1.9888306.1256104,2.9937134.1256104h5.5477905c-.0418701-1.2770386-.0628052-1.7376099-.3349609-2.2400513-.9630127.5233765-1.6329346.6489868-2.2191162.7745972l-.0418701-.1465454c2.2609863-1.088623,3.1193237-3.1611938,3.1193237-4.647583,0-.3349609-.0418701-.6071167-.1046753-.8374023l-.1256104.0837402-.0837402-.0628052c.3349609-.5652466,2.1981812-4.3335571,2.0307007-5.8618164l1.9260254.9630127c.1465454.0628052.2302856.1884155.2302856.3140259,0,.1674805-.0837402.2093506-.6280518.4815063-.2512207.4187012-.4396362.711792-.711792,1.1304932h3.3705444l.711792-.9839478c.1256104-.1674805.2093506-.2721558.3349609-.2721558.0837402,0,.1674805.0628052.3768311.2302856l1.1932983.9839478c.0837402.0628052.2093506.1884155.2093506.3140259,0,.2302856-.1884155.2302856-.3140259.2302856h-4.7313232c.9839478.2721558,2.0097656.6489868,2.0097656,1.5282593,0,.2512207-.1465454.7327271-.6071167.9211426l.6071167.4815063c.1046753.0837402.1884155.1674805.1884155.355896,0,.0418701,0,.1046753-.1046753.2093506-.0628052.0628052-.4187012.3977661-.4815063.4815063-.0418701.8374023-.0628052,1.1095581-.0628052,1.4026489s-.0209351.6280518.0418701.7745972c.0628052.1884155.1046753.1884155,1.2770386.1884155.9630127,0,1.1095581-.3140259,1.6748047-2.2191162h.1256104c.0209351.4605713.1256104,1.2979736.6280518,1.6957397q.4605713.3768311.4605713.5233765c0,.2093506-.1046753.5024414-.4187012.8164673-.5652466.5861816-1.1095581.6699219-2.3447266.6699219-2.6378174,0-2.9518433,0-2.9518433-1.8213501,0-.7327271.1046753-2.3447266.1465454-2.7424927h-2.3447266c-.0209351.5443115-.0418701.8374023-.1256104,1.1932983.1884155.0418701,2.1144409.4396362,2.1144409,1.6957397,0,.5024414-.3140259.8164673-.7536621.8164673-.5652466,0-.6489868-.355896-.7745972-.8583374-.0628052-.2302856-.2302856-.9420776-.6489868-1.444519-.1884155.6071167-.5652466,1.6329346-2.0097656,2.5331421l1.9678955.5861816c.1046753.0209351.2930908.0837402.2930908.2930908s-.0837402.2930908-.3977661.6071167c-.0418701.4605713-.0418701.6280518-.0628052.8583374h5.3384399l.9420776-1.1304932c.1884155-.2302856.2093506-.2721558.3140259-.2721558.1465454,0,.2512207.1046753.3768311.2302856l1.1514282,1.1514282c.1256104.1256104.2093506.1884155.2093506.3140259,0,.2093506-.2093506.2093506-.3140259.2093506Zm-9.7766724-6.7201538h-2.6378174v2.3865967c1.2561035-.2302856,1.5910645-.2930908,2.2191162-.4396362v.1674805c-1.0467529.6280518-4.1451416,1.8841553-5.6524658,2.512207-.1884155.355896-.2721558.5024414-.4605713.5024414-.0418701,0-.2093506,0-.3140259-.1884155l-1.0048828-2.0516357c.3349609.0628052.5652466.0837402.8374023.0837402.5861816,0,2.1772461-.2302856,2.847168-.3349609v-2.6378174h-1.1723633c-.1046753,0-.5024414,0-.9630127.0628052l-.3349609-.6280518c.7745972.0418701,1.5282593.0628052,1.6748047.0628052h2.9518433l.5861816-.7536621c.1465454-.2093506.2302856-.2721558.3140259-.2721558.1256104,0,.3140259.1465454.3977661.2302856l.8164673.7536621c.1465454.1465454.2093506.1884155.2093506.3140259,0,.2093506-.1884155.2302856-.3140259.2302856Zm.3768311-3.3077393h-4.0195312c.4605713.1465454,1.9888306.6489868,1.9888306,1.6957397,0,.5024414-.3768311.9002075-.8164673.9002075-.5861816,0-.7536621-.5024414-.9002075-1.0048828s-.4815063-1.1514282-.9420776-1.5910645c-1.0048828,1.1514282-1.8841553,1.9050903-3.2868042,2.7424927l-.0628052-.0837402c1.1514282-1.5491943,2.2609863-3.0565186,3.1193237-4.9825439.1884155-.4396362.2093506-.6699219.1884155-1.1723633l1.9888306,1.067688c.1046753.0628052.2302856.2093506.2302856.2930908,0,.1884155-.0628052.2093506-.8164673.4815063-.355896.4396362-.5652466.711792-.9211426,1.1514282h2.0516357l.6489868-.8164673c.1465454-.1884155.2302856-.2512207.3349609-.2512207.0628052,0,.1674805.0209351.3768311.2093506l.9630127.8164673c.0837402.0837402.2093506.1884155.2093506.3140259,0,.2093506-.2093506.2302856-.3349609.2302856Zm3.9985962,1.2142334c-.355896-.6908569-.6071167-.9420776-.9002075-1.2351685h-.6699219c-.4815063.6908569-1.088623,1.4654541-2.135376,2.3237915l1.1932983.4396362h2.3237915l.6489868-.5861816c-.0837402-.1256104-.3768311-.7955322-.4605713-.9420776Z"/>
      <path class="cls-1" d="m80.1149991,95.5079022c.1465454.1046753.2721558.2093506.2721558.3768311,0,.2302856-.355896.355896-.9002075.5233765-1.4654541,3.1402588-4.7731934,6.0502319-6.6782837,6.9295044l-.1046753-.1046753c1.6119995-1.8422852,3.55896-4.3126221,4.7103882-6.8248291.5024414-1.088623.6071167-1.6119995.711792-2.2609863l1.9888306,1.3607788Zm-1.3607788,6.4689331c-1.2770386,0-1.7376099.0418701-2.2609863.1465454l-.3349609-.7745972c1.2561035.1046753,2.7424927.1256104,2.9727783.1256104h5.9455566l.6908569-.6071167c.1884155-.1674805.2930908-.2093506.3977661-.2093506.0837402,0,.2093506.0837402.3140259.1884155l.9211426,1.0467529c.1256104.1465454.2093506.2512207.2093506.3349609,0,.2093506-.2512207.3977661-.6489868.6699219-.0209351,1.423584-.1884155,5.4849854-.7536621,6.9923096-.6489868,1.77948-1.9678955,2.156311-3.914856,2.3447266-.0837402-1.2351685-.8164673-1.9469604-1.5701294-2.6587524l.0628052-.1256104c1.1723633.3768311,1.9469604.4815063,2.4703369.4815063.9002075,0,1.2979736-.1046753,1.6538696-2.1772461.3140259-1.8632202.3349609-5.0662842.3140259-5.7780762h-3.8101807c-.0837402,4.7522583-3.2449341,9.3161011-8.4158936,9.9441528l-.0418701-.1256104c5.359375-2.491272,6.4898682-6.5945435,6.6154785-9.8185425h-.8164673Zm4.5638428-7.0969849c-1.2770386,0-1.7376099.0628052-2.2609863.1465454l-.3349609-.7745972c1.2142334.1256104,2.6168823.1256104,3.0774536.1256104l.8374023-.8164673c.1256104-.1046753.2093506-.2093506.3349609-.2093506.1465454,0,.2093506.0628052.355896.2093506l.8374023.8583374c.1256104.1465454.1884155.2093506.1884155.3140259,0,.2512207-.4815063.5024414-1.3189087.6908569.9839478,2.5540771,4.3126221,5.1918945,7.6622314,5.5477905l.0418701.2302856c-1.3817139.5233765-1.77948,1.2561035-2.1144409,1.8422852-4.3126221-1.8213501-6.0083618-7.2644653-6.2595825-8.1646729h-1.0467529Z"/>
      <path class="cls-1" d="m101.1364225,97.4757977l.5861816-.6908569c.1884155-.2093506.2093506-.2512207.3140259-.2512207.1256104,0,.3140259.1256104.3977661.2093506l.7327271.6908569c.1465454.1465454.2093506.1884155.2093506.3349609,0,.1884155-.1674805.2093506-.3140259.2093506h-4.1870117c-1.2770386,0-1.7376099.0628052-2.2609863.1465454l-.355896-.7745972c1.0048828.0837402,1.9888306.1256104,2.9937134.1256104h1.8841553Zm4.7941284,8.1228027c-1.2770386,0-1.7376099.0628052-2.2609863.1465454l-.3349609-.7745972c1.2351685.1256104,2.5959473.1256104,3.2449341.1256104v-1.8841553c-.9420776,0-1.3607788.0209351-2.0307007.1465454l-.3349609-.7745972c.9211426.0837402,1.4654541.1046753,2.3656616.1046753v-1.6538696c-1.2979736,0-1.8422852,0-2.5750122.1465454l-.3349609-.7745972c.8164673.0628052,2.0516357.1256104,2.9099731.1256104,0-.8164673-.0418701-1.2351685-.1256104-1.9888306-.2093506.1046753-1.2770386.6280518-3.4752197,1.1514282l-.0418701-.1465454c1.5910645-1.0258179,2.6587524-1.8213501,3.5170898-3.0565186l1.2770386,1.067688c.0628052.0628052.2302856.2930908.2302856.4396362,0,.2512207-.2930908.2512207-.3977661.2512207-.2093506,0-.2302856,0-.6071167.0209351-.2093506.1256104-.2512207.1465454-.4605713.2512207l1.6538696.5443115c.3977661.1256104.4815063.1465454.4815063.355896,0,.1046753,0,.1674805-.5233765.5861816v.5233765h1.8841553c0-.4396362,0-1.067688-.2512207-2.0516357l1.7585449.5233765c.2512207.0837402.4605713.1256104.4605713.3977661,0,.1884155-.3140259.4187012-.4605713.5443115v.5861816h1.067688l.4187012-.711792c.0418701-.0837402.2093506-.2721558.3349609-.2721558.1046753,0,.2930908.1674805.3768311.2302856l.7327271.711792c.1674805.1674805.2093506.2093506.2093506.3140259,0,.1884155-.1674805.2302856-.3140259.2302856h-2.8262329v1.6748047h.8792725l.4815063-.6071167c.1674805-.2093506.2093506-.2512207.3140259-.2512207s.1256104.0209351.3977661.2093506l.8164673.6071167c.0209351.0209351.2093506.1465454.2093506.3140259,0,.2093506-.1884155.2302856-.3349609.2302856h-2.7634277v1.8841553h1.2979736l.7745972-.8583374c.2093506-.2302856.2302856-.2512207.3349609-.2512207.1256104,0,.2930908.1256104.3768311.2093506l.7745972.8583374c.1256104.1256104.2093506.2302856.2093506.3349609,0,.1884155-.1674805.2093506-.3140259.2093506h-2.135376l1.2351685.9420776c.3349609.2721558.3349609.3768311.3349609.4815063,0,.2302856-.1674805.3977661-.4605713.3977661-.1256104,0-.3140259-.0418701-.355896-.0628052-.3977661.1046753-2.0725708.5233765-2.4284668.5861816,1.3398438,1.2979736,2.847168,1.9678955,4.7313232,2.2819214v.1256104c-.8792725.3768311-1.2770386.711792-1.8422852,1.5701294-2.5750122-1.1304932-4.0195312-3.5380249-4.8359985-6.3223877h-.3768311c-.6071167.6280518-.9002075.8583374-1.1932983,1.088623v2.7843628c1.3817139-.3768311,2.0725708-.6699219,2.4703369-.8583374l.0837402.1465454c-.3977661.2930908-1.0467529.7955322-2.4075317,1.6119995-.7745972.4605713-1.9050903,1.1304932-2.3028564,1.3817139-.1256104.4605713-.1465454.5652466-.3768311.5652466-.1256104,0-.2930908-.0837402-.3977661-.2512207l-1.1932983-1.9469604c.2302856.0209351.4605713.0628052.7536621.0628052.3349609,0,.5861816-.0209351,1.8422852-.3140259v-2.0725708c-1.6748047,1.067688-2.9099731,1.444519-3.4124146,1.5910645,0,.1256104.0628052.7536621.0628052.8792725,0,.6280518-.4815063,1.0258179-1.067688,1.0258179-.4187012,0-.6280518-.1674805-.6280518-.6280518v-.2930908h-2.0307007c.1046753.9211426-.0628052,1.6748047-.9630127,1.6748047-.8164673,0-.8164673-.3977661-.8164673-.711792,0-.0837402.0837402-3.914856.0837402-4.647583,0-.6280518-.0209351-1.8422852-.1674805-2.3865967l2.0935059,1.0258179h1.6119995l.6280518-.7327271c.0837402-.1046753.2302856-.2512207.355896-.2512207.0837402,0,.1884155.0837402.2721558.1465454l.9211426.7955322c.1465454.1256104.1465454.2093506.1465454.2930908,0,.1884155,0,.2093506-.5443115.7536621,0,2.0097656,0,2.2191162.0209351,2.7843628.9630127-.711792,3.0774536-2.5540771,3.8311157-3.5170898h-.5652466Zm-4.8778687-6.1339722c.2302856-.2302856.2930908-.2512207.3768311-.2512207.1046753,0,.2721558.1465454.3349609.2302856l.6071167.6489868c.1256104.1465454.2093506.2093506.2093506.3140259,0,.1884155-.1884155.2302856-.3140259.2302856h-2.4284668c-1.2770386,0-1.7376099.0418701-2.2609863.1256104l-.355896-.7536621c1.3607788.1046753,2.847168.1256104,3.1193237.1256104l.711792-.6699219Zm-.0837402-5.2546997c.1884155-.2302856.2302856-.2721558.3349609-.2721558.0628052,0,.2930908.1465454.3977661.2093506l.8583374.5861816c.0418701.0209351.2093506.1674805.2093506.3140259,0,.2093506-.1884155.2302856-.3140259.2302856h-2.5750122c-1.2770386,0-1.7376099.0418701-2.2609863.1256104l-.355896-.7536621c1.2561035.1046753,2.6168823.1256104,3.2449341.1256104l.4605713-.5652466Zm.0209351,8.0390625c.0418701-.0628052.1884155-.2721558.3140259-.2721558.1046753,0,.2721558.1465454.3768311.2302856l.7327271.6489868c.1465454.1465454.2093506.2093506.2093506.3349609,0,.1884155-.1674805.2093506-.3140259.2093506h-2.4284668c-1.2770386,0-1.7376099.0628052-2.2609863.1465454l-.355896-.7745972c1.2561035.1256104,2.6168823.1256104,3.2449341.1256104l.4815063-.6489868Zm-1.9678955,3.579895v4.0404663h2.0307007v-4.0404663h-2.0307007Zm13.3565674-9.9650879l.6280518-.8374023c.1884155-.2512207.2721558-.2512207.3349609-.2512207.1046753,0,.2930908.1465454.3768311.2093506l.8792725.8374023c.1674805.1674805.2093506.2093506.2093506.3349609,0,.1884155-.1674805.2093506-.3140259.2093506h-8.0809326c-1.2770386,0-1.7376099.0628052-2.2609863.1465454l-.355896-.7745972c1.0048828.1046753,1.9888306.1256104,2.9937134.1256104h1.423584c-.0418701-1.6119995-.1256104-1.8422852-.4187012-2.4703369l2.3237915.5024414c.1674805.0418701.355896.1465454.355896.355896,0,.2512207-.2512207.4187012-.5443115.5861816v1.0258179h2.4494019Zm-4.270752,5.1709595v1.6748047h1.8841553v-1.6748047h-1.8841553Zm1.8841553,4.0614014v-1.8841553h-1.8841553v1.8841553h1.8841553Zm-.4396362.5024414c.3768311.8792725.8583374,1.5491943,1.2979736,2.0307007.1674805-.1674805,1.2979736-1.2142334,1.6957397-2.0307007h-2.9937134Zm.4396362-8.6671143c2.3656616-.1256104,4.4591675.7955322,4.4591675,1.8632202,0,.5443115-.5861816.7536621-.7955322.7536621-.355896,0-.4815063-.1256104-1.6329346-1.1514282-.2302856-.1884155-1.0258179-.9002075-2.0725708-1.3398438l.0418701-.1256104Z"/>
      <path class="cls-1" d="m125.9680265,95.2148113c-.355896.8583374-.711792,1.6748047-1.2979736,2.7424927l.2930908.1884155c.1674805.1046753.2093506.1884155.2093506.2721558,0,.0628052-.0209351.1674805-.0837402.2512207s-.4187012.355896-.4815063.4396362c0,.7745972.0837402,8.4368286.0837402,8.562439.0418701.7327271.1884155,2.9309082.1884155,3.55896,0,1.0048828-.5861816,1.2561035-1.2351685,1.2561035-.6908569,0-.8792725-.2512207-.8792725-.7955322,0-.3349609.1046753-1.800415.1256104-2.1144409.0628052-1.423584.0628052-1.4863892.1046753-6.6782837,0-1.1723633.0209351-1.2979736.0209351-2.3447266-1.3817139,1.800415-2.6587524,2.7424927-3.223999,3.1611938l-.1256104-.1046753c1.5701294-2.2400513,3.7264404-6.5108032,4.5429077-9.1695557.1256104-.3977661.1465454-.6489868.2512207-1.4863892l2.135376,1.2351685c.0837402.0418701.2721558.1465454.2721558.3977661,0,.2930908-.355896.4605713-.9002075.6280518Zm12.6238403,15.8269043h-10.8862305c-1.4654541,0-1.8632202.0628052-2.2609863.1465454l-.355896-.7745972c1.0048828.0837402,1.9888306.1256104,2.9937134.1256104h2.5331421v-6.2386475h-1.5491943c-1.444519,0-1.8632202.0628052-2.2609863.1465454l-.3349609-.7745972c.9839478.0837402,1.9678955.1256104,2.9727783.1256104h1.1723633v-5.2128296h-2.4703369c-1.444519,0-1.8422852.0628052-2.2609863.1256104l-.3349609-.7536621c.9839478.0837402,1.9888306.1256104,2.9727783.1256104h6.3642578l.711792-1.2351685c.0628052-.1046753.1884155-.3349609.355896-.3349609.1046753,0,.2302856.1256104.3768311.2302856l1.6538696,1.2979736c.0837402.0628052.2093506.1674805.2093506.3140259,0,.2093506-.2093506.2302856-.3140259.2302856h-5.4849854v5.2128296h2.0725708l.711792-1.067688c.0837402-.1256104.1884155-.2721558.3349609-.2721558.1256104,0,.2512207.1046753.3768311.2093506l1.4654541,1.088623c.0837402.0628052.2093506.1884155.2093506.3140259,0,.2093506-.2093506.2302856-.3140259.2302856h-4.8569336v6.2386475h3.203064l.9630127-1.1932983c.0837402-.1046753.1884155-.2721558.3140259-.2721558.1465454,0,.2302856.1046753.3977661.2302856l1.423584,1.1932983c.0837402.0628052.2093506.1674805.2093506.3140259,0,.2093506-.2093506.2302856-.3140259.2302856Zm-6.8666992-13.4403076c-.7745972,0-.9211426-.5233765-1.2770386-1.800415-.0837402-.3349609-.5861816-1.6957397-1.067688-2.3865967l.1256104-.1256104c1.1304932.5024414,3.223999,1.423584,3.223999,3.1402588,0,.7745972-.4605713,1.1723633-1.0048828,1.1723633Z"/>
      <path class="cls-1" d="m160.3460172,98.1038494c-.7955322.6071167-1.2142334.8792725-2.0307007,1.2351685l-.0628052-.0837402c.3977661-1.1723633.4396362-1.4654541.5652466-2.2400513h-11.786438c.1256104,2.0516357-.9002075,3.579895-2.156311,3.579895-.6699219,0-1.0467529-.5024414-1.0467529-.9420776,0-.6280518.4605713-.9839478,1.5282593-1.8213501.2093506-.1674805.9211426-.711792,1.2561035-2.2819214h.1256104c.1046753.2721558.1674805.5233765.2512207.9630127h5.1290894c0-2.135376-.0628052-2.2400513-.4815063-3.4333496l2.3656616.6699219c.1465454.0418701.3768311.1046753.3768311.3349609,0,.1884155-.0418701.2302856-.5652466.6908569v1.7376099h5.003479l.6280518-.6699219c.1046753-.1046753.2512207-.2302856.4396362-.2302856.1256104,0,.2093506.0418701.4187012.2512207l1.3398438,1.2770386c.0209351.0209351.2721558.2721558.2721558.5652466,0,.3977661-.1884155.3977661-1.5701294.3977661Zm1.5073242,12.9169312c-1.0258179.7745972-4.5429077.7745972-5.9664917.7745972-4.8778687,0-5.0244141-.1884155-4.8988037-5.8199463l-4.3544922.8164673c-1.1723633.2093506-1.5282593.2721558-2.2191162.5233765l-.4605713-.6908569c.9420776-.0837402,2.0097656-.2302856,2.9518433-.3977661l4.0823364-.7536621c.0209351-1.6329346.0418701-2.1144409.0628052-3.6008301-2.0307007.5652466-4.6266479,1.088623-6.8457642,1.067688v-.1884155c.5024414-.1256104,7.9762573-2.3447266,10.4675293-4.1242065.3349609-.2302856.6071167-.5233765.8583374-.8583374l1.4654541,1.6329346c.1465454.1674805.1674805.3349609.1674805.355896,0,.2721558-.1046753.2721558-1.0467529.355896-.8164673.3349609-1.9469604.8164673-3.2868042,1.2351685-.0209351,1.3607788-.0209351,1.5282593-.0837402,3.7892456l5.9455566-1.088623.8583374-1.444519c.1884155-.2930908.2093506-.3140259.3349609-.3140259.0418701,0,.1046753,0,.3768311.1465454l1.6119995.9420776c.1046753.0418701.2512207.1465454.2512207.3140259s-.1465454.2093506-.2721558.2302856l-9.1276855,1.7166748c-.0209351,2.1772461-.0209351,2.3237915.0418701,3.2868042.0418701.5024414.0628052.8583374.4605713,1.0048828.2930908.1256104,3.1402588.1256104,3.6636353.1256104.7536621,0,2.7006226-.0628052,3.1402588-.7536621.4815063-.7745972.7745972-2.3865967.9211426-3.223999h.1046753c.1674805.6908569.2721558,1.1932983.5024414,2.0516357.2093506.8374023.2302856.9420776.4815063,1.1514282.2930908.2930908.4187012.4187012.4187012.6699219,0,.2721558-.1884155.7327271-.6071167,1.067688Z"/>
      <path class="cls-1" d="m194.7039274,102.3117962c-4.1242065-1.6119995-7.3691406-5.3175049-8.1437378-7.3691406-2.3237915,3.6217651-7.3482056,7.9971924-10.5093994,8.583374l-.0837402-.1046753c2.7006226-2.0307007,5.5896606-4.3335571,8.3112183-8.7927246.5652466-.9211426.6489868-1.1304932.8164673-1.6748047l2.1772461,1.1932983c.1465454.0837402.1674805.1465454.1674805.2721558,0,.1884155-.1465454.355896-.4815063.3768311,1.423584,2.3865967,5.9455566,5.0453491,9.5045166,5.359375v.1256104c-.9630127.6071167-1.6119995,1.4863892-1.7585449,2.0307007Zm.0209351,9.1067505h-14.5289307c-1.2979736,0-1.7376099.0628052-2.2609863.1465454l-.355896-.7745972c1.2770386.1256104,2.7634277.1256104,2.9937134.1256104h4.6057129v-4.0614014h-3.1611938c-1.2979736,0-1.7376099.0418701-2.2609863.1465454l-.355896-.7745972c1.2770386.1046753,2.7634277.1256104,2.9937134.1256104h2.7843628v-3.7473755h-1.7376099c-1.2770386,0-1.7376099.0418701-2.2609863.1256104l-.3349609-.7536621c1.2770386.1046753,2.7424927.1256104,2.9727783.1256104h4.9197388l.9002075-1.067688c.2093506-.2302856.2302856-.2721558.3349609-.2721558.0837402,0,.1046753.0418701.3768311.2302856l1.423584,1.067688c.0418701.0209351.2093506.1465454.2093506.3140259,0,.1884155-.1674805.2302856-.3140259.2302856h-4.7731934v3.7473755h2.7634277l.9420776-1.088623q.2302856-.2512207.3349609-.2512207c.0628052,0,.1465454.0209351.3768311.2302856l1.2770386,1.067688c.1046753.0837402.2093506.1674805.2093506.3140259,0,.1884155-.1674805.2302856-.3140259.2302856h-5.5896606v4.0614014h4.7522583l1.0258179-1.1723633q.2302856-.2512207.3140259-.2512207c.1256104,0,.1674805.0209351.3977661.2093506l1.444519,1.1723633c.1256104.1046753.2093506.1884155.2093506.3140259,0,.2093506-.1674805.2302856-.3140259.2302856Z"/>
      <path class="cls-1" d="m209.5882657,98.4749432c2.7885742,0,5.4926758,2.2816162,5.4926758,6.3377686,0,4.6477051-3.6618042,7.2391357-6.7320557,7.2391357-3.2956543,0-7.3800049-2.9013062-7.3800049-9.6334229,0-5.9715576,3.2674561-11.9712524,8.7601929-11.9712524,2.4787598,0,4.4505005,1.2112427,4.4505005,2.8731079,0,1.0140381-.760498,1.7182617-1.8309326,1.7182617-1.0985107,0-1.9998779-.7605591-1.9998779-1.7745972,0-.253479.1408691-.7886963.1408691-.9295044,0-.7886963-.7042236-.9859009-1.380249-.9859009-1.0422363,0-4.0561523.9295044-4.6477051,9.5206909,1.8027344-1.7463989,3.7463379-2.3942871,5.1265869-2.3942871Zm-1.2112427,12.6755371c2.3942261,0,3.3519897-3.2111816,3.3519897-5.9152832,0-3.4645996-1.380249-5.4082031-3.2111816-5.4082031-.2816162,0-2.253418,0-4.0842896,2.1971436.0845337,2.8730469.2816772,9.1263428,3.9434814,9.1263428Z"/>
      <path class="cls-1" d="m232.1134122,110.3717938c-1.5701904,0-3.9776611-3.1402588-4.3544922-9.5882568h-2.6378174l.0418701,5.7571411c.4815063-.1465454,2.5959473-.7745972,3.0355835-.9002075v.1674805c-1.4026489,1.067688-2.5331421,1.6957397-4.9406738,3.0146484-.1046753.3768311-.1674805.6280518-.5024414.6280518-.2093506,0-.3140259-.1674805-.3768311-.2721558l-1.2351685-2.1144409c.3768311.0418701.5861816.0628052.8374023.0628052.6280518,0,1.1514282-.1046753,1.5073242-.1884155-.0209351-1.8841553-.0418701-9.5254517-.1256104-10.7815552-.0837402-1.0048828-.1465454-1.2770386-.2302856-1.7585449l1.8632202.7955322c1.3398438-.2721558,3.4333496-.9211426,4.5847778-1.444519.5861206-.2721558.7536011-.5861816.8792114-.8164673l1.3608398,1.6748047c.0418701.0628052.1256104.1465454.1256104.2721558,0,.2512207-.2303467.2721558-.3768311.2721558-.2512207,0-.5443115-.0837402-.7327881-.1256104-.4814453.1046753-.8582764.2093506-1.6538086.3140259,0,1.9260254.0418701,3.4752197.1256104,4.9406738h.8582764l.6490479-.9839478c.0837402-.1046753.1883545-.2721558.3349609-.2721558.1256104,0,.2930908.1465454.3768311.2093506l1.1723633,1.0048828c.1046143.1046753.2093506.1884155.2093506.3349609,0,.1884155-.1674805.2093506-.3140869.2093506h-3.244873c.2721558,4.8778687,1.9678955,7.0132446,2.1772461,7.0132446.2720947,0,.8164062-.7955322,1.1513672-1.3817139l.1674805.1046753c-.0627441.2930908-.2930908,1.6119995-.2930908,1.800415,0,.2302856.0209961.2930908.2512207.7536621.0837402.1465454.1256104.3140259.1256104.4605713,0,.2512207-.1464844.8374023-.8164062.8374023Zm-2.2401123.3768311h-4.0194702c-1.2770386,0-1.7376099.0418701-2.2609863.1465454l-.3349609-.7745972c1.2770386.1046753,2.7424927.1256104,2.9727783.1256104h1.1304932l.6489868-.9002075c.1046753-.1465454.2093506-.2721558.3349609-.2721558s.2512207.1046753.3768311.2093506l1.2561035.9211426c.1046143.0837402.2093506.1884155.2093506.3140259,0,.2093506-.1884766.2302856-.3140869.2302856Zm-2.2818604-15.2407227c-.6908569.0628052-1.4026489.0837402-2.5540771.1046753,0,.6699219.0628052,3.935791.0628052,4.6685181h2.6378174c-.0418701-1.0048828-.1046753-2.4075317-.1465454-4.7731934Zm9.1276855,14.6126709c-.1256104-1.1932983-.8165283-1.8841553-1.5283203-2.5540771l.1256104-.1465454c.4815674.1046753,1.5701904.355896,2.135376.355896.6699219,0,.8792725-.5861816.8792725-1.3398438,0-1.7585449-.6907959-3.55896-2.6168213-5.3803101,1.1723633-3.4961548,1.3398438-4.5219727,1.5910645-6.0292969h-2.4703369c.020874.8374023.0418701,6.803894.0418701,8.0809326.020874,1.3189087.1046143,7.2225952.1046143,8.4368286,0,.711792-.6489258,1.0467529-1.2561035,1.0467529-.5443115,0-.5443115-.5443115-.5443115-.9211426,0-.0628052,0-.7955322.0209961-.9002075,0-.6071167.0837402-3.9567261.0837402-5.7362061,0-2.3237915.020874-8.8555298-.1674805-10.362854,0-.0837402-.1256104-1.0258179-.1466064-1.2142334l2.0307617,1.067688h2.2191162l.732666-.4815063c.0628662-.0418701.2512207-.1465454.3140869-.1465454.0627441,0,.1464844.0418701.2720947.1674805l1.2561035,1.1304932c.1047363.1046753.2093506.2930908.2093506.5024414,0,.4605713-.4395752.5861816-1.0467529.711792-.1674805.3349609-.4605713.9002075-1.2351074,2.0935059-1.2142334,1.9050903-1.3608398,2.1144409-1.5283203,2.4075317,4.0195312,2.1772461,4.0195312,5.4012451,4.0195312,5.8199463,0,.711792-.355835,3.223999-3.4960938,3.3914795Z"/>
    </g>
    <g>
      <path class="cls-3" d="m102.3610929,21.5699139c0,1.784668.0341797,2.0400391,1.0200195,2.125l.5439453.0507812c.1020508.0678711.0678711.3740234-.0341797.4248047-.96875-.0336914-1.546875-.0507812-2.2265625-.0507812-.6801758,0-1.2749023.0170898-2.362793.0507812-.1020508-.0507812-.1362305-.3398438,0-.4248047l.6118164-.0507812c.96875-.0849609,1.0537109-.340332,1.0537109-2.125v-7.5981445c0-.5268555,0-.5439453-.5097656-.5439453h-.9350586c-.730957,0-1.6655273.0341797-2.0908203.4248047-.4077148.3740234-.5776367.7480469-.7646484,1.1728516-.1362305.1020508-.3740234.0170898-.4418945-.1186523.2719727-.7651367.5268555-1.8530273.6459961-2.5327148.0507812-.0341797.2719727-.0512695.3227539,0,.1020508.5439453.6630859.5268555,1.4448242.5268555h6.8842773c.9179688,0,1.0708008-.0341797,1.3261719-.4760742.0849609-.0341797.2714844-.0170898.3056641.0507812-.1870117.6972656-.3056641,2.0742188-.2548828,2.5839844-.0678711.1357422-.3569336.1357422-.4418945.0341797-.0512695-.425293-.1699219-1.0541992-.425293-1.2412109-.390625-.2890625-1.0366211-.4248047-1.9716797-.4248047h-1.206543c-.5102539,0-.4931641.0170898-.4931641.578125v7.5639648Z"/>
      <path class="cls-3" d="m107.5632413,18.6294842c0-3.3999023,2.5498047-6.0004883,6.0517578-6.0004883,3.9262695,0,5.8984375,2.8383789,5.8984375,5.8300781,0,3.434082-2.6181641,5.9326172-5.8984375,5.9326172-3.7739258,0-6.0517578-2.7026367-6.0517578-5.762207Zm10.25.3569336c0-2.8046875-1.2407227-5.8305664-4.4873047-5.8305664-1.7680664,0-4.0625,1.2070312-4.0625,4.9296875,0,2.515625,1.2236328,5.7792969,4.5722656,5.7792969,2.0400391,0,3.9775391-1.5297852,3.9775391-4.878418Z"/>
      <path class="cls-3" d="m122.472421,15.4507732c0-1.7851562-.0341797-2.0571289-1.0200195-2.1420898l-.4248047-.0336914c-.1020508-.0683594-.0678711-.3740234.0341797-.425293.8325195.0341797,1.3764648.0512695,2.1416016.0512695.6630859,0,1.2407227-.0170898,1.9716797-.0512695.1020508.0512695.1362305.3569336.0341797.425293l-.3232422.0336914c-.9858398.1020508-1.0195312.3569336-1.0195312,2.1420898v1.9545898c0,.3227539.0336914.6459961.2207031.6459961.1533203,0,.3569336-.1020508.4760742-.1870117.237793-.2041016.6796875-.6459961.8666992-.815918l1.8359375-1.8188477c.3232422-.3061523,1.1557617-1.1728516,1.3261719-1.4106445.0849609-.1191406.1186523-.2041016.1186523-.2719727,0-.0683594-.0678711-.1191406-.2890625-.1704102l-.4589844-.1015625c-.1186523-.1191406-.1015625-.340332.0341797-.425293.5952148.0341797,1.2749023.0512695,1.8696289.0512695.5952148,0,1.1728516-.0170898,1.6831055-.0512695.1191406.0849609.1357422.3232422.0336914.425293-.4418945.0336914-1.1044922.2036133-1.5805664.4755859s-1.4277344,1.0712891-2.3798828,1.972168l-1.5297852,1.4448242c-.237793.237793-.3911133.390625-.3911133.5268555,0,.1191406.1020508.2548828.3232422.5268555,1.6147461,1.8530273,2.9238281,3.3828125,4.2495117,4.7763672.4077148.4082031.7817383.6289062,1.3598633.6972656l.4589844.0507812c.1191406.0849609.0849609.3740234-.0341797.4248047-.4418945-.0336914-1.1049805-.0507812-1.9038086-.0507812-.6967773,0-1.2919922.0170898-2.0737305.0507812-.1191406-.0336914-.1699219-.3227539-.0678711-.4248047l.3911133-.0678711c.237793-.0341797.4077148-.0849609.4077148-.1699219,0-.1020508-.1191406-.2382812-.237793-.3911133-.3232422-.4077148-.7651367-.8666992-1.4111328-1.5976562l-1.3598633-1.5297852c-.96875-1.0878906-1.2407227-1.4282227-1.6489258-1.4282227-.2548828,0-.2885742.2211914-.2885742.815918v2.1928711c0,1.784668.0336914,2.0229492.9858398,2.125l.4589844.0507812c.1020508.0678711.0678711.3740234-.0341797.4248047-.8330078-.0336914-1.4106445-.0507812-2.0737305-.0507812-.6967773,0-1.2749023.0170898-1.9716797.0507812-.1020508-.0507812-.1362305-.3056641-.0341797-.4248047l.3398438-.0507812c.9008789-.1362305.9350586-.340332.9350586-2.125v-6.1191406Z"/>
      <path class="cls-3" d="m131.941171,18.6294842c0-3.3999023,2.5498047-6.0004883,6.0517578-6.0004883,3.9262695,0,5.8984375,2.8383789,5.8984375,5.8300781,0,3.434082-2.6181641,5.9326172-5.8984375,5.9326172-3.7739258,0-6.0517578-2.7026367-6.0517578-5.762207Zm10.25.3569336c0-2.8046875-1.2407227-5.8305664-4.4873047-5.8305664-1.7680664,0-4.0625,1.2070312-4.0625,4.9296875,0,2.515625,1.2236328,5.7792969,4.5722656,5.7792969,2.0400391,0,3.9775391-1.5297852,3.9775391-4.878418Z"/>
      <path class="cls-3" d="m146.8503507,15.4673748c0-1.6147461-.0507812-1.9038086-.7480469-1.9887695l-.5439453-.0678711c-.1186523-.0849609-.1186523-.3569336.0170898-.4248047.9521484-.0849609,2.125-.1362305,3.7905273-.1362305,1.0541992,0,2.0571289.0849609,2.8388672.5102539.815918.4248047,1.4106445,1.1899414,1.4106445,2.3793945,0,1.6152344-1.2749023,2.4990234-2.1245117,2.8388672-.0849609.1020508,0,.2719727.0849609.4082031,1.3598633,2.1923828,2.2607422,3.5522461,3.4165039,4.5214844.2890625.2548828.7138672.4418945,1.1728516.4760742.0849609.0336914.1020508.1699219.0170898.237793-.152832.0507812-.4248047.0849609-.7480469.0849609-1.4448242,0-2.3115234-.4248047-3.5185547-2.1416016-.4418945-.6293945-1.1386719-1.8022461-1.6655273-2.5668945-.2553711-.3740234-.5273438-.5439453-1.2070312-.5439453-.7651367,0-.7988281.0170898-.7988281.3740234v2.1416016c0,1.784668.0336914,1.9887695,1.0195312,2.125l.3569336.0507812c.1020508.0849609.0683594.3740234-.0336914.4248047-.7651367-.0336914-1.3427734-.0507812-2.0229492-.0507812-.7138672,0-1.3256836.0170898-2.1245117.0507812-.1020508-.0507812-.1362305-.3056641-.0341797-.4248047l.4248047-.0507812c.9858398-.1191406,1.0200195-.340332,1.0200195-2.125v-6.1025391Zm1.394043,2.4311523c0,.3056641,0,.4926758.0507812.5605469.0507812.0512695.3061523.0854492,1.1728516.0854492.6118164,0,1.2578125-.0683594,1.7509766-.4423828.4589844-.3569336.8496094-.9516602.8496094-2.1074219,0-1.3432617-.8325195-2.6181641-2.7197266-2.6181641-1.0537109,0-1.1044922.0683594-1.1044922.5439453v3.9780273Z"/>
      <path class="cls-3" d="m155.8093351,18.6294842c0-3.3999023,2.5498047-6.0004883,6.0517578-6.0004883,3.9262695,0,5.8984375,2.8383789,5.8984375,5.8300781,0,3.434082-2.6181641,5.9326172-5.8984375,5.9326172-3.7739258,0-6.0517578-2.7026367-6.0517578-5.762207Zm10.25.3569336c0-2.8046875-1.2407227-5.8305664-4.4873047-5.8305664-1.7680664,0-4.0625,1.2070312-4.0625,4.9296875,0,2.515625,1.2236328,5.7792969,4.5722656,5.7792969,2.0400391,0,3.9775391-1.5297852,3.9775391-4.878418Z"/>
      <path class="cls-3" d="m174.5261319,16.4366131c.8837891-1.2578125,1.3769531-1.9038086,1.6489258-2.4140625.1191406-.2036133.2041016-.3398438.2041016-.4589844,0-.0849609-.1704102-.1357422-.6123047-.1357422h-2.5327148c-1.3598633,0-2.1245117.1191406-2.5327148.5610352-.3569336.390625-.6118164.8666992-.7480469,1.1557617-.152832.0678711-.3569336.0170898-.4248047-.1191406.2041016-.5947266.4931641-1.6147461.6967773-2.5498047.0683594-.0507812.2041016-.0507812.2890625,0,.0512695.4082031.3061523.425293,1.6831055.425293h4.4873047c1.2241211,0,1.7680664-.0170898,1.9550781-.0512695.0678711.0170898.1015625.0849609.1015625.1533203-.4584961.390625-1.9033203,2.362793-2.7875977,3.637207l-2.8046875,4.0458984c-.1870117.2719727-1.6826172,2.3798828-1.6826172,2.6347656,0,.1699219.1699219.2041016.4760742.237793.4418945.0341797,1.3256836.0341797,2.515625.0341797,1.0878906,0,2.4985352-.0341797,3.1445312-.3911133.4931641-.2719727.9008789-.9008789,1.1899414-1.5639648.152832-.0507812.3740234-.0336914.4248047.1191406-.152832.7817383-.4926758,1.9887695-.7646484,2.4135742-.9350586-.0336914-1.9038086-.0507812-3.09375-.0507812h-4.3686523c-.9008789,0-1.5126953.0341797-1.9038086.0507812-.0678711-.0336914-.0849609-.1186523-.0849609-.2036133.3569336-.340332,1.3256836-1.546875,1.8530273-2.3120117l3.6713867-5.2182617Z"/>
      <path class="cls-3" d="m186.5617765,20.1763592c-.1191406-.3740234-.1870117-.425293-.6972656-.425293h-2.5664062c-.425293,0-.5273438.0512695-.6459961.4082031l-.5952148,1.784668c-.2548828.7651367-.3740234,1.2236328-.3740234,1.4106445,0,.2041016.0854492.3061523.4931641.340332l.5610352.0507812c.1191406.0849609.1191406.3569336-.0341797.4248047-.4418945-.0336914-.96875-.0336914-1.7675781-.0507812-.5610352,0-1.1728516.0341797-1.6318359.0507812-.1020508-.0678711-.1362305-.3398438-.0341797-.4248047l.5610352-.0507812c.4077148-.0341797.7817383-.2211914,1.0200195-.8330078.3056641-.7822266.7817383-1.8867188,1.4956055-3.7905273l1.7338867-4.5898438c.237793-.6118164.3398438-.9345703.2890625-1.206543.4077148-.1191406.6967773-.425293.8837891-.6459961.1020508,0,.2211914.0336914.2548828.152832.2211914.7480469.4931641,1.5297852.7480469,2.277832l2.3286133,6.8334961c.4931641,1.4614258.7138672,1.7167969,1.4448242,1.8017578l.4589844.0507812c.1191406.0849609.0849609.3569336,0,.4248047-.6967773-.0336914-1.2915039-.0507812-2.0566406-.0507812-.815918,0-1.4619141.0341797-1.9545898.0507812-.1362305-.0678711-.1533203-.3398438-.0341797-.4248047l.4931641-.0507812c.3569336-.0341797.5947266-.1362305.5947266-.3061523,0-.1870117-.0849609-.4926758-.2211914-.9008789l-.7475586-2.3115234Zm-3.3657227-1.5131836c-.1362305.3911133-.1191406.4082031.3569336.4082031h2.0908203c.4926758,0,.5268555-.0683594.3740234-.5268555l-.9179688-2.7709961c-.1362305-.4077148-.2890625-.8666992-.3911133-1.0708008h-.0336914c-.0512695.0849609-.2211914.4926758-.4082031,1.0029297l-1.0708008,2.9575195Z"/>
      <path class="cls-3" d="m188.4836515,13.2579022c-.1020508-.1020508-.0849609-.3398438.0507812-.4082031.4589844.0341797,1.2236328.0512695,1.7509766.0512695.4755859,0,1.3427734-.0170898,1.9375-.0512695.1533203.0512695.1362305.2890625.0341797.4082031l-.3911133.0336914c-.3569336.0341797-.5610352.1362305-.5610352.2890625,0,.2041016.3574219,1.0708008.8842773,2.277832.9516602,2.125,1.9545898,4.2495117,2.9404297,6.340332.4082031-.8496094.8671875-1.8017578,1.309082-2.753418.152832-.3232422.2719727-.6123047.2719727-.6972656s-.0512695-.237793-.1362305-.4418945c-.5947266-1.3598633-1.2236328-2.7197266-1.8696289-4.0795898-.2548828-.5268555-.5097656-.8837891-1.0878906-.9350586l-.4082031-.0336914c-.1186523-.1362305-.1015625-.3398438.0341797-.4082031.4931641.0341797,1.1391602.0512695,1.8188477.0512695.8500977,0,1.4790039-.0170898,1.8696289-.0512695.1191406.0512695.1362305.2719727.0341797.4082031l-.4418945.0336914c-.6630859.0512695-.6801758.1704102-.3569336.9350586.3569336.8330078.8330078,1.9038086,1.3085938,2.9575195.3232422-.6625977.6289062-1.3085938,1.0029297-2.2265625.6123047-1.4448242.5268555-1.6318359-.0170898-1.6660156l-.5097656-.0336914c-.1191406-.1699219-.0849609-.3569336.0341797-.4082031.4589844.0341797.96875.0512695,1.5976562.0512695.5610352,0,1.2407227-.0170898,1.6318359-.0512695.1191406.0512695.1362305.2719727.0341797.4082031l-.4931641.0336914c-.7138672.0512695-1.0200195.815918-1.3935547,1.5131836-.3574219.6289062-1.0712891,2.1079102-1.3261719,2.7026367-.0849609.1699219-.152832.3398438-.152832.4077148,0,.0683594.0336914.2041016.1191406.4082031.5776367,1.309082,1.1728516,2.5834961,1.7333984,3.8754883.5273438-1.1899414,1.0371094-2.3798828,1.5302734-3.5864258.3398438-.815918,1.2407227-3.0766602,1.3598633-3.3828125.2207031-.6118164.5097656-1.3427734.5097656-1.546875,0-.237793-.2041016-.3740234-.5610352-.3911133l-.4926758-.0336914c-.1362305-.152832-.1191406-.3398438.0166016-.4082031.6459961.0341797,1.1049805.0512695,1.6318359.0512695.6459961,0,1.1391602-.0170898,1.5810547-.0512695.1357422.0512695.152832.2719727.0341797.4082031l-.3232422.0336914c-.8496094.0849609-1.0029297.5952148-2.0229492,2.9580078l-1.2407227,2.8725586c-.7480469,1.7338867-1.4277344,3.3999023-2.1245117,5.21875-.0512695.0336914-.1191406.0507812-.2041016.0507812s-.1699219-.0170898-.2382812-.0507812c-.5439453-1.5131836-1.5297852-3.6376953-2.0566406-4.8276367-.6118164,1.2407227-1.6318359,3.4165039-2.1245117,4.8276367-.0512695.0336914-.1191406.0507812-.2041016.0507812s-.1699219-.0170898-.2548828-.0507812c-.2890625-.7143555-.9521484-2.2441406-1.1728516-2.7368164-1.0878906-2.362793-2.1420898-4.7255859-3.2470703-7.0883789-.3227539-.6967773-.5268555-1.1557617-1.2407227-1.2241211l-.4077148-.0336914Z"/>
      <path class="cls-3" d="m210.4978116,20.1763592c-.1191406-.3740234-.1870117-.425293-.6972656-.425293h-2.5664062c-.425293,0-.5268555.0512695-.6459961.4082031l-.5952148,1.784668c-.2548828.7651367-.3735352,1.2236328-.3735352,1.4106445,0,.2041016.0849609.3061523.4926758.340332l.5610352.0507812c.1191406.0849609.1191406.3569336-.0341797.4248047-.4418945-.0336914-.96875-.0336914-1.7675781-.0507812-.5610352,0-1.1728516.0341797-1.6318359.0507812-.1020508-.0678711-.1362305-.3398438-.0341797-.4248047l.5610352-.0507812c.4077148-.0341797.7817383-.2211914,1.0200195-.8330078.3056641-.7822266.7817383-1.8867188,1.4956055-3.7905273l1.7338867-4.5898438c.237793-.6118164.3398438-.9345703.2890625-1.206543.4077148-.1191406.6967773-.425293.8837891-.6459961.1020508,0,.2211914.0336914.2548828.152832.2211914.7480469.4931641,1.5297852.7480469,2.277832l2.3286133,6.8334961c.4931641,1.4614258.7143555,1.7167969,1.4448242,1.8017578l.4589844.0507812c.1191406.0849609.0849609.3569336,0,.4248047-.6967773-.0336914-1.2915039-.0507812-2.0566406-.0507812-.815918,0-1.4619141.0341797-1.9545898.0507812-.1362305-.0678711-.1533203-.3398438-.0341797-.4248047l.4931641-.0507812c.3569336-.0341797.5947266-.1362305.5947266-.3061523,0-.1870117-.0849609-.4926758-.2211914-.9008789l-.7475586-2.3115234Zm-3.3657227-1.5131836c-.1362305.3911133-.1191406.4082031.3569336.4082031h2.0908203c.4926758,0,.5268555-.0683594.3740234-.5268555l-.9179688-2.7709961c-.1362305-.4077148-.2890625-.8666992-.3911133-1.0708008h-.0341797c-.0507812.0849609-.2207031.4926758-.4077148,1.0029297l-1.0708008,2.9575195Z"/>
    </g>
  </g>
</svg>